<svg width="30" height="30" viewBox="0 0 30 30" fill="none" xmlns="http://www.w3.org/2000/svg">
<rect width="30" height="30" rx="15" fill="#FF7D7D"/>
<path d="M14.9998 16.6665C16.3832 16.6665 17.4998 15.5498 17.4998 14.1665V9.1665C17.4998 7.78317 16.3832 6.6665 14.9998 6.6665C13.6165 6.6665 12.4998 7.78317 12.4998 9.1665V14.1665C12.4998 15.5498 13.6165 16.6665 14.9998 16.6665ZM19.9248 14.1665C19.5165 14.1665 19.1748 14.4665 19.1082 14.8748C18.7665 16.8332 17.0582 18.3332 14.9998 18.3332C12.9415 18.3332 11.2332 16.8332 10.8915 14.8748C10.8248 14.4665 10.4832 14.1665 10.0748 14.1665C9.56649 14.1665 9.16649 14.6165 9.24149 15.1165C9.64983 17.6165 11.6498 19.5748 14.1665 19.9332V21.6665C14.1665 22.1248 14.5415 22.4998 14.9998 22.4998C15.4582 22.4998 15.8332 22.1248 15.8332 21.6665V19.9332C18.3498 19.5748 20.3498 17.6165 20.7582 15.1165C20.8415 14.6165 20.4332 14.1665 19.9248 14.1665Z" fill="white"/>
</svg>
