<svg width="44" height="44" viewBox="0 0 44 44" fill="none" xmlns="http://www.w3.org/2000/svg">
<rect width="44" height="44" rx="22" fill="#33CCFF"/>
<path d="M22 24C23.66 24 25 22.66 25 21V15C25 13.34 23.66 12 22 12C20.34 12 19 13.34 19 15V21C19 22.66 20.34 24 22 24ZM27.91 21C27.42 21 27.01 21.36 26.93 21.85C26.52 24.2 24.47 26 22 26C19.53 26 17.48 24.2 17.07 21.85C16.99 21.36 16.58 21 16.09 21C15.48 21 15 21.54 15.09 22.14C15.58 25.14 17.98 27.49 21 27.92V30C21 30.55 21.45 31 22 31C22.55 31 23 30.55 23 30V27.92C26.02 27.49 28.42 25.14 28.91 22.14C29.01 21.54 28.52 21 27.91 21Z" fill="white"/>
</svg>
