<svg width="30" height="30" viewBox="0 0 30 30" fill="none" xmlns="http://www.w3.org/2000/svg">
<rect width="30" height="30" rx="15" fill="#18BD5A"/>
<g clip-path="url(#clip0_429_18768)">
<path d="M21.0687 7.54845L20.9619 7.58835C20.9791 7.59862 20.9919 7.59269 21.0057 7.59032L21.0596 7.55793C21.0624 7.55437 21.0666 7.5518 21.0687 7.54845ZM12.96 22.4416C12.96 22.5875 12.8346 22.4101 12.96 22.4416V22.4416ZM7.54179 15.6686C7.44776 15.7312 7.54179 15.554 7.54179 15.6686V15.6686ZM21.0687 7.54845L21.0873 7.54133C21.08 7.5364 21.0836 7.53482 21.0794 7.53087C21.076 7.53738 21.0739 7.54035 21.0687 7.54845ZM21.0057 7.59032L7.54179 15.6686C7.54179 15.6686 9.47489 16.6895 11.5208 17.4889L19.7328 8.89604L12.96 18.3778V22.4416L14.6752 18.8857L19.733 21.087L21.0875 7.54153L21.06 7.55793C21.0464 7.5761 21.0282 7.58618 21.0057 7.59032ZM21.0794 7.53087C21.0911 7.50835 21.0958 7.4959 21.0875 7.54153C21.1837 7.49353 21.0318 7.48346 21.0794 7.53087Z" fill="white"/>
</g>
<defs>
<clipPath id="clip0_429_18768">
<rect width="18" height="18" fill="white" transform="translate(6 6)"/>
</clipPath>
</defs>
</svg>
