<svg width="24" height="24" viewBox="0 0 24 24" fill="none" xmlns="http://www.w3.org/2000/svg">
<rect width="24" height="24" rx="12" fill="#115ABB"/>
<g clip-path="url(#clip0_470_17367)">
<path d="M17.3333 5.33334H6.66659C5.99992 5.33334 5.33325 5.93334 5.33325 6.66668V8.67334C5.33325 9.15334 5.61992 9.56668 5.99992 9.80001V17.3333C5.99992 18.0667 6.73325 18.6667 7.33325 18.6667H16.6666C17.2666 18.6667 17.9999 18.0667 17.9999 17.3333V9.80001C18.3799 9.56668 18.6666 9.15334 18.6666 8.67334V6.66668C18.6666 5.93334 17.9999 5.33334 17.3333 5.33334ZM13.9999 13.3333H9.99992V12H13.9999V13.3333ZM17.3333 8.66668H6.66659V6.66668L17.3333 6.65334V8.66668Z" fill="white"/>
</g>
<defs>
<clipPath id="clip0_470_17367">
<rect width="16" height="16" fill="white" transform="translate(4 4)"/>
</clipPath>
</defs>
</svg>
