<svg width="20" height="26" viewBox="0 0 20 26" fill="none" xmlns="http://www.w3.org/2000/svg">
<path d="M9.99994 16.1665C12.2133 16.1665 13.9999 14.3798 13.9999 12.1665V4.1665C13.9999 1.95317 12.2133 0.166504 9.99994 0.166504C7.78661 0.166504 5.99994 1.95317 5.99994 4.1665V12.1665C5.99994 14.3798 7.78661 16.1665 9.99994 16.1665ZM17.8799 12.1665C17.2266 12.1665 16.6799 12.6465 16.5733 13.2998C16.0266 16.4332 13.2933 18.8332 9.99994 18.8332C6.70661 18.8332 3.97327 16.4332 3.42661 13.2998C3.31994 12.6465 2.77327 12.1665 2.11994 12.1665C1.30661 12.1665 0.666608 12.8865 0.786608 13.6865C1.43994 17.6865 4.63994 20.8198 8.66661 21.3932V24.1665C8.66661 24.8998 9.26661 25.4998 9.99994 25.4998C10.7333 25.4998 11.3333 24.8998 11.3333 24.1665V21.3932C15.3599 20.8198 18.5599 17.6865 19.2133 13.6865C19.3466 12.8865 18.6933 12.1665 17.8799 12.1665Z" fill="#18BD5A"/>
</svg>
