<svg width="50" height="50" viewBox="0 0 50 50" fill="none" xmlns="http://www.w3.org/2000/svg">
<path fill-rule="evenodd" clip-rule="evenodd" d="M15.25 25.2308C15.25 19.7365 19.5975 15.25 25 15.25C30.4025 15.25 34.75 19.7365 34.75 25.2308V28C34.75 28.4142 34.4142 28.75 34 28.75C33.5858 28.75 33.25 28.4142 33.25 28V25.2308C33.25 20.529 29.5386 16.75 25 16.75C20.4614 16.75 16.75 20.529 16.75 25.2308V28C16.75 28.4142 16.4142 28.75 16 28.75C15.5858 28.75 15.25 28.4142 15.25 28V25.2308Z" fill="#33CCFF"/>
<path fill-rule="evenodd" clip-rule="evenodd" d="M32 27.75C31.3097 27.75 30.75 28.3097 30.75 29V32C30.75 32.6903 31.3097 33.25 32 33.25H33.25V27.75H32ZM29.25 29C29.25 27.4812 30.4812 26.25 32 26.25H34C34.4142 26.25 34.75 26.5858 34.75 27V34C34.75 34.4142 34.4142 34.75 34 34.75H32C30.4812 34.75 29.25 33.5188 29.25 32V29Z" fill="#33CCFF"/>
<path d="M34 29H35C35.5523 29 36 29.4477 36 30V31C36 31.5523 35.5523 32 35 32H34V29Z" fill="#33CCFF"/>
<path d="M16 29H15C14.4477 29 14 29.4477 14 30V31C14 31.5523 14.4477 32 15 32H16V29Z" fill="#33CCFF"/>
<path fill-rule="evenodd" clip-rule="evenodd" d="M15.25 27C15.25 26.5858 15.5858 26.25 16 26.25H18C19.5188 26.25 20.75 27.4812 20.75 29V32C20.75 33.5188 19.5188 34.75 18 34.75H16C15.5858 34.75 15.25 34.4142 15.25 34V27ZM16.75 27.75V33.25H18C18.6903 33.25 19.25 32.6903 19.25 32V29C19.25 28.3097 18.6903 27.75 18 27.75H16.75Z" fill="#33CCFF"/>
<rect x="0.5" y="0.5" width="49" height="49" rx="24.5" stroke="#33CCFF"/>
</svg>
