<svg width="18" height="18" viewBox="0 0 18 18" fill="none" xmlns="http://www.w3.org/2000/svg">
<path fill-rule="evenodd" clip-rule="evenodd" d="M3.0849 1.49917C2.27874 1.49917 1.77586 2.22156 2.00616 2.90411C2.83193 5.35138 4.37076 9.03294 6.66559 11.3278C8.96041 13.6226 12.642 15.1614 15.0893 15.9872C15.7717 16.2175 16.4942 15.7147 16.4942 14.9084V12.4235C16.4942 12.3346 16.446 12.2527 16.3683 12.2094L14.2037 11.006C14.133 10.9667 14.0475 10.9648 13.9752 11.001L11.6668 12.1552C11.5225 12.2274 11.3584 12.25 11.1999 12.2196L11.3383 11.498C11.1999 12.2196 11.2001 12.2196 11.1999 12.2196L11.1978 12.2192L11.195 12.2186L11.1876 12.2172L11.1655 12.2126C11.1475 12.2087 11.1231 12.2033 11.0929 12.1962C11.0325 12.1819 10.9484 12.1606 10.8448 12.1307C10.6379 12.071 10.3513 11.9765 10.0182 11.8346C9.3548 11.5519 8.48885 11.073 7.70459 10.2888C6.92044 9.50464 6.44026 8.63744 6.15625 7.97311C6.01361 7.63947 5.91844 7.3523 5.85819 7.14508C5.82802 7.04131 5.80647 6.95712 5.79203 6.89662C5.7848 6.86636 5.77934 6.84198 5.77546 6.82399L5.77079 6.80185L5.7693 6.79448L5.76876 6.79174L5.76854 6.79061C5.76849 6.79037 5.76835 6.78964 6.48952 6.64936L5.76854 6.79061C5.7376 6.63154 5.75992 6.46574 5.83239 6.3208L6.98674 4.01205C7.02287 3.93982 7.02107 3.85431 6.98183 3.78363L5.78362 1.62524C5.78361 1.62523 5.78363 1.62526 5.78362 1.62524C5.7404 1.54743 5.65839 1.49917 5.56949 1.49917H3.0849ZM7.2688 6.73364C7.26892 6.73404 7.26903 6.73445 7.26915 6.73486C7.31538 6.89386 7.39134 7.12416 7.50734 7.39549C7.7406 7.9411 8.1277 8.63386 8.74359 9.24975C8.74359 9.24975 8.74358 9.24974 8.74359 9.24975L8.22409 9.76926M8.74359 9.24975C9.3594 9.86554 10.0505 10.2511 10.5942 10.4828C10.8646 10.598 11.094 10.6732 11.2523 10.7189C11.2526 10.719 11.252 10.7188 11.2523 10.7189L13.318 9.68678C13.318 9.68678 13.318 9.68679 13.318 9.68678C13.8243 9.4336 14.423 9.44671 14.9177 9.72175L17.0823 10.9252C17.6262 11.2276 17.9636 11.8011 17.9636 12.4235V14.9084C17.9636 16.6332 16.3351 17.9584 14.6195 17.3794C12.1414 16.5433 8.17758 14.9178 5.62657 12.3668C3.07556 9.81576 1.45004 5.8519 0.613893 3.37389C0.0350312 1.6583 1.36016 0.0297852 3.0849 0.0297852H5.56949C6.19225 0.0297852 6.76599 0.367534 7.06828 0.91197L8.26654 3.07045C8.54105 3.56497 8.55404 4.16316 8.30101 4.66917C8.301 4.66919 8.30102 4.66915 8.30101 4.66917L7.2688 6.73364" fill="#1C1B1E"/>
</svg>
