<svg width="24" height="25" viewBox="0 0 24 25" fill="none" xmlns="http://www.w3.org/2000/svg">
<path fill-rule="evenodd" clip-rule="evenodd" d="M12 2.25C12.2676 2.25 12.515 2.39261 12.6491 2.62422L23.6491 21.6242C23.7834 21.8563 23.7837 22.1424 23.6497 22.3746C23.5158 22.6069 23.2681 22.75 23 22.75H1C0.73189 22.75 0.484172 22.6069 0.350257 22.3746C0.216341 22.1424 0.216598 21.8563 0.35093 21.6242L11.3509 2.62422C11.485 2.39261 11.7324 2.25 12 2.25ZM2.30083 21.25H21.6992L12 4.4969L2.30083 21.25Z" fill="#FF7D7D"/>
<path fill-rule="evenodd" clip-rule="evenodd" d="M12 17.25C12.4142 17.25 12.75 17.5858 12.75 18V18.5C12.75 18.9142 12.4142 19.25 12 19.25C11.5858 19.25 11.25 18.9142 11.25 18.5V18C11.25 17.5858 11.5858 17.25 12 17.25Z" fill="#FF7D7D"/>
<path fill-rule="evenodd" clip-rule="evenodd" d="M11.9994 9.25049C12.4136 9.25014 12.7497 9.58565 12.75 9.99987L12.7542 14.9996C12.7545 15.4138 12.419 15.7499 12.0048 15.7502C11.5906 15.7506 11.2545 15.4151 11.2542 15.0009L11.25 10.0011C11.2497 9.5869 11.5852 9.25083 11.9994 9.25049Z" fill="#FF7D7D"/>
</svg>
