<svg width="24" height="24" viewBox="0 0 24 24" fill="none" xmlns="http://www.w3.org/2000/svg">
    <path d="M8.53637 7.82606C8.60541 7.85292 8.6683 7.89352 8.72121 7.94542C8.72155 7.94576 8.7219 7.94609 8.72224 7.94643L11.6475 10.8708L12.0011 11.2243L12.3546 10.8707L15.2776 7.94654C15.278 7.94617 15.2784 7.9458 15.2788 7.94543C15.3771 7.84914 15.508 7.7934 15.6455 7.78929L15.6455 7.78934L15.6524 7.78903C15.7277 7.78573 15.8028 7.79799 15.873 7.82504C15.943 7.85197 16.0067 7.893 16.0602 7.94558C16.111 7.99633 16.1513 8.05658 16.1789 8.12292C16.2066 8.1896 16.2209 8.26111 16.2209 8.33333C16.2209 8.40556 16.2066 8.47706 16.1789 8.54374C16.1512 8.61043 16.1105 8.67096 16.0594 8.72186L16.0586 8.72268L13.1329 11.6474L12.779 12.0011L13.133 12.3548L16.0587 15.2775L16.0594 15.2781C16.1106 15.329 16.1512 15.3896 16.1789 15.4563C16.2066 15.5229 16.2209 15.5944 16.2209 15.6667C16.2209 15.7389 16.2066 15.8104 16.1789 15.8771C16.1512 15.9438 16.1105 16.0043 16.0594 16.0552L16.0575 16.0571C16.0066 16.1083 15.9461 16.1489 15.8795 16.1766C15.8129 16.2043 15.7415 16.2185 15.6694 16.2185C15.5973 16.2185 15.5259 16.2043 15.4593 16.1766C15.3927 16.1489 15.3322 16.1083 15.2813 16.0571L15.2803 16.0561L12.3546 13.1293L12.0011 12.7757L11.6475 13.1292L8.72068 16.0551C8.72054 16.0553 8.7204 16.0554 8.72025 16.0555C8.61769 16.1573 8.47911 16.2144 8.3347 16.2144C8.19009 16.2144 8.05132 16.1572 7.94872 16.0551C7.89759 16.0042 7.85701 15.9437 7.82931 15.8771C7.8016 15.8104 7.78733 15.7389 7.78733 15.6667C7.78733 15.5944 7.8016 15.5229 7.82931 15.4563C7.85702 15.3896 7.89763 15.329 7.94879 15.2781L7.94961 15.2773L10.8733 12.3546L11.2269 12.0011L10.8734 11.6475L7.94973 8.7228L7.94879 8.72186C7.89763 8.67096 7.85702 8.61042 7.82931 8.54374C7.8016 8.47706 7.78733 8.40556 7.78733 8.33333C7.78733 8.26111 7.8016 8.1896 7.82931 8.12292C7.85687 8.05661 7.89718 7.99638 7.94795 7.94565C8.04422 7.85122 8.17184 7.79574 8.30628 7.78961L8.31809 7.78918C8.39259 7.78648 8.46687 7.79902 8.53637 7.82606ZM12.0051 0.5C5.66713 0.5 0.499975 5.66016 0.5 12.001C0.500001 18.342 5.66727 23.5 12.0051 23.5C18.3436 23.5 23.5 18.3414 23.5 12.001C23.5 5.66077 18.3437 0.5 12.0051 0.5Z" fill="black" stroke="white"/>
</svg>
