<svg width="24" height="25" viewBox="0 0 24 25" fill="none" xmlns="http://www.w3.org/2000/svg">
<path fill-rule="evenodd" clip-rule="evenodd" d="M7.90625 3.75C7.54381 3.75 7.25 4.04381 7.25 4.40625V6.7158C7.25 7.13001 6.91421 7.4658 6.5 7.4658C6.08579 7.4658 5.75 7.13001 5.75 6.7158V4.40625C5.75 3.21539 6.71539 2.25 7.90625 2.25H20.0938C21.2846 2.25 22.25 3.21539 22.25 4.40625V16.5938C22.25 17.7846 21.2846 18.75 20.0938 18.75H17.7582C17.3439 18.75 17.0082 18.4142 17.0082 18C17.0082 17.5858 17.3439 17.25 17.7582 17.25H20.0938C20.4562 17.25 20.75 16.9562 20.75 16.5938V4.40625C20.75 4.04381 20.4562 3.75 20.0938 3.75H7.90625Z" fill="#33CCFF"/>
<path fill-rule="evenodd" clip-rule="evenodd" d="M1.75 8.40625C1.75 7.21539 2.71539 6.25 3.90625 6.25H16.0938C17.2846 6.25 18.25 7.21539 18.25 8.40625V20.5938C18.25 21.7846 17.2846 22.75 16.0938 22.75H3.90625C2.71539 22.75 1.75 21.7846 1.75 20.5938V8.40625ZM3.90625 7.75C3.54381 7.75 3.25 8.04381 3.25 8.40625V20.5938C3.25 20.9562 3.54381 21.25 3.90625 21.25H16.0938C16.4562 21.25 16.75 20.9562 16.75 20.5938V8.40625C16.75 8.04381 16.4562 7.75 16.0938 7.75H3.90625Z" fill="#33CCFF"/>
</svg>
