<svg width="64" height="64" viewBox="0 0 64 64" fill="none" xmlns="http://www.w3.org/2000/svg">
<rect width="64" height="64" rx="32" fill="#FF7D7D"/>
<g clip-path="url(#clip0_229_4977)">
<path d="M42.4999 21.5166C41.8499 20.8666 40.7999 20.8666 40.15 21.5166L32 29.65L23.85 21.5C23.2 20.85 22.15 20.85 21.5 21.5C20.85 22.15 20.85 23.2 21.5 23.85L29.65 32L21.5 40.15C20.85 40.7999 20.85 41.8499 21.5 42.4999C22.15 43.1499 23.2 43.1499 23.85 42.4999L32 34.3499L40.15 42.4999C40.7999 43.1499 41.8499 43.1499 42.4999 42.4999C43.1499 41.8499 43.1499 40.7999 42.4999 40.15L34.3499 32L42.4999 23.85C43.1333 23.2166 43.1333 22.15 42.4999 21.5166Z" fill="white"/>
</g>
<defs>
<clipPath id="clip0_229_4977">
<rect width="40" height="40" fill="white" transform="translate(12 12)"/>
</clipPath>
</defs>
</svg>
