<svg width="24" height="25" viewBox="0 0 24 25" fill="none" xmlns="http://www.w3.org/2000/svg">
<path fill-rule="evenodd" clip-rule="evenodd" d="M3.75 5.5C3.75 5.08579 4.08579 4.75 4.5 4.75H19.5C19.9142 4.75 20.25 5.08579 20.25 5.5V22.5C20.25 22.9142 19.9142 23.25 19.5 23.25H4.5C4.08579 23.25 3.75 22.9142 3.75 22.5V5.5ZM5.25 6.25V21.75H18.75V6.25H5.25Z" fill="#33CCFF"/>
<path fill-rule="evenodd" clip-rule="evenodd" d="M10 9.75C10.4142 9.75 10.75 10.0858 10.75 10.5V17C10.75 17.4142 10.4142 17.75 10 17.75C9.58579 17.75 9.25 17.4142 9.25 17V10.5C9.25 10.0858 9.58579 9.75 10 9.75Z" fill="#33CCFF"/>
<path fill-rule="evenodd" clip-rule="evenodd" d="M14 9.75C14.4142 9.75 14.75 10.0858 14.75 10.5V17C14.75 17.4142 14.4142 17.75 14 17.75C13.5858 17.75 13.25 17.4142 13.25 17V10.5C13.25 10.0858 13.5858 9.75 14 9.75Z" fill="#33CCFF"/>
<path fill-rule="evenodd" clip-rule="evenodd" d="M1.25 5.5C1.25 5.08579 1.58579 4.75 2 4.75H22C22.4142 4.75 22.75 5.08579 22.75 5.5C22.75 5.91421 22.4142 6.25 22 6.25H2C1.58579 6.25 1.25 5.91421 1.25 5.5Z" fill="#33CCFF"/>
<path fill-rule="evenodd" clip-rule="evenodd" d="M8.98683 2.13949C9.11849 1.89931 9.3706 1.75 9.6445 1.75H14.3885C14.6647 1.75 14.9186 1.90179 15.0493 2.1451L16.6607 5.1451C16.7856 5.37753 16.7791 5.65847 16.6437 5.88492C16.5083 6.11136 16.2638 6.25 16 6.25H8C7.73502 6.25 7.4897 6.11017 7.35468 5.88217C7.21965 5.65418 7.21496 5.37185 7.34233 5.13949L8.98683 2.13949ZM10.0887 3.25L9.26642 4.75H14.7458L13.9401 3.25H10.0887Z" fill="#33CCFF"/>
</svg>
