<svg width="16" height="16" viewBox="0 0 16 16" fill="none" xmlns="http://www.w3.org/2000/svg">
    <path fill-rule="evenodd" clip-rule="evenodd" d="M15.0201 4.31319C15.2153 4.50846 15.2153 4.82504 15.0201 5.0203L8.35339 11.687C8.15813 11.8822 7.84155 11.8822 7.64628 11.687L7.22962 11.2703C7.03436 11.075 7.03436 10.7585 7.22962 10.5632C7.42488 10.3679 7.74146 10.3679 7.93672 10.5632L7.99984 10.6263L14.313 4.31319C14.5082 4.11793 14.8248 4.11793 15.0201 4.31319ZM4.31295 7.64653C4.50821 7.45127 4.8248 7.45127 5.02006 7.64653L5.43672 8.06319C5.63199 8.25846 5.63199 8.57504 5.43672 8.7703C5.24146 8.96556 4.92488 8.96556 4.72962 8.7703L4.31295 8.35363C4.11769 8.15837 4.11769 7.84179 4.31295 7.64653Z" fill="#115ABB"/>
    <path fill-rule="evenodd" clip-rule="evenodd" d="M11.687 4.31319C11.8823 4.50846 11.8823 4.82504 11.687 5.0203L5.02038 11.687C4.82512 11.8822 4.50854 11.8822 4.31328 11.687L0.979943 8.35363C0.784681 8.15837 0.784681 7.84179 0.979943 7.64653C1.1752 7.45127 1.49179 7.45127 1.68705 7.64653L4.66683 10.6263L10.9799 4.31319C11.1752 4.11793 11.4918 4.11793 11.687 4.31319Z" fill="#115ABB"/>
</svg>
