<svg width="45" height="45" viewBox="0 0 45 45" fill="none" xmlns="http://www.w3.org/2000/svg">
<rect width="45" height="45" rx="22.5" fill="#33CCFF"/>
<path fill-rule="evenodd" clip-rule="evenodd" d="M15.6333 20.8554C15.0013 20.8554 14.4889 21.3678 14.4889 21.9999C14.4889 22.6319 15.0013 23.1443 15.6333 23.1443L21.3554 23.1443L21.3554 28.8667C21.3554 29.4987 21.8678 30.0111 22.4999 30.0111C23.132 30.0111 23.6444 29.4987 23.6444 28.8667L23.6443 23.1443L29.3667 23.1443C29.9988 23.1443 30.5112 22.632 30.5112 21.9999C30.5112 21.3678 29.9988 20.8554 29.3667 20.8554L23.6443 20.8554L23.6443 15.1333C23.6443 14.5012 23.132 13.9888 22.4999 13.9888C21.8678 13.9888 21.3554 14.5012 21.3554 15.1333L21.3554 20.8554L15.6333 20.8554Z" fill="white"/>
</svg>
