<?xml version="1.0" encoding="utf-8"?>
<!-- Generator: Adobe Illustrator 25.4.1, SVG Export Plug-In . SVG Version: 6.00 Build 0)  -->
<svg version="1.1" id="Layer_1" xmlns="http://www.w3.org/2000/svg" xmlns:xlink="http://www.w3.org/1999/xlink" x="0px" y="0px"
	 viewBox="0 0 1364 960" style="enable-background:new 0 0 1364 960;" xml:space="preserve">
<style type="text/css">
	.st0{fill:#DDE4F0;}
	.st1{fill:#DDE1F5;}
	.st2{fill:url(#SVGID_1_);}
	.st3{fill:url(#SVGID_00000150071600881189798020000003203914617137134511_);}
	.st4{fill:url(#SVGID_00000020370396334129117920000004247135968982395582_);}
	.st5{fill:url(#SVGID_00000115484596109919986600000016430280597917549702_);}
	.st6{fill:url(#SVGID_00000160913405847953517270000006975011999114063538_);}
	.st7{fill:url(#SVGID_00000177472671085079093930000013502262692106158488_);}
	.st8{fill:url(#SVGID_00000144322729364135001910000010227058349509828747_);}
	.st9{fill:url(#SVGID_00000163763302424861900320000000216537792948553091_);}
	.st10{fill:url(#SVGID_00000030467066134029221910000015381534344097312937_);}
	.st11{fill:url(#SVGID_00000083791910698180935690000015286703479013985213_);}
	.st12{fill:url(#SVGID_00000091726713691048176670000014708487031426955163_);}
	.st13{fill:url(#SVGID_00000078731656868114017200000017846492589105695127_);}
	.st14{fill:#414042;}
	.st15{enable-background:new    ;}
	.st16{fill:#FFFFFF;}
	.st17{fill:url(#SVGID_00000119839341743726103780000013316987840066724740_);}
	.st18{fill:url(#SVGID_00000093163764741802265200000012772984455342651038_);}
	.st19{fill:url(#SVGID_00000149352892165730790540000001432770485365693072_);}
	.st20{fill:url(#SVGID_00000107569047037248019900000014841869675727792048_);}
	.st21{fill:url(#SVGID_00000031166294874121829760000005929948402926386577_);}
	.st22{fill:url(#SVGID_00000005989245738638017080000012432409414156403852_);}
	.st23{fill:url(#SVGID_00000183933544988076142600000000338957187917910424_);}
	.st24{fill:#F7B65E;}
	.st25{fill:#224585;}
	.st26{fill:url(#SVGID_00000036230084096511207360000006304649848204405680_);}
	.st27{fill:url(#SVGID_00000050634781096552823280000017757889733076427928_);}
	.st28{fill:url(#SVGID_00000044157591480502119420000013704811139601381800_);}
	.st29{fill:#F9CBCB;}
	.st30{fill:url(#SVGID_00000135650381958451109670000010063986172605152146_);}
	.st31{fill:url(#SVGID_00000140698248895245800620000006950681511639750530_);}
	.st32{fill:#3E3279;}
	.st33{fill:url(#SVGID_00000162336525408113640120000016393339377757420672_);}
	.st34{fill:#30334D;}
	.st35{fill:url(#SVGID_00000107578637489863305330000010251351133751944362_);}
	.st36{fill:#D1D3D4;}
	.st37{fill:url(#SVGID_00000145025540327028670250000013444793869221045662_);}
	.st38{fill:#F4C1C1;}
	.st39{fill:url(#SVGID_00000017508722812713023230000005432166118889751999_);}
	.st40{fill:#F9C2C2;}
	.st41{fill:#F2F2F2;}
	.st42{fill:#E6E6E6;}
	.st43{fill:url(#SVGID_00000091017428978431936920000012455894834543405745_);}
	.st44{fill:#FFD8D9;}
	.st45{fill:url(#SVGID_00000098914244996972750770000000295408779158797241_);}
	.st46{fill:#222438;}
	.st47{fill:#C4626E;}
	.st48{fill:url(#SVGID_00000139260973636145626850000002258923796237767590_);}
	.st49{fill:url(#SVGID_00000157989478388760882570000004523156077794271373_);}
	.st50{fill:url(#SVGID_00000054986097390861949520000017054743936877324928_);}
	.st51{fill:#B53344;}
	.st52{fill:#BCD0EB;}
	.st53{fill:#0D3F75;}
	.st54{fill:#195494;}
	.st55{fill:#8DB5E0;}
	.st56{fill:#4E88C7;}
	.st57{fill:#DAF2EE;}
	.st58{fill:#D94559;}
	.st59{fill:#C43348;}
	.st60{fill:url(#SVGID_00000030455907879432100550000016364810181631630240_);}
	.st61{fill:url(#SVGID_00000056426418026424127500000001220525698504860853_);}
	.st62{fill:#6D6E71;}
	.st63{fill:url(#SVGID_00000121253261440500885410000006743456772053184164_);}
	.st64{fill:url(#SVGID_00000070836932581768367280000006453594232055123597_);}
	.st65{fill:url(#SVGID_00000097480065872915090210000001559138458517062059_);}
	.st66{fill:url(#SVGID_00000117673711431334772220000014352895725402105257_);}
	.st67{fill:url(#SVGID_00000168119013190274487250000009232851610910867389_);}
	.st68{fill:url(#SVGID_00000075877242560029387690000007380389829863227560_);}
	.st69{fill:url(#SVGID_00000077303746469086714170000016430962836962718379_);}
	.st70{fill:url(#SVGID_00000074429715866776346610000017480230437777990541_);}
	.st71{fill:url(#SVGID_00000175289880149687286070000015951603758632358043_);}
	.st72{fill:url(#SVGID_00000035518832971148048340000004971201352286040199_);}
	.st73{fill:url(#SVGID_00000121271460456753339660000003437366138589661326_);}
	.st74{fill:url(#SVGID_00000100349329761880388540000015835768931436965288_);}
	.st75{fill:url(#SVGID_00000097473702476243627320000016538242755038723762_);}
	.st76{fill:url(#SVGID_00000078021172259677160650000005164449408974665900_);}
</style>
<g>
	<g>
		<polygon class="st0" points="459.23,458.56 288.66,557.69 440.3,645.24 610.87,546.11 		"/>
		<polygon class="st0" points="84.92,672.86 207.16,743.44 357.68,655.96 235.44,585.38 		"/>
	</g>
	<g>
		<path class="st1" d="M1060.63,656.19c0.07-6.19-3.44-12.39-10.54-17.4c-1.03-0.73-2.11-1.41-3.23-2.06
			c-10.57-6.1-24.89-8.67-38.62-7.73c-9.6,0.66-19.18-1.45-26.14-5.47l-95.07-55.34c-6.36-3.67-16.7-4.15-23.46-0.74
			c-3.89,1.96-5.81,4.69-5.8,7.41c0-0.02-0.01-0.03-0.01-0.05l-0.02,8.42l-5.53,3.18c-1.34,0.77-2.01,1.78-1.99,2.81
			c0-0.01-0.01-0.03-0.01-0.04l-0.04,12.8c0,1.07,0.74,2.16,2.26,3.04c2.79,1.46,7.14,1.24,9.79-0.28l6.57-3.79
			c1.35-0.78,3.54-0.77,4.89,0.01l6.42,3.73c-0.38,0.5-0.58,1.04-0.57,1.59c0-0.01-0.01-0.03-0.01-0.04l-0.04,12.8
			c0,1.07,0.74,2.17,2.26,3.04c2.78,1.46,7.14,1.24,9.79-0.29l6.58-3.79c1.35-0.78,3.54-0.78,4.89,0.01l54.75,31.86
			c4.84,2.82,8.16,6.41,9.38,10.23l-0.02,8.47c-0.02,6.93,4.54,13.88,13.78,19.26c19.53,11.27,51.91,10.54,69.63-2.25
			c6.72-4.85,10.07-10.81,10.09-16.77l0.04-12.8C1060.64,656.1,1060.63,656.15,1060.63,656.19z M1039.72,670.94
			c-7.69,4.44-20.16,4.41-27.92-0.07c-0.91-0.53-1.7-1.1-2.4-1.7c0.69-0.59,1.48-1.15,2.38-1.67c7.69-4.44,20.16-4.43,27.92,0.05
			c0.91,0.53,1.71,1.11,2.41,1.71C1041.42,669.85,1040.63,670.41,1039.72,670.94z"/>
		<ellipse class="st1" cx="800.18" cy="773.21" rx="64.96" ry="15.35"/>
		<ellipse class="st1" cx="769.69" cy="538.65" rx="46.13" ry="7.73"/>
		<ellipse class="st1" cx="516.91" cy="649.57" rx="47.97" ry="9.73"/>
		<ellipse class="st1" cx="1195.06" cy="676.3" rx="25.81" ry="7.17"/>
		<ellipse class="st1" cx="1123.52" cy="637.43" rx="36.41" ry="16.44"/>
		<ellipse class="st1" cx="933.08" cy="524.76" rx="36.41" ry="16.44"/>
		<g>
			<linearGradient id="SVGID_1_" gradientUnits="userSpaceOnUse" x1="901.5624" y1="491.5091" x2="976.9168" y2="491.5091">
				<stop  offset="0" style="stop-color:#B0DEFF"/>
				<stop  offset="1" style="stop-color:#82BAFF"/>
			</linearGradient>
			<path class="st2" d="M951.81,454.02c-7-4.04-13.34-4.42-17.92-1.76l-32.32,18.78c4.58-2.66,10.92-2.29,17.92,1.76
				c13.91,8.03,25.15,27.5,25.11,43.49c-0.02,7.95-2.83,13.53-7.35,16.16l32.32-18.78c4.52-2.63,7.33-8.22,7.35-16.16
				C976.96,481.52,965.72,462.05,951.81,454.02z"/>
			<g>
				
					<linearGradient id="SVGID_00000045601494941989054460000009826564517149460135_" gradientUnits="userSpaceOnUse" x1="915.0039" y1="477.3639" x2="926.345" y2="540.2125">
					<stop  offset="0" style="stop-color:#B0DEFF"/>
					<stop  offset="1" style="stop-color:#82BAFF"/>
				</linearGradient>
				<path style="fill:url(#SVGID_00000045601494941989054460000009826564517149460135_);" d="M919.49,472.8
					c13.91,8.03,25.15,27.5,25.11,43.49c-0.05,15.99-11.36,22.44-25.27,14.41c-13.91-8.03-25.15-27.5-25.11-43.49
					C894.26,471.22,905.57,464.77,919.49,472.8z"/>
			</g>
			<g>
				
					<linearGradient id="SVGID_00000053537203304101790500000010009248289028044424_" gradientUnits="userSpaceOnUse" x1="935.9128" y1="428.7951" x2="1010.023" y2="428.7951">
					<stop  offset="0" style="stop-color:#B0DEFF"/>
					<stop  offset="1" style="stop-color:#82BAFF"/>
				</linearGradient>
				<path style="fill:url(#SVGID_00000053537203304101790500000010009248289028044424_);" d="M977.7,415.37l32.32-18.78
					c-16.8,9.76-32.12,19.9-36.5,37.86c-0.9,3.69-2.77,6.3-5.29,7.77L935.91,461c2.52-1.47,4.39-4.08,5.29-7.77
					C945.58,435.27,960.9,425.14,977.7,415.37z"/>
			</g>
			<g>
				
					<linearGradient id="SVGID_00000150818912388974105610000016945190147737458574_" gradientUnits="userSpaceOnUse" x1="904.8006" y1="261.1105" x2="914.6807" y2="251.1594">
					<stop  offset="0" style="stop-color:#B0DEFF"/>
					<stop  offset="1" style="stop-color:#82BAFF"/>
				</linearGradient>
				<path style="fill:url(#SVGID_00000150818912388974105610000016945190147737458574_);" d="M906.35,253.5l32.32-18.78
					c-1.27,0.74-2.36,1.65-3.26,2.75c-2.67,3.28-5.56,5.74-8.57,7.49l-32.32,18.78c3.01-1.75,5.9-4.21,8.57-7.49
					C903.98,255.16,905.08,254.24,906.35,253.5z"/>
			</g>
			
				<linearGradient id="SVGID_00000169531383986613984050000006267286233731088522_" gradientUnits="userSpaceOnUse" x1="1044.6448" y1="333.1119" x2="814.5522" y2="176.4534">
				<stop  offset="0" style="stop-color:#90C4EB"/>
				<stop  offset="1" style="stop-color:#82BAFF"/>
			</linearGradient>
			<path style="fill:url(#SVGID_00000169531383986613984050000006267286233731088522_);" d="M1031.21,226.95
				c-17.83-27.49-39.07-46.99-60.36-59.28c-30.49-17.6-61.08-20.45-81.91-10.89c-1.58,0.73-3.07,1.5-4.48,2.31l-32.32,18.78
				c1.4-0.82,2.9-1.59,4.48-2.31c20.83-9.56,51.42-6.72,81.91,10.89c21.29,12.29,42.53,31.79,60.36,59.28
				c34.21,52.75,41.78,107.36,23.39,135.2c-8.37,12.68-21.54,21.09-34.92,28.86l32.32-18.78c13.37-7.77,26.55-16.19,34.92-28.86
				C1072.99,334.32,1065.42,279.7,1031.21,226.95z"/>
			<g>
				
					<linearGradient id="SVGID_00000124876218420093738010000009521843908222119325_" gradientUnits="userSpaceOnUse" x1="873.4869" y1="86.5851" x2="1029.1661" y2="571.2482">
					<stop  offset="0" style="stop-color:#B0DEFF"/>
					<stop  offset="1" style="stop-color:#82BAFF"/>
				</linearGradient>
				<path style="fill:url(#SVGID_00000124876218420093738010000009521843908222119325_);" d="M938.53,186.46
					c21.29,12.29,42.53,31.79,60.36,59.28c34.21,52.75,41.78,107.36,23.39,135.2c-21.04,31.86-72.44,36.81-81.08,72.29
					c-2.25,9.23-10.58,11.74-19.99,6.31c-12.03-7-21.34-24.07-20.46-37.27c5.55-82.56,94.47-66.85,53.26-144.42
					c-5.22-9.83-12.52-16.84-20.04-21.19c-12.41-7.16-25.44-7.08-30.88-0.42c-10.92,13.39-25.39,13.23-37.67,6.14
					c-5.82-3.36-11.15-8.28-15.38-14.04c-21.47-29.28-23.01-59.2,6.57-72.78C877.45,166.01,908.04,168.86,938.53,186.46z"/>
			</g>
			<g>
				
					<linearGradient id="SVGID_00000013877908379757515810000002053503166185446582_" gradientUnits="userSpaceOnUse" x1="1090.7297" y1="606.2838" x2="1166.0879" y2="606.2838">
					<stop  offset="0" style="stop-color:#B0DEFF"/>
					<stop  offset="1" style="stop-color:#82BAFF"/>
				</linearGradient>
				<path style="fill:url(#SVGID_00000013877908379757515810000002053503166185446582_);" d="M1140.98,568.79
					c-7-4.04-13.34-4.42-17.92-1.76l-32.32,18.78c4.58-2.66,10.92-2.29,17.92,1.76c13.91,8.03,25.16,27.51,25.11,43.49
					c-0.02,7.94-2.83,13.53-7.35,16.16l32.32-18.78c4.52-2.63,7.33-8.22,7.35-16.16C1166.13,596.3,1154.89,576.83,1140.98,568.79z"
					/>
				<g>
					
						<linearGradient id="SVGID_00000046319243595647986130000000320444726455936162_" gradientUnits="userSpaceOnUse" x1="1083.3817" y1="616.5264" x2="1133.7655" y2="616.5264">
						<stop  offset="0" style="stop-color:#B0DEFF"/>
						<stop  offset="1" style="stop-color:#82BAFF"/>
					</linearGradient>
					<path style="fill:url(#SVGID_00000046319243595647986130000000320444726455936162_);" d="M1108.65,587.58
						c13.91,8.03,25.16,27.51,25.11,43.49c-0.05,15.99-11.36,22.44-25.28,14.4c-13.91-8.03-25.15-27.51-25.11-43.49
						S1094.74,579.55,1108.65,587.58z"/>
				</g>
				
					<linearGradient id="SVGID_00000094606051051541464320000011171151726863685253_" gradientUnits="userSpaceOnUse" x1="1148.832" y1="225.785" x2="1096.9387" y2="604.7044">
					<stop  offset="0" style="stop-color:#8CC0E6"/>
					<stop  offset="1" style="stop-color:#82BAFF"/>
				</linearGradient>
				<path style="fill:url(#SVGID_00000094606051051541464320000011171151726863685253_);" d="M1141.82,271.98
					c-8.66-5-16.55-5.4-22.39-2l-32.32,18.78c5.85-3.4,13.73-3,22.39,2c17.95,10.37,32.46,36.58,32.4,58.55l-16.15,215.29
					c-0.51,5.96-2.54,10.25-5.78,12.13l32.32-18.78c3.24-1.88,5.27-6.17,5.78-12.13l16.15-215.29
					C1174.28,308.56,1159.77,282.35,1141.82,271.98z"/>
				<g>
					
						<linearGradient id="SVGID_00000147179983856964408190000013681979063785796772_" gradientUnits="userSpaceOnUse" x1="1048.7996" y1="359.9352" x2="1204.4785" y2="545.9667">
						<stop  offset="0" style="stop-color:#B0DEFF"/>
						<stop  offset="1" style="stop-color:#82BAFF"/>
					</linearGradient>
					<path style="fill:url(#SVGID_00000147179983856964408190000013681979063785796772_);" d="M1109.49,290.77
						c17.95,10.37,32.46,36.58,32.4,58.55l-16.15,215.29c-0.96,11.22-7.31,16.53-16.96,10.96c-9.64-5.57-15.93-18.16-16.84-30.45
						l-15.07-233.34C1076.94,289.81,1091.54,280.4,1109.49,290.77z"/>
				</g>
			</g>
		</g>
		<g>
			
				<linearGradient id="SVGID_00000047770735388309701100000018285628551531874734_" gradientUnits="userSpaceOnUse" x1="726.9973" y1="-32.5334" x2="276.6029" y2="932.8785">
				<stop  offset="0" style="stop-color:#B0DEFF"/>
				<stop  offset="1" style="stop-color:#82BAFF"/>
			</linearGradient>
			<path style="fill:url(#SVGID_00000047770735388309701100000018285628551531874734_);" d="M659.47,471.34L659.47,471.34
				l-0.29-102.14l-0.57-201.79l-0.2-73.02c-0.04-14.44-10.27-20.26-22.85-13l-30.82,17.8l-42.31,24.43l-33.44,19.3l-78.6,45.38
				c-12.57,7.26-22.73,24.85-22.69,39.3l0.22,78.47v0.01l0.1,34.48l0.12,43.65l0.44,154.5l0.25,87.98
				c0.02,7.88,3.08,13.2,8.39,15.41c3.94,1.44,8.97,0.75,14.44-2.41l62.17-35.9h0.01l98.95-57.13l0.01-0.01l24.03-13.88
				c5.47-3.16,10.49-8.28,14.41-14.25c5.08-7.74,8.32-16.9,8.29-25.05L659.47,471.34z M653.59,121.59
				c-0.07-0.72-0.18-1.41-0.32-2.04C653.42,120.19,653.53,120.87,653.59,121.59z"/>
			
				<linearGradient id="SVGID_00000065769684344973374250000005816373054675533202_" gradientUnits="userSpaceOnUse" x1="529.3801" y1="186.6922" x2="529.3801" y2="619.4343">
				<stop  offset="0" style="stop-color:#326AB3"/>
				<stop  offset="1" style="stop-color:#003780"/>
			</linearGradient>
			<path style="fill:url(#SVGID_00000065769684344973374250000005816373054675533202_);" d="M631.06,67.78
				c-4.14-2.41-9.88-2.07-16.21,1.59L429.68,176.28c-12.57,7.26-22.73,24.84-22.69,39.29l1.13,399.09
				c0.02,7.1,2.51,12.12,6.89,14.66l20.71,12.03c-4.38-2.54-6.87-7.57-6.89-14.66l-1.13-399.09c-0.04-14.45,10.12-32.03,22.69-39.29
				L635.55,81.4c6.33-3.66,12.07-4,16.21-1.59L631.06,67.78z"/>
			<g>
				<polygon class="st14" points="562.42,123.63 428.02,340.56 427.92,306.08 427.92,306.08 528.99,142.93 				"/>
				<g>
					<polygon class="st14" points="659.47,471.34 659.47,471.34 612.81,546.67 612.79,546.68 513.84,603.8 659.18,369.21 					"/>
					<path class="st14" d="M658.61,167.42l-230.02,371.3l-0.44-154.5L604.74,99.2l30.82-17.8c12.57-7.26,22.8-1.44,22.85,13
						L658.61,167.42z"/>
				</g>
			</g>
		</g>
		<g class="st15">
			<path class="st16" d="M464.53,392.12c0.52-0.24,1.03-0.51,1.54-0.81c8.42-4.86,15.59-16.39,16.35-26.68
				c0.8-10.89-5.9-16.28-14.96-12c-0.52,0.24-1.03,0.51-1.54,0.81c-8.42,4.86-15.59,16.39-16.35,26.68
				C448.77,391.01,455.46,396.39,464.53,392.12z M465.64,359.53c0.01,0,0.01-0.01,0.02-0.01c3.53-2.04,6.41-0.42,6.43,3.63
				c0.02,4.06-2.82,9.01-6.36,11.07c-0.01,0-0.01,0.01-0.02,0.01c-3.53,2.04-6.41,0.42-6.43-3.63
				C459.26,366.54,462.1,361.58,465.64,359.53z M458.08,384.38c-0.02-2.37,0.76-4.66,2.04-6.69c0.25-0.4,0.57-0.71,0.89-0.89
				c0.3-0.17,0.61-0.24,0.86-0.15c1.08,0.34,2.43,0.14,3.91-0.72c0.01-0.01,0.03-0.02,0.04-0.02c1.53-0.89,2.94-2.33,4.03-4
				c0.26-0.39,0.58-0.7,0.9-0.89c0.3-0.17,0.6-0.24,0.85-0.16c1.43,0.44,2.31,1.82,2.33,4.31l0,0.21c0,1.23-0.85,2.74-1.93,3.36
				l-11.96,6.95c-1.07,0.62-1.96,0.14-1.96-1.09V384.38z"/>
			<path class="st16" d="M466.94,412.33c-0.04,0.02-0.08,0.05-0.13,0.07c-9.51,5.56-17.15,18.91-17.05,29.81
				c0.09,10.85,7.82,15.18,17.27,9.72c0.04-0.02,0.08-0.05,0.13-0.07c9.51-5.56,17.15-18.91,17.06-29.82
				C484.13,411.2,476.41,406.86,466.94,412.33z M460,432.57l0.86-0.5l-0.03-5.13c-0.01-2.15,1.5-4.78,3.38-5.87l5-2.9
				c0.01,0,0.01-0.01,0.02-0.01c1.87-1.08,3.4-0.22,3.4,1.93l0.02,2.59c0,0.52-0.36,1.14-0.81,1.4c-0.22,0.13-0.42,0.14-0.58,0.06
				c-0.15-0.08-0.24-0.26-0.24-0.52l-0.02-2.35c0-1.26-0.89-1.75-1.99-1.12l-4.6,2.68c-1.08,0.63-1.97,2.16-1.97,3.42l0.03,4.89
				l11.05-6.42c0.01-0.01,0.02-0.01,0.03-0.02c1-0.58,1.89-0.53,2.39,0.03l-14.84,8.62l-0.24,0.14v0l-3.27,1.9
				C458.08,434.25,458.97,433.17,460,432.57z M473.62,437.4c-1.72,2.82-4.11,5.32-6.77,6.87c-0.01,0.01-0.03,0.01-0.04,0.02
				c-5.27,3.05-9.56,1.07-9.6-4.43l-0.02-2.71c0-0.33,0.05-0.67,0.14-1.03l18.88-10.97c0.1,0.23,0.15,0.52,0.15,0.86l0.02,2.71
				C476.4,431.46,475.34,434.58,473.62,437.4z"/>
			<path class="st16" d="M466.8,432.77c-0.01,0-0.01,0.01-0.02,0.01c-1.77,1.02-3.2,3.51-3.18,5.54c0.01,2.02,1.45,2.84,3.2,1.83
				c0.01,0,0.01-0.01,0.02-0.01c1.78-1.03,3.2-3.51,3.19-5.54C470,432.57,468.56,431.75,466.8,432.77z M467.35,438.06l-0.12,0.21
				l-0.82,0.48l-0.13-0.08l0.13-2.08c-0.23-0.03-0.38-0.23-0.37-0.56c0.01-0.45,0.32-1.01,0.71-1.25c0.02-0.01,0.03-0.02,0.05-0.03
				c0.42-0.24,0.76-0.05,0.76,0.43c0,0.31-0.14,0.68-0.37,0.97L467.35,438.06z"/>
			<path class="st16" d="M509.96,359.56c0.02-0.01,0.05-0.03,0.07-0.04l126.73-74.14c5.33-3.12,9.61-10.59,9.55-16.7l-0.03-3.87
				c-0.06-6.07-4.38-8.5-9.68-5.44c-0.02,0.01-0.05,0.03-0.07,0.04l-126.72,74.13c-5.33,3.12-9.61,10.59-9.56,16.7l0.04,3.87
				C500.34,360.18,504.67,362.61,509.96,359.56z M611.49,285.06c1.88-1.08,3.39-0.22,3.4,1.94c0.01,2.15-1.5,4.77-3.38,5.85
				c-1.88,1.08-3.39,0.22-3.4-1.94C608.1,288.75,609.61,286.14,611.49,285.06z M597.52,293.12c1.87-1.08,3.39-0.22,3.4,1.94
				c0.01,2.15-1.5,4.77-3.38,5.85c-1.87,1.08-3.39,0.22-3.4-1.94C594.14,296.82,595.66,294.2,597.52,293.12z M583.56,301.18
				c1.88-1.08,3.39-0.22,3.4,1.94c0.01,2.15-1.5,4.77-3.38,5.85c-1.87,1.08-3.39,0.22-3.4-1.94
				C580.18,304.87,581.69,302.26,583.56,301.18z M569.6,309.24c1.88-1.08,3.39-0.22,3.4,1.94c0.01,2.15-1.5,4.77-3.38,5.85
				c-1.88,1.08-3.39,0.22-3.4-1.94C566.22,312.94,567.72,310.32,569.6,309.24z M555.64,317.3c1.86-1.08,3.39-0.22,3.4,1.94
				c0.01,2.15-1.51,4.77-3.38,5.85c-1.88,1.08-3.39,0.22-3.4-1.94C552.26,320.99,553.77,318.38,555.64,317.3z M541.68,325.36
				c1.87-1.08,3.39-0.22,3.4,1.94c0.01,2.15-1.5,4.77-3.38,5.85c-1.87,1.08-3.39,0.22-3.4-1.94
				C538.29,329.06,539.8,326.44,541.68,325.36z M527.72,333.42c1.86-1.08,3.39-0.22,3.4,1.94c0.01,2.15-1.51,4.77-3.38,5.85
				c-1.87,1.08-3.4,0.22-3.41-1.93C524.33,337.12,525.85,334.5,527.72,333.42z M513.76,341.48c1.88-1.08,3.39-0.22,3.4,1.94
				c0.01,2.15-1.5,4.77-3.38,5.85c-1.88,1.08-3.39,0.22-3.4-1.94C510.37,345.18,511.88,342.57,513.76,341.48z"/>
			<path class="st16" d="M523.86,388.83c-0.01,0-0.01,0.01-0.02,0.01l-14.65,8.57c-2.28,1.34-4.13,4.55-4.1,7.17l0.15,16.78
				c0.02,2.62,1.89,3.65,4.16,2.34c0.01,0,0.01-0.01,0.02-0.01l14.65-8.58c2.28-1.33,4.13-4.54,4.1-7.15l-0.15-16.79
				C528,388.55,526.14,387.51,523.86,388.83z M518.89,404.98l3.17,1.17c0.25,0.09,0.07,0.62-0.2,0.77
				c-0.04,0.02-0.08,0.04-0.12,0.04l-3.82,0.47c-0.04,0-0.08,0.02-0.12,0.04c-0.15,0.09-0.29,0.3-0.31,0.49l-0.67,5.04
				c-0.03,0.23-0.18,0.42-0.33,0.5c-0.14,0.08-0.29,0.06-0.32-0.13l-0.6-4.33c-0.02-0.18-0.17-0.22-0.32-0.13
				c-0.04,0.02-0.07,0.05-0.11,0.09l-3.84,3.86c-0.04,0.04-0.08,0.07-0.12,0.09c-0.28,0.16-0.45-0.17-0.19-0.55l3.2-4.77
				c0.17-0.24,0.16-0.52,0.01-0.58l-3.16-1.19c-0.25-0.09-0.08-0.61,0.19-0.77c0.04-0.02,0.08-0.04,0.13-0.04l3.81-0.46
				c0.04,0,0.08-0.02,0.12-0.04c0.15-0.09,0.29-0.29,0.32-0.49l0.67-5.04c0.03-0.22,0.17-0.41,0.32-0.49
				c0.15-0.08,0.29-0.06,0.32,0.14l0.61,4.31c0.02,0.17,0.16,0.23,0.31,0.14c0.04-0.02,0.08-0.05,0.12-0.1l3.83-3.85
				c0.04-0.04,0.08-0.07,0.12-0.09c0.28-0.16,0.45,0.18,0.19,0.55l-3.2,4.77C518.74,404.64,518.74,404.92,518.89,404.98z"/>
			<path class="st16" d="M561.66,366.71c-0.01,0-0.01,0.01-0.02,0.01l-14.66,8.58c-2.29,1.34-4.12,4.55-4.1,7.17l0.14,16.79
				c0.03,2.61,1.89,3.64,4.17,2.33c0.01,0,0.01-0.01,0.02-0.01l14.66-8.58c2.28-1.34,4.12-4.55,4.1-7.17l-0.15-16.79
				C565.8,366.43,563.94,365.4,561.66,366.71z M556,383.42l3.16,1.19c0.25,0.09,0.08,0.61-0.19,0.77c-0.04,0.02-0.08,0.04-0.13,0.04
				l-3.81,0.46c-0.04,0-0.08,0.02-0.12,0.04c-0.15,0.09-0.28,0.29-0.31,0.49l-0.67,5.04c-0.03,0.22-0.17,0.41-0.31,0.49
				c-0.15,0.09-0.3,0.06-0.32-0.13l-0.61-4.32c-0.02-0.17-0.17-0.22-0.32-0.13c-0.04,0.02-0.07,0.05-0.11,0.08l-3.84,3.86
				c-0.04,0.04-0.08,0.08-0.12,0.1c-0.27,0.16-0.44-0.18-0.19-0.55l3.21-4.79c0.16-0.24,0.17-0.52,0.01-0.58l-3.17-1.18
				c-0.25-0.09-0.08-0.61,0.19-0.77c0.04-0.02,0.08-0.04,0.13-0.04l3.81-0.46c0.04-0.01,0.08-0.02,0.13-0.04
				c0.15-0.09,0.29-0.29,0.31-0.49l0.67-5.04c0.03-0.22,0.18-0.41,0.32-0.49c0.15-0.08,0.3-0.06,0.33,0.13l0.6,4.32
				c0.02,0.18,0.17,0.23,0.33,0.13c0.04-0.02,0.07-0.05,0.11-0.08l3.83-3.87c0.04-0.04,0.08-0.07,0.12-0.09
				c0.28-0.16,0.45,0.18,0.2,0.55l-3.21,4.78C555.84,383.08,555.84,383.35,556,383.42z"/>
			<path class="st16" d="M599.47,344.6c-0.01,0.01-0.02,0.01-0.04,0.02l-14.65,8.57c-2.29,1.33-4.13,4.54-4.1,7.15l0.15,16.79
				c0.02,2.61,1.88,3.65,4.16,2.33c0.01,0,0.01-0.01,0.02-0.01l14.66-8.58c2.29-1.34,4.13-4.55,4.1-7.17l-0.14-16.78
				C603.6,344.32,601.75,343.28,599.47,344.6z M594.36,360.9l3.17,1.18c0.24,0.1,0.07,0.62-0.2,0.78c-0.04,0.02-0.08,0.04-0.13,0.04
				l-3.81,0.46c-0.04,0-0.08,0.02-0.12,0.04c-0.15,0.09-0.29,0.29-0.32,0.49l-0.67,5.04c-0.03,0.22-0.17,0.41-0.32,0.49
				c-0.15,0.08-0.29,0.06-0.32-0.14l-0.61-4.31c-0.02-0.17-0.16-0.23-0.31-0.14c-0.04,0.02-0.08,0.05-0.12,0.1l-3.83,3.85
				c-0.04,0.04-0.08,0.07-0.12,0.09c-0.28,0.16-0.45-0.18-0.19-0.55l3.2-4.77c0.17-0.24,0.17-0.52,0.01-0.58l-3.17-1.18
				c-0.25-0.09-0.07-0.62,0.2-0.77c0.04-0.02,0.08-0.04,0.12-0.04l3.82-0.46c0.04,0,0.08-0.02,0.12-0.04
				c0.15-0.09,0.29-0.3,0.31-0.49l0.68-5.05c0.03-0.22,0.17-0.41,0.31-0.49c0.15-0.08,0.29-0.06,0.32,0.14l0.6,4.32
				c0.02,0.18,0.17,0.22,0.33,0.13c0.04-0.02,0.08-0.05,0.11-0.09l3.83-3.85c0.04-0.04,0.08-0.07,0.12-0.09
				c0.28-0.16,0.45,0.17,0.2,0.55l-3.2,4.77C594.2,360.56,594.2,360.84,594.36,360.9z"/>
			<path class="st16" d="M637.28,322.48c-0.01,0.01-0.02,0.01-0.04,0.02l-14.66,8.58c-2.29,1.33-4.12,4.53-4.1,7.15l0.15,16.79
				c0.03,2.6,1.88,3.65,4.15,2.34c0.01-0.01,0.02-0.01,0.04-0.02l14.66-8.58c2.29-1.34,4.12-4.55,4.1-7.17l-0.15-16.78
				C641.4,322.22,639.55,321.17,637.28,322.48z M632.24,338.88l3.16,1.19c0.25,0.09,0.08,0.61-0.19,0.77
				c-0.04,0.02-0.08,0.04-0.13,0.04l-3.81,0.46c-0.04,0-0.08,0.02-0.12,0.04c-0.16,0.09-0.3,0.3-0.32,0.49l-0.67,5.04
				c-0.03,0.23-0.18,0.41-0.32,0.5c-0.15,0.08-0.29,0.06-0.32-0.14l-0.6-4.32c-0.02-0.18-0.17-0.22-0.32-0.13
				c-0.04,0.02-0.07,0.05-0.11,0.09l-3.84,3.86c-0.04,0.04-0.08,0.07-0.12,0.09c-0.28,0.16-0.44-0.17-0.2-0.55l3.21-4.78
				c0.16-0.24,0.15-0.52,0-0.57l-3.16-1.19c-0.25-0.09-0.08-0.61,0.19-0.77c0.04-0.02,0.08-0.04,0.13-0.04l3.81-0.46
				c0.04,0,0.08-0.02,0.12-0.04c0.15-0.09,0.28-0.29,0.31-0.49l0.67-5.04c0.03-0.22,0.17-0.41,0.32-0.49
				c0.15-0.08,0.29-0.06,0.32,0.14l0.61,4.31c0.02,0.17,0.16,0.23,0.31,0.14c0.04-0.02,0.08-0.05,0.12-0.09l3.84-3.86
				c0.04-0.04,0.08-0.07,0.12-0.09c0.28-0.16,0.45,0.18,0.2,0.55l-3.21,4.78C632.08,338.54,632.07,338.83,632.24,338.88z"/>
			<path class="st16" d="M549.2,288.52c0.95-0.44,1.89-0.94,2.83-1.48c14.91-8.61,27.63-29.02,29.02-47.25
				c1.49-19.4-10.36-29.01-26.46-21.48c-0.95,0.44-1.89,0.94-2.83,1.48c-14.92,8.61-27.63,29-29.03,47.26
				C521.25,286.43,533.09,296.06,549.2,288.52z M551.56,231.01c6.28-3.63,11.38-0.72,11.41,6.5c0.02,7.22-5.05,16-11.33,19.63
				c-6.28,3.63-11.38,0.72-11.41-6.5C540.21,243.42,545.28,234.63,551.56,231.01z M541.69,263.26c0.45-0.7,1.01-1.25,1.58-1.58
				c0.54-0.31,1.08-0.42,1.53-0.27c1.93,0.63,4.36,0.26,7-1.27c2.72-1.57,5.22-4.13,7.18-7.09c0.46-0.7,1.02-1.24,1.58-1.57
				c0.53-0.31,1.06-0.42,1.51-0.28c2.53,0.81,4.1,3.27,4.11,7.69l0,0.38c0.01,2.19-1.54,4.86-3.45,5.96l-21.24,12.26
				c-1.91,1.1-3.46,0.22-3.47-1.97l0-0.38C538.01,270.91,539.4,266.85,541.69,263.26z"/>
			<g>
				<path class="st16" d="M584.83,431.2c-1.11,0.64-2.04,1.66-2.77,3.04c-0.73,1.38-1.1,3.04-1.09,4.97
					c0.01,1.94,0.38,3.17,1.12,3.71c0.73,0.54,1.66,0.49,2.78-0.15c1.1-0.64,2.02-1.65,2.75-3.04c0.74-1.39,1.1-3.08,1.09-5.06
					c-0.01-1.87-0.38-3.07-1.12-3.61C586.84,430.53,585.92,430.57,584.83,431.2z"/>
				<path class="st16" d="M570.4,439.53c-1,0.58-1.84,1.52-2.53,2.85c-0.69,1.32-1.03,2.89-1.02,4.71c0.01,1.99,0.35,3.24,1.04,3.75
					c0.69,0.51,1.55,0.47,2.57-0.13c1.03-0.59,1.88-1.54,2.57-2.85c0.69-1.3,1.03-2.92,1.02-4.85c-0.01-1.85-0.36-3.04-1.08-3.57
					C572.27,438.93,571.41,438.95,570.4,439.53z"/>
				<path class="st16" d="M548.2,452.35c-1.11,0.64-2.04,1.66-2.77,3.04c-0.73,1.38-1.1,3.04-1.09,4.97
					c0.01,1.94,0.38,3.17,1.12,3.71c0.73,0.54,1.66,0.49,2.78-0.15c1.1-0.64,2.02-1.65,2.75-3.04c0.74-1.39,1.1-3.08,1.09-5.06
					c-0.01-1.87-0.38-3.07-1.11-3.61C550.21,451.67,549.3,451.72,548.2,452.35z"/>
				<path class="st16" d="M608.52,399.3l-79.63,45.98c-5.82,3.36-10.52,11.52-10.5,18.19l0.05,18.24c0.02,6.69,4.75,9.39,10.57,6.02
					l79.63-45.98c5.82-3.36,10.52-11.5,10.5-18.19l-0.05-18.24C619.08,398.65,614.35,395.94,608.52,399.3z M530.21,464.13l8.51-4.91
					l0.01,2.46l-8.51,4.91l0.03,9.47l-2.4,1.39l-0.06-20.84l12.24-7.07l0.01,2.46l-9.83,5.68L530.21,464.13z M553.62,459.38
					c-0.5,1.4-1.24,2.7-2.21,3.87c-0.96,1.18-2.03,2.09-3.17,2.75c-1.84,1.06-3.33,1.25-4.47,0.55c-1.14-0.69-1.71-2.32-1.72-4.88
					c-0.01-2.79,0.66-5.25,2.01-7.38c1.12-1.77,2.5-3.13,4.13-4.07c1.81-1.04,3.28-1.21,4.43-0.51c1.16,0.69,1.74,2.25,1.74,4.64
					C554.38,456.29,554.13,457.98,553.62,459.38z M563.31,444.7c-0.55-0.05-1.1,0.08-1.63,0.39c-0.49,0.28-0.93,0.7-1.32,1.27
					c-0.38,0.56-0.66,1.18-0.83,1.88c-0.24,1.05-0.37,2.11-0.36,3.2l0.02,7.9l-2.23,1.29l-0.04-15.09l2.01-1.16l0.01,2.29
					c0.5-1.37,0.97-2.35,1.41-2.94c0.43-0.6,0.91-1.04,1.42-1.34c0.75-0.43,1.51-0.59,2.29-0.49L563.31,444.7z M575.54,452.86
					c-0.41,1.21-1.07,2.37-1.97,3.46c-0.91,1.1-2.02,2.02-3.34,2.78c-1.56,0.9-2.83,1.23-3.8,0.98c-0.97-0.25-1.43-1.21-1.41-2.85
					l2.17-0.88c0.09,0.71,0.35,1.13,0.76,1.24c0.56,0.15,1.31-0.05,2.27-0.6c1.02-0.59,1.82-1.29,2.38-2.08
					c0.57-0.8,0.94-1.68,1.14-2.65c0.12-0.6,0.16-1.71,0.15-3.38c-0.96,1.87-2.17,3.23-3.63,4.07c-1.81,1.04-3.21,1.1-4.2,0.17
					c-1-0.93-1.49-2.44-1.5-4.53c0-1.45,0.22-2.9,0.66-4.38c0.46-1.48,1.11-2.8,1.96-3.96c0.87-1.16,1.87-2.08,3.03-2.75
					c1.55-0.9,2.83-0.92,3.84-0.05l-0.01-1.82l2.05-1.18l0.04,13.05C576.16,449.85,575.96,451.64,575.54,452.86z M590.24,438.24
					c-0.5,1.4-1.24,2.7-2.21,3.87c-0.97,1.18-2.03,2.09-3.17,2.75c-1.84,1.06-3.33,1.25-4.47,0.55c-1.14-0.69-1.71-2.32-1.72-4.88
					c-0.01-2.79,0.66-5.25,2.01-7.38c1.13-1.78,2.51-3.13,4.13-4.07c1.81-1.04,3.28-1.21,4.43-0.51c1.16,0.69,1.74,2.25,1.74,4.64
					C591,435.15,590.75,436.83,590.24,438.24z M597.12,437.65c-0.8,0.46-1.43,0.68-1.88,0.64c-0.45-0.04-0.76-0.24-0.94-0.63
					c-0.19-0.36-0.28-1.32-0.28-2.86l-0.02-8.69l-1.64,0.95l-0.01-1.99l1.64-0.95l-0.01-3.75l2.2-2.8l0.01,5.27l2.25-1.3l0.01,1.99
					l-2.25,1.3l0.03,8.83c0,0.73,0.05,1.17,0.13,1.33c0.08,0.17,0.21,0.26,0.38,0.29c0.18,0.01,0.43-0.07,0.76-0.26
					c0.24-0.14,0.57-0.36,0.98-0.66l0.33,2.08C598.18,436.96,597.62,437.36,597.12,437.65z M604.7,433.07l-0.01-2.92l2.53-1.46
					l0.01,2.92L604.7,433.07z M611.21,416.29c-0.37,0.99-1.09,2.34-2.17,4.06c-0.72,1.16-1.2,1.97-1.41,2.45
					c-0.22,0.49-0.39,0.99-0.49,1.5c-0.11,0.52-0.16,1.3-0.18,2.33l-2.14,1.23c-0.01-0.34-0.02-0.58-0.02-0.76
					c0-1,0.12-1.94,0.37-2.81c0.17-0.65,0.47-1.38,0.86-2.17c0.3-0.58,0.84-1.48,1.61-2.71c0.76-1.21,1.27-2.14,1.49-2.73
					c0.23-0.61,0.35-1.18,0.35-1.73c0-1-0.35-1.68-1.02-2.04c-0.68-0.36-1.51-0.25-2.49,0.32c-0.95,0.55-1.74,1.34-2.37,2.39
					c-0.63,1.05-1.05,2.36-1.24,3.92l-2.29,1.01c0.2-2.06,0.81-3.91,1.82-5.53c1.01-1.62,2.36-2.91,4.04-3.88
					c1.77-1.02,3.19-1.28,4.24-0.79c1.06,0.5,1.59,1.54,1.59,3.12C611.77,414.37,611.58,415.32,611.21,416.29z"/>
			</g>
			
				<linearGradient id="SVGID_00000058573302235834007650000004087849448366598332_" gradientUnits="userSpaceOnUse" x1="457.1923" y1="353.449" x2="635.5744" y2="353.449">
				<stop  offset="0" style="stop-color:#326AB3"/>
				<stop  offset="1" style="stop-color:#003780"/>
			</linearGradient>
			<path style="fill:url(#SVGID_00000058573302235834007650000004087849448366598332_);" d="M459.28,370.6
				c-0.02-4.06,2.82-9.01,6.36-11.07c0.01,0,0.01-0.01,0.02-0.01c3.53-2.04,6.41-0.42,6.43,3.63c0.02,4.06-2.82,9.01-6.36,11.07
				c-0.01,0-0.01,0.01-0.02,0.01C462.18,376.26,459.3,374.65,459.28,370.6z M460.04,385.69l11.96-6.95
				c1.07-0.62,1.93-2.13,1.93-3.36l0-0.21c-0.02-2.49-0.9-3.86-2.33-4.31c-0.25-0.08-0.55-0.02-0.85,0.16
				c-0.32,0.18-0.64,0.49-0.9,0.89c-1.09,1.68-2.49,3.12-4.03,4c-0.01,0.01-0.03,0.02-0.04,0.02c-1.48,0.85-2.83,1.05-3.91,0.72
				c-0.25-0.08-0.56-0.02-0.86,0.15c-0.32,0.18-0.63,0.49-0.89,0.89c-1.29,2.02-2.06,4.32-2.04,6.69v0.22
				C458.08,385.83,458.97,386.31,460.04,385.69z M460.87,433.48l0.24-0.14l14.84-8.62c-0.5-0.56-1.38-0.61-2.39-0.03
				c-0.01,0.01-0.02,0.01-0.03,0.02l-11.05,6.42l-0.03-4.89c0-1.26,0.88-2.79,1.97-3.42l4.6-2.68c1.09-0.63,1.99-0.13,1.99,1.12
				l0.02,2.35c0,0.26,0.09,0.43,0.24,0.52c0.16,0.08,0.35,0.07,0.58-0.06c0.45-0.26,0.81-0.88,0.81-1.4l-0.02-2.59
				c-0.01-2.15-1.53-3-3.4-1.93c-0.01,0-0.01,0.01-0.02,0.01l-5,2.9c-1.88,1.09-3.38,3.72-3.38,5.87l0.03,5.13l-0.86,0.5
				c-1.03,0.6-1.91,1.68-2.4,2.81L460.87,433.48L460.87,433.48z M476.36,426.01l0.02,2.71c0.02,2.74-1.04,5.86-2.76,8.68
				c-1.72,2.82-4.11,5.32-6.77,6.87c-0.01,0.01-0.03,0.01-0.04,0.02c-5.27,3.05-9.56,1.07-9.6-4.43l-0.02-2.71
				c0-0.33,0.05-0.67,0.14-1.03l18.88-10.97C476.31,425.39,476.36,425.67,476.36,426.01z M470.02,434.59
				c-0.02-2.02-1.46-2.84-3.22-1.82c-0.01,0-0.01,0.01-0.02,0.01c-1.77,1.02-3.2,3.51-3.18,5.54c0.01,2.02,1.45,2.84,3.2,1.83
				c0.01,0,0.01-0.01,0.02-0.01C468.6,439.1,470.02,436.62,470.02,434.59z M466.8,434.75c-0.02,0.01-0.03,0.02-0.05,0.03
				c-0.39,0.25-0.7,0.8-0.71,1.25c-0.01,0.33,0.15,0.53,0.37,0.56l-0.13,2.08l0.13,0.08l0.82-0.48l0.12-0.21l-0.15-1.91
				c0.22-0.29,0.37-0.65,0.37-0.97C467.56,434.71,467.22,434.51,466.8,434.75z M522.11,399.62c0.26-0.38,0.09-0.72-0.19-0.55
				c-0.04,0.02-0.08,0.05-0.12,0.09l-3.83,3.85c-0.04,0.04-0.08,0.07-0.12,0.1c-0.15,0.09-0.29,0.04-0.31-0.14l-0.61-4.31
				c-0.02-0.2-0.17-0.22-0.32-0.14c-0.14,0.08-0.29,0.27-0.32,0.49l-0.67,5.04c-0.03,0.2-0.17,0.41-0.32,0.49
				c-0.04,0.02-0.08,0.04-0.12,0.04l-3.81,0.46c-0.04,0-0.09,0.02-0.13,0.04c-0.27,0.16-0.44,0.68-0.19,0.77l3.16,1.19
				c0.16,0.06,0.16,0.34-0.01,0.58l-3.2,4.77c-0.26,0.39-0.08,0.71,0.19,0.55c0.04-0.02,0.08-0.05,0.12-0.09l3.84-3.86
				c0.04-0.04,0.07-0.06,0.11-0.09c0.15-0.09,0.3-0.05,0.32,0.13l0.6,4.33c0.03,0.19,0.17,0.21,0.32,0.13
				c0.15-0.08,0.29-0.27,0.33-0.5l0.67-5.04c0.02-0.19,0.16-0.4,0.31-0.49c0.04-0.02,0.08-0.04,0.12-0.04l3.82-0.47
				c0.04,0,0.08-0.02,0.12-0.04c0.27-0.16,0.44-0.68,0.2-0.77l-3.17-1.17c-0.16-0.07-0.16-0.35,0.01-0.59L522.11,399.62z
				 M559.21,378.05c0.26-0.38,0.08-0.71-0.2-0.55c-0.04,0.02-0.08,0.05-0.12,0.09l-3.83,3.87c-0.04,0.04-0.07,0.06-0.11,0.08
				c-0.16,0.09-0.31,0.04-0.33-0.13l-0.6-4.32c-0.03-0.19-0.18-0.21-0.33-0.13c-0.14,0.08-0.29,0.27-0.32,0.49l-0.67,5.04
				c-0.02,0.2-0.16,0.4-0.31,0.49c-0.04,0.02-0.08,0.04-0.13,0.04l-3.81,0.46c-0.04,0.01-0.09,0.02-0.13,0.04
				c-0.27,0.16-0.44,0.68-0.19,0.77l3.17,1.18c0.16,0.06,0.15,0.34-0.01,0.58l-3.21,4.79c-0.25,0.37-0.08,0.71,0.19,0.55
				c0.04-0.02,0.08-0.06,0.12-0.1l3.84-3.86c0.04-0.04,0.07-0.06,0.11-0.08c0.16-0.09,0.3-0.04,0.32,0.13l0.61,4.32
				c0.03,0.2,0.17,0.22,0.32,0.13c0.14-0.08,0.29-0.27,0.31-0.49l0.67-5.04c0.03-0.2,0.16-0.4,0.31-0.49
				c0.04-0.02,0.08-0.04,0.12-0.04l3.81-0.46c0.04-0.01,0.09-0.02,0.13-0.04c0.27-0.16,0.44-0.68,0.19-0.77l-3.16-1.19
				c-0.16-0.07-0.16-0.34,0.01-0.58L559.21,378.05z M597.57,355.55c0.26-0.39,0.08-0.71-0.2-0.55c-0.04,0.02-0.08,0.05-0.12,0.09
				l-3.83,3.85c-0.04,0.04-0.08,0.07-0.11,0.09c-0.16,0.09-0.3,0.05-0.33-0.13l-0.6-4.32c-0.03-0.2-0.18-0.22-0.32-0.14
				c-0.14,0.08-0.28,0.27-0.31,0.49l-0.68,5.05c-0.02,0.19-0.16,0.4-0.31,0.49c-0.04,0.02-0.08,0.04-0.12,0.04l-3.82,0.46
				c-0.04,0-0.08,0.02-0.12,0.04c-0.27,0.16-0.45,0.68-0.2,0.77l3.17,1.18c0.16,0.06,0.16,0.34-0.01,0.58l-3.2,4.77
				c-0.26,0.38-0.09,0.72,0.19,0.55c0.04-0.02,0.08-0.05,0.12-0.09l3.83-3.85c0.04-0.04,0.08-0.07,0.12-0.1
				c0.15-0.09,0.29-0.04,0.31,0.14l0.61,4.31c0.02,0.2,0.17,0.22,0.32,0.14c0.14-0.08,0.29-0.27,0.32-0.49l0.67-5.04
				c0.03-0.2,0.17-0.41,0.32-0.49c0.04-0.02,0.08-0.04,0.12-0.04l3.81-0.46c0.04-0.01,0.09-0.02,0.13-0.04
				c0.27-0.16,0.44-0.68,0.2-0.78l-3.17-1.18c-0.16-0.06-0.16-0.34,0.01-0.58L597.57,355.55z M632.24,338.88
				c-0.17-0.05-0.16-0.34,0-0.57l3.21-4.78c0.25-0.37,0.08-0.71-0.2-0.55c-0.04,0.02-0.08,0.05-0.12,0.09l-3.84,3.86
				c-0.04,0.04-0.08,0.07-0.12,0.09c-0.15,0.09-0.29,0.04-0.31-0.14l-0.61-4.31c-0.03-0.2-0.17-0.22-0.32-0.14
				c-0.14,0.08-0.29,0.27-0.32,0.49l-0.67,5.04c-0.03,0.2-0.16,0.4-0.31,0.49c-0.04,0.02-0.08,0.04-0.12,0.04l-3.81,0.46
				c-0.04,0.01-0.09,0.02-0.13,0.04c-0.27,0.16-0.44,0.68-0.19,0.77l3.16,1.19c0.16,0.06,0.16,0.34,0,0.57l-3.21,4.78
				c-0.25,0.38-0.08,0.71,0.2,0.55c0.04-0.02,0.08-0.05,0.12-0.09l3.84-3.86c0.04-0.04,0.07-0.06,0.11-0.09
				c0.15-0.09,0.3-0.05,0.32,0.13l0.6,4.32c0.03,0.2,0.18,0.22,0.32,0.14c0.14-0.08,0.29-0.27,0.32-0.5l0.67-5.04
				c0.02-0.19,0.16-0.4,0.32-0.49c0.04-0.02,0.08-0.04,0.12-0.04l3.81-0.46c0.04,0,0.09-0.02,0.13-0.04
				c0.27-0.16,0.44-0.68,0.19-0.77L632.24,338.88z M513.78,349.27c1.87-1.08,3.38-3.7,3.38-5.85c-0.01-2.15-1.52-3.02-3.4-1.94
				c-1.88,1.08-3.38,3.7-3.38,5.85C510.38,349.49,511.9,350.35,513.78,349.27z M527.74,341.21c1.86-1.08,3.38-3.7,3.38-5.85
				c-0.01-2.15-1.53-3.01-3.4-1.94c-1.88,1.08-3.39,3.7-3.39,5.86C524.34,341.43,525.87,342.29,527.74,341.21z M541.7,333.15
				c1.88-1.08,3.38-3.7,3.38-5.85c-0.01-2.15-1.53-3.02-3.4-1.94c-1.88,1.08-3.38,3.7-3.38,5.85
				C538.31,333.37,539.82,334.23,541.7,333.15z M555.64,317.3c-1.87,1.08-3.38,3.7-3.38,5.85c0.01,2.15,1.52,3.02,3.4,1.94
				c1.86-1.08,3.38-3.7,3.38-5.85C559.04,317.08,557.51,316.22,555.64,317.3z M569.6,309.24c-1.87,1.08-3.38,3.7-3.38,5.85
				c0.01,2.15,1.52,3.02,3.4,1.94c1.87-1.08,3.38-3.7,3.38-5.85C572.99,309.02,571.47,308.16,569.6,309.24z M583.59,308.97
				c1.88-1.08,3.38-3.7,3.38-5.85c-0.01-2.15-1.52-3.02-3.4-1.94c-1.88,1.08-3.38,3.7-3.38,5.85
				C580.19,309.18,581.71,310.05,583.59,308.97z M597.52,293.12c-1.86,1.08-3.38,3.7-3.38,5.85c0.01,2.15,1.53,3.01,3.4,1.94
				c1.87-1.08,3.38-3.7,3.38-5.85C600.91,292.9,599.4,292.04,597.52,293.12z M611.49,285.06c-1.87,1.08-3.38,3.7-3.38,5.85
				c0.01,2.15,1.52,3.02,3.4,1.94c1.88-1.08,3.38-3.7,3.38-5.85C614.88,284.84,613.36,283.97,611.49,285.06z M540.02,449.54
				l-12.24,7.07l0.06,20.84l2.4-1.39l-0.03-9.47l8.51-4.91l-0.01-2.46l-8.51,4.91l-0.02-6.45l9.83-5.68L540.02,449.54z
				 M554.37,454.35c0.01,1.94-0.24,3.63-0.75,5.03c-0.5,1.4-1.24,2.7-2.21,3.87c-0.96,1.18-2.03,2.09-3.17,2.75
				c-1.84,1.06-3.33,1.25-4.47,0.55c-1.14-0.69-1.71-2.32-1.72-4.88c-0.01-2.79,0.66-5.25,2.01-7.38c1.12-1.77,2.5-3.13,4.13-4.07
				c1.81-1.04,3.28-1.21,4.43-0.51C553.78,450.41,554.36,451.96,554.37,454.35z M552.07,455.81c-0.01-1.87-0.38-3.07-1.11-3.61
				c-0.75-0.54-1.66-0.49-2.76,0.14c-1.11,0.64-2.04,1.66-2.77,3.04c-0.73,1.38-1.1,3.04-1.09,4.97c0.01,1.94,0.38,3.17,1.12,3.71
				c0.73,0.54,1.66,0.49,2.78-0.15c1.1-0.64,2.02-1.65,2.75-3.04C551.72,459.48,552.08,457.79,552.07,455.81z M561.78,442.39
				c-0.52,0.3-1,0.74-1.42,1.34c-0.44,0.59-0.91,1.57-1.41,2.94l-0.01-2.29l-2.01,1.16l0.04,15.09l2.23-1.29l-0.02-7.9
				c0-1.09,0.12-2.15,0.36-3.2c0.16-0.7,0.45-1.33,0.83-1.88c0.39-0.56,0.83-0.98,1.32-1.27c0.54-0.31,1.08-0.45,1.63-0.39
				l0.76-2.81C563.3,441.79,562.53,441.95,561.78,442.39z M576.12,434.46l0.04,13.05c0.01,2.35-0.19,4.14-0.61,5.35
				c-0.41,1.21-1.07,2.37-1.97,3.46c-0.91,1.1-2.02,2.02-3.34,2.78c-1.56,0.9-2.83,1.23-3.8,0.98c-0.97-0.25-1.43-1.21-1.41-2.85
				l2.17-0.88c0.09,0.71,0.35,1.13,0.76,1.24c0.56,0.15,1.31-0.05,2.27-0.6c1.02-0.59,1.82-1.29,2.38-2.08
				c0.57-0.8,0.94-1.68,1.14-2.65c0.12-0.6,0.16-1.71,0.15-3.38c-0.96,1.87-2.17,3.23-3.63,4.07c-1.81,1.04-3.21,1.1-4.2,0.17
				c-1-0.93-1.49-2.44-1.5-4.53c0-1.45,0.22-2.9,0.66-4.38c0.46-1.48,1.11-2.8,1.96-3.96c0.87-1.16,1.87-2.08,3.03-2.75
				c1.55-0.9,2.83-0.92,3.84-0.05l-0.01-1.82L576.12,434.46z M574.06,443.02c-0.01-1.85-0.36-3.04-1.08-3.57
				c-0.72-0.52-1.58-0.49-2.58,0.09c-1,0.58-1.84,1.52-2.53,2.85c-0.69,1.32-1.03,2.89-1.02,4.71c0.01,1.99,0.35,3.24,1.04,3.75
				c0.69,0.51,1.55,0.47,2.57-0.13c1.03-0.59,1.88-1.54,2.57-2.85C573.73,446.57,574.06,444.95,574.06,443.02z M590.99,433.21
				c0.01,1.94-0.24,3.63-0.75,5.03s-1.24,2.7-2.21,3.87c-0.97,1.18-2.03,2.09-3.17,2.75c-1.84,1.06-3.33,1.25-4.47,0.55
				c-1.14-0.69-1.71-2.32-1.72-4.88c-0.01-2.79,0.66-5.25,2.01-7.38c1.13-1.78,2.51-3.13,4.13-4.07c1.81-1.04,3.28-1.21,4.43-0.51
				C590.4,429.26,590.99,430.82,590.99,433.21z M588.7,434.67c-0.01-1.87-0.38-3.07-1.12-3.61c-0.75-0.54-1.66-0.49-2.76,0.14
				c-1.11,0.64-2.04,1.66-2.77,3.04c-0.73,1.38-1.1,3.04-1.09,4.97c0.01,1.94,0.38,3.17,1.12,3.71c0.73,0.54,1.66,0.49,2.78-0.15
				c1.1-0.64,2.02-1.65,2.75-3.04C588.35,438.33,588.7,436.64,588.7,434.67z M597.5,435.03c-0.33,0.19-0.59,0.27-0.76,0.26
				c-0.18-0.02-0.3-0.12-0.38-0.29c-0.08-0.16-0.13-0.6-0.13-1.33l-0.03-8.83l2.25-1.3l-0.01-1.99l-2.25,1.3l-0.01-5.27l-2.2,2.8
				l0.01,3.75l-1.64,0.95l0.01,1.99l1.64-0.95l0.02,8.69c0,1.54,0.1,2.5,0.28,2.86c0.18,0.38,0.49,0.58,0.94,0.63
				c0.45,0.03,1.07-0.18,1.88-0.64c0.5-0.29,1.06-0.69,1.69-1.2l-0.33-2.08C598.07,434.67,597.75,434.89,597.5,435.03z
				 M604.69,430.16l0.01,2.92l2.53-1.46l-0.01-2.92L604.69,430.16z M610.17,410.34c-1.06-0.49-2.48-0.23-4.24,0.79
				c-1.68,0.97-3.03,2.26-4.04,3.88c-1.01,1.62-1.62,3.47-1.82,5.53l2.29-1.01c0.19-1.56,0.61-2.87,1.24-3.92
				c0.63-1.05,1.42-1.84,2.37-2.39c0.99-0.57,1.82-0.68,2.49-0.32c0.68,0.36,1.02,1.04,1.02,2.04c0,0.55-0.12,1.12-0.35,1.73
				c-0.22,0.59-0.73,1.51-1.49,2.73c-0.77,1.23-1.3,2.14-1.61,2.71c-0.4,0.79-0.69,1.52-0.86,2.17c-0.25,0.88-0.38,1.81-0.37,2.81
				c0,0.18,0.01,0.42,0.02,0.76l2.14-1.23c0.02-1.03,0.07-1.81,0.18-2.33c0.11-0.51,0.27-1.01,0.49-1.5
				c0.21-0.47,0.69-1.29,1.41-2.45c1.08-1.73,1.8-3.07,2.17-4.06c0.37-0.98,0.55-1.93,0.55-2.84
				C611.76,411.89,611.23,410.85,610.17,410.34z M551.64,257.13c6.28-3.63,11.35-12.41,11.33-19.63c-0.02-7.22-5.13-10.13-11.41-6.5
				c-6.28,3.63-11.35,12.41-11.33,19.63C540.25,257.85,545.36,260.76,551.64,257.13z M541.49,277.5l21.24-12.26
				c1.9-1.1,3.45-3.77,3.45-5.96l0-0.38c-0.01-4.42-1.58-6.88-4.11-7.69c-0.45-0.14-0.98-0.03-1.51,0.28
				c-0.56,0.32-1.12,0.87-1.58,1.57c-1.96,2.96-4.46,5.52-7.18,7.09c-2.64,1.52-5.07,1.89-7,1.27c-0.45-0.15-0.99-0.04-1.53,0.27
				c-0.56,0.32-1.12,0.87-1.58,1.58c-2.29,3.59-3.68,7.65-3.66,11.9l0,0.38C538.03,277.73,539.59,278.6,541.49,277.5z"/>
		</g>
		<g>
			<g>
				<g class="st15">
					
						<linearGradient id="SVGID_00000128481581239933065950000017475363943767375006_" gradientUnits="userSpaceOnUse" x1="395.3332" y1="205.6788" x2="479.7871" y2="205.6788">
						<stop  offset="0" style="stop-color:#E85467"/>
						<stop  offset="1" style="stop-color:#B01C30"/>
					</linearGradient>
					<path style="fill:url(#SVGID_00000128481581239933065950000017475363943767375006_);" d="M457.43,156.1
						c-6.61-3.84-15.76-3.3-25.85,2.53c-20.08,11.59-36.3,39.69-36.24,62.77c0.03,11.45,4.08,19.51,10.6,23.31l22.36,13
						c-6.52-3.79-10.57-11.85-10.6-23.31c-0.07-23.08,16.16-51.17,36.24-62.77c10.1-5.83,19.25-6.37,25.85-2.53L457.43,156.1z"/>
					
						<linearGradient id="SVGID_00000060004241710240490130000004829738093227762840_" gradientUnits="userSpaceOnUse" x1="417.695" y1="213.4032" x2="490.3928" y2="213.4032">
						<stop  offset="0" style="stop-color:#E85467"/>
						<stop  offset="1" style="stop-color:#B01C30"/>
					</linearGradient>
					<path style="fill:url(#SVGID_00000060004241710240490130000004829738093227762840_);" d="M453.93,171.63
						c-20.08,11.6-36.3,39.69-36.24,62.77c0.07,23.06,16.39,32.37,36.47,20.77c20.07-11.59,36.29-39.68,36.22-62.74
						C490.33,169.35,474,160.04,453.93,171.63z"/>
				</g>
			</g>
			<path class="st16" d="M459.79,214.71c4.83-7.85,9.66-15.71,14.48-23.55c-2-1.23-4.01-2.47-6.02-3.71
				c-4.25,8.25-8.5,16.51-12.75,24.75c-4.28-3.23-8.58-6.45-12.86-9.69c-1.96,3.58-3.92,7.14-5.86,10.71
				c4.83,2.17,9.66,4.33,14.49,6.5c-4.74,7.8-9.46,15.59-14.19,23.37c2.01,1.24,4.02,2.48,6.02,3.72
				c4.17-8.21,8.34-16.41,12.5-24.61c4.36,3.18,8.74,6.35,13.1,9.55c1.96-3.58,3.92-7.15,5.87-10.72
				C469.65,218.93,464.71,216.82,459.79,214.71z"/>
		</g>
		<g>
			<g class="st15">
				
					<linearGradient id="SVGID_00000075130647437177022820000010737336063038036865_" gradientUnits="userSpaceOnUse" x1="200.7631" y1="655.259" x2="364.0822" y2="655.259">
					<stop  offset="0" style="stop-color:#FFC54A"/>
					<stop  offset="1" style="stop-color:#FFA561"/>
				</linearGradient>
				<path style="fill:url(#SVGID_00000075130647437177022820000010737336063038036865_);" d="M334.46,549.57
					c-2.94-1.71-7.01-1.47-11.51,1.13l-11.84,6.84l-11.33,6.54l-59.72,34.48l-11.33,6.54l-11.84,6.84
					c-8.94,5.16-16.15,17.65-16.12,27.91l0.27,94.61c0.01,5.1,1.81,8.69,4.72,10.37l29.62,17.21c-2.9-1.69-4.7-5.28-4.72-10.37
					l-0.27-94.61c-0.03-10.26,7.18-22.75,16.12-27.91l11.84-6.84l11.33-6.54l59.72-34.48l11.33-6.54l11.84-6.84
					c4.5-2.6,8.57-2.84,11.51-1.13L334.46,549.57z"/>
				
					<linearGradient id="SVGID_00000048492002301913603530000017934690361210613121_" gradientUnits="userSpaceOnUse" x1="358.0077" y1="562.9857" x2="190.6258" y2="854.2599">
					<stop  offset="0" style="stop-color:#FFC54A"/>
					<stop  offset="1" style="stop-color:#FFA561"/>
				</linearGradient>
				<path style="fill:url(#SVGID_00000048492002301913603530000017934690361210613121_);" d="M368.8,577.15
					c-0.03-10.26-7.29-14.4-16.22-9.24l-11.84,6.84l-11.33,6.54l-59.72,34.48l-11.33,6.54l-11.84,6.84
					c-8.93,5.16-16.15,17.65-16.12,27.91l0.27,94.61c0.03,10.26,7.29,14.4,16.22,9.25l106.07-61.24
					c8.94-5.16,16.15-17.66,16.12-27.92L368.8,577.15z"/>
				
					<linearGradient id="SVGID_00000103973215696783521210000013189383343298449050_" gradientUnits="userSpaceOnUse" x1="314.3133" y1="529.4726" x2="229.5269" y2="626.3193">
					<stop  offset="0" style="stop-color:#326AB3"/>
					<stop  offset="1" style="stop-color:#003780"/>
				</linearGradient>
				<path style="fill:url(#SVGID_00000103973215696783521210000013189383343298449050_);" d="M325.29,544.31l-15.32-8.91l6.88-3.97
					c6.59-3.8,12.56-4.16,16.87-1.65l-29.62-17.21c-4.31-2.51-10.29-2.15-16.87,1.65l-34.95,20.18
					c-13.1,7.57-23.69,25.91-23.64,40.96l0.08,29.74l29.62,17.21l-0.08-29.74c-0.04-15.06,10.54-33.4,23.64-40.96l17.81-10.28
					l0.06,22.75l29.62,17.21l-0.08-28.13C329.31,548.81,327.77,545.75,325.29,544.31z"/>
				
					<linearGradient id="SVGID_00000023999431023728311970000000319215121253912762_" gradientUnits="userSpaceOnUse" x1="258.2594" y1="575.2465" x2="340.7293" y2="575.2465">
					<stop  offset="0" style="stop-color:#326AB3"/>
					<stop  offset="1" style="stop-color:#003780"/>
				</linearGradient>
				<path style="fill:url(#SVGID_00000023999431023728311970000000319215121253912762_);" d="M340.65,545
					c-0.04-15.06-10.7-21.13-23.8-13.57l-34.95,20.18c-13.1,7.57-23.69,25.91-23.64,40.96l0.08,29.74l11.33-6.54l-0.08-28.13
					c-0.02-8.76,6.14-19.43,13.76-23.83l32.12-18.54c7.62-4.4,13.82-0.87,13.85,7.89l0.08,28.13l11.33-6.54L340.65,545z"/>
			</g>
			<g class="st15">
				<g>
					<path class="st16" d="M307.71,621.41c-17.38,10.03-31.42,34.36-31.36,54.32c0.06,19.97,14.19,28.02,31.57,17.99
						c17.38-10.03,31.41-34.35,31.35-54.32C339.21,619.43,325.09,611.37,307.71,621.41z M307.9,687.47
						c-14.38,8.3-26.07,1.64-26.12-14.89c-0.05-16.52,11.57-36.64,25.95-44.94c14.37-8.3,26.07-1.64,26.12,14.88
						C333.9,659.05,322.27,679.17,307.9,687.47z"/>
					<path class="st24" d="M307.73,627.65c-14.38,8.3-26,28.43-25.95,44.94c0.05,16.53,11.74,23.19,26.12,14.89
						c14.37-8.3,26-28.43,25.95-44.95C333.8,626,322.1,619.35,307.73,627.65z M315.29,673.76c0.17,1.45-0.89,3.43-2.24,4.2
						l-10.36,5.98c-1.36,0.78-2.41,0.02-2.25-1.61l2.12-22.05c-2.67-0.43-4.45-2.87-4.46-6.78c-0.02-6.15,4.3-13.62,9.65-16.71
						c5.35-3.09,9.69-0.61,9.71,5.53c0.01,3.92-1.75,8.39-4.41,11.9L315.29,673.76z"/>
					<path class="st25" d="M313.05,654.23c2.66-3.51,4.42-7.99,4.41-11.9c-0.02-6.15-4.36-8.62-9.71-5.53
						c-5.35,3.09-9.66,10.56-9.65,16.71c0.01,3.92,1.79,6.35,4.46,6.78l-2.12,22.05c-0.16,1.63,0.89,2.4,2.25,1.61l10.36-5.98
						c1.35-0.78,2.4-2.76,2.24-4.2L313.05,654.23z"/>
				</g>
			</g>
		</g>
		<g>
			<g class="st15">
				<g>
					
						<linearGradient id="SVGID_00000013885625896197275580000012454355304580392108_" gradientUnits="userSpaceOnUse" x1="1032.188" y1="655.2362" x2="790.2566" y2="504.6688">
						<stop  offset="0" style="stop-color:#FFC54A"/>
						<stop  offset="1" style="stop-color:#FFA561"/>
					</linearGradient>
					<path style="fill:url(#SVGID_00000013885625896197275580000012454355304580392108_);" d="M1014.62,653.55
						c7.69-4.44,20.16-4.43,27.92,0.05c3.86,2.24,5.78,5.18,5.77,8.11l0.04-12.8c0.01-2.93-1.91-5.87-5.77-8.11
						c-7.76-4.48-20.23-4.49-27.92-0.05c-3.85,2.22-5.78,5.14-5.79,8.06l-0.04,12.8C1008.84,658.68,1010.77,655.77,1014.62,653.55z"
						/>
					
						<linearGradient id="SVGID_00000005233475638345747240000010616900500423893124_" gradientUnits="userSpaceOnUse" x1="1028.5405" y1="661.0966" x2="786.6084" y2="510.5287">
						<stop  offset="0" style="stop-color:#FFC54A"/>
						<stop  offset="1" style="stop-color:#FFA561"/>
					</linearGradient>
					<path style="fill:url(#SVGID_00000005233475638345747240000010616900500423893124_);" d="M1053.38,658.86
						c-17.72,12.8-50.1,13.53-69.63,2.25c-7.44-4.33-11.84-9.68-13.26-15.21l0.03-9.27c0.01-5.02-3.7-9.88-9.9-13.48l-54.75-31.86
						c-1.35-0.78-3.54-0.79-4.89-0.01l-6.58,3.79c-0.65,0.38-1.41,0.67-2.21,0.88l0.03-11.77c0-0.51-0.33-1.03-1.01-1.42
						l-14.66-8.53c-1.35-0.78-3.54-0.79-4.89-0.01l-6.57,3.79c-0.53,0.3-1.13,0.54-1.77,0.74l0.03-11.88c0-0.37-0.17-0.74-0.5-1.08
						c-1.51-1.52-2.27-3.22-2.26-4.92l-0.04,12.8c0,1.7,0.75,3.4,2.26,4.92c0.08,0.08,0.15,0.16,0.21,0.25
						c-2.51,0.7-5.58,0.58-7.73-0.55c-1.52-0.87-2.26-1.97-2.26-3.04l-0.04,12.8c0,1.07,0.74,2.16,2.26,3.04
						c2.79,1.46,7.14,1.24,9.79-0.28l6.57-3.79c1.35-0.78,3.54-0.77,4.89,0.01l14.66,8.53c0.25,0.14,0.43,0.31,0.59,0.48
						c-2.39,0.53-5.17,0.36-7.15-0.68c-1.52-0.87-2.26-1.97-2.26-3.04l-0.04,12.8c0,1.07,0.74,2.16,2.26,3.04
						c2.78,1.46,7.14,1.24,9.78-0.29l6.58-3.79c1.35-0.78,3.54-0.78,4.89,0.01l54.75,31.86c4.84,2.82,8.16,6.41,9.38,10.23
						l-0.02,8.47c-0.02,6.93,4.54,13.88,13.78,19.26c19.53,11.27,51.91,10.54,69.63-2.25c6.72-4.85,10.07-10.8,10.09-16.77
						l0.04-12.8C1063.45,648.06,1060.1,654.01,1053.38,658.86z"/>
				</g>
				
					<linearGradient id="SVGID_00000112594000613198273610000015907240222813741213_" gradientUnits="userSpaceOnUse" x1="880.728" y1="561.1509" x2="1142.759" y2="716.8344">
					<stop  offset="0" style="stop-color:#FFC54A"/>
					<stop  offset="1" style="stop-color:#FFA561"/>
				</linearGradient>
				<path style="fill:url(#SVGID_00000112594000613198273610000015907240222813741213_);" d="M1052.92,624.85
					c-1.03-0.73-2.11-1.41-3.23-2.06c-10.57-6.1-24.89-8.67-38.62-7.73c-9.6,0.66-19.18-1.45-26.14-5.47l-95.07-55.34
					c-6.36-3.67-16.7-4.15-23.46-0.74c-6.28,3.17-7.47,8.34-3.54,12.28c0.8,0.8,0.65,1.81-0.49,2.47l-7.33,4.22
					c-2.71,1.56-2.71,4.11,0.26,5.81c2.79,1.46,7.14,1.24,9.79-0.28l6.57-3.79c1.35-0.78,3.54-0.77,4.89,0.01l14.66,8.53
					c1.34,0.79,1.35,2.05-0.01,2.83l-6.85,3.95c-2.71,1.56-2.71,4.11,0.26,5.81c2.78,1.46,7.14,1.24,9.78-0.29l6.58-3.79
					c1.35-0.78,3.54-0.78,4.89,0.01l54.75,31.86c7.03,4.09,10.87,9.79,9.69,15.51c-1.65,7.95,2.78,16.24,13.45,22.46
					c19.53,11.27,51.91,10.54,69.63-2.25C1067.01,649.01,1066.8,634.63,1052.92,624.85z M1042.56,656.99
					c-7.69,4.44-20.16,4.41-27.92-0.07c-7.7-4.48-7.69-11.72,0.02-16.16c7.69-4.44,20.16-4.43,27.92,0.05
					C1050.28,645.29,1050.27,652.54,1042.56,656.99z"/>
			</g>
		</g>
		<g>
			<g>
				<g>
					<path class="st29" d="M524.72,513.01c-0.01,0.09-0.01,0.18-0.03,0.28c-0.21,1.72-1.29,3.7-2.79,5.69
						c-2.84,3.78-7.21,7.63-10.01,9.93c-1.61,1.31-2.69,2.12-2.69,2.12c2.77,6.27-2.85,12.04-4.52,8.72
						c-0.35-0.72,0.92-3.17,0.92-4.14c0-0.61-1.07-1.28-1.8-2.35c-0.83-1.22-0.13-2.74,0.38-3.46c0.99-1.35,1.95-2.87,2.94-4.43
						c2.64-4.15,5.46-8.66,9.4-11.71c-6.65-3.54-11.12-5.13-15.71-9.32l2.18-17.29C503.01,487.05,525.28,505.08,524.72,513.01z"/>
				</g>
			</g>
			<g>
				<g>
					
						<linearGradient id="SVGID_00000159434511094117860940000010689563620786142594_" gradientUnits="userSpaceOnUse" x1="512.8741" y1="527.5938" x2="512.7371" y2="499.7727">
						<stop  offset="0" style="stop-color:#E85467"/>
						<stop  offset="1" style="stop-color:#B01C30"/>
					</linearGradient>
					<path style="fill:url(#SVGID_00000159434511094117860940000010689563620786142594_);" d="M524.72,513.01
						c-0.01,0.09-0.01,0.18-0.03,0.28c-0.93,1.92-1.88,3.85-2.79,5.69c-2.84,3.78-7.21,7.63-10.01,9.93l-4.76-3.55
						c2.64-4.15,5.46-8.66,9.4-11.71c-6.65-3.54-11.12-5.13-15.71-9.32l2.18-17.29C503.01,487.05,525.28,505.08,524.72,513.01z"/>
				</g>
			</g>
			<g>
				<g>
					<path class="st29" d="M485.37,531.92c0,0,0.88,55.07,10.94,67.37c4.85,5.93,21,37.68,21,37.68c1.81,0.25,3.49-0.11,4.79-2.28
						c-3.29-17.98-7.68-33.37-14.76-42.31c-3.69-25.35,7.14-36.42-4.81-60.46L485.37,531.92z"/>
				</g>
			</g>
			<g>
				<g>
					<path class="st29" d="M481.06,528.12c-4.24,26.43-2.71,41.49,0.62,69.06c0.03,0.28,0.08,0.56,0.15,0.84l9.82,42.24l4.95,0.68
						c1.25-13.96,0.53-31.51-1.94-43.31c1.83-34.41,19.15-43.99,3.03-69.5L481.06,528.12z"/>
				</g>
			</g>
			<g>
				<g>
					
						<linearGradient id="SVGID_00000008868850092617261590000002666277385297914500_" gradientUnits="userSpaceOnUse" x1="474.482" y1="569.902" x2="520.293" y2="569.902">
						<stop  offset="0" style="stop-color:#326AB3"/>
						<stop  offset="1" style="stop-color:#003780"/>
					</linearGradient>
					<path style="fill:url(#SVGID_00000008868850092617261590000002666277385297914500_);" d="M514.41,606.99
						c-5.53-0.69-10.57-3.88-14.09,0.14c-2.57,2.93-5.55,5.32-9.23,6.53c-1.56,0.52-3.24,0.83-5.09,0.88
						c-3.37,0.09-6.38-2.48-7.26-6.29c-1.69-7.29-4.27-20.66-4.26-34.43c0.02-24.59,6.98-47.42,6.98-47.42s0.11-0.03,0.3-0.08
						c2.27-0.5,16.64-3.43,21.92,3.11c5.73,7.11,9.92,16.52,8.47,34.83c-1.04,13.08,4.2,25.24,7.65,33.95
						C521.52,602.6,518.51,607.52,514.41,606.99z"/>
				</g>
			</g>
			<g>
				<g>
					<path class="st29" d="M485.22,485.44l-6.02,12.75c0,0-0.21-0.33-0.55-0.9c-2.3-3.72-11.01-17.98-13.21-23.66
						c-1.78-4.58-2.1-16.34-1.78-24.32c0.12-2.96,0.33-5.41,0.59-6.78c0,0-3.73-3.41-0.27-5.3c3.33-1.82,0.99-7.15,2.24-7.32
						c1.25-0.17,1.93,7.03,1.93,7.03s1.77-1.88,2.37-1.16c0.9,1.06-2.16,6.76-2.16,6.76c0.43,1.31,0.84,2.66,1.23,4.02
						c2.01,7.07,3.38,14.76,4.08,23.03C477.38,473.44,481.27,479.09,485.22,485.44z"/>
				</g>
			</g>
			<g>
				<g>
					<path class="st32" d="M501.84,527.61l-21.48-0.02c1.12-4.88,3.87-7.49-0.16-18.57c-1.68-4.61-1.97-8.52-1.54-11.74
						c1.07-8,6.57-11.85,6.57-11.85l5.15-2.89l6.3,0l6.33,4.49c0,0-0.33,17.8-1.32,23.88C500.82,516.3,499.79,522.43,501.84,527.61z
						"/>
				</g>
			</g>
			<g>
				<g>
					
						<linearGradient id="SVGID_00000108999575383573641990000004211000616719197105_" gradientUnits="userSpaceOnUse" x1="463.5469" y1="489.8263" x2="505.384" y2="489.8263">
						<stop  offset="0" style="stop-color:#E85467"/>
						<stop  offset="1" style="stop-color:#B01C30"/>
					</linearGradient>
					<path style="fill:url(#SVGID_00000108999575383573641990000004211000616719197105_);" d="M505.38,530.94
						c-9.88,5.06-13.26-0.39-20.77-0.45c-0.59,0-1.2,0.03-1.84,0.1c-2.28,0.25-4.12-1.79-3.74-4.05c1.19-6.93,0.79-14.59-0.95-24.92
						c-0.39-2.3-1.03-4.55-1.9-6.7c-0.53-1.3-1.14-2.57-1.83-3.8c-3.24-5.79-7.41-13.63-8.91-17.49c-1.78-4.58-2.1-16.34-1.78-24.32
						l5.92-2.75c2.01,7.07,3.5,14.07,4.72,22.75c3.01,3.14,12.5,15.25,14.51,14.12l1.56-0.88l6.3,0l6.33,4.49
						c0,0-0.33,17.8-1.32,23.88C500.82,516.3,503.34,525.76,505.38,530.94z"/>
				</g>
			</g>
			<g>
				<g>
					<path class="st29" d="M483.6,461.91c0,0-2.71,7.49-0.63,12.18c2.08,4.69,10.41,1.47,10.41,1.47L483.6,461.91z"/>
				</g>
			</g>
			<g>
				<g>
					<polygon class="st29" points="489.04,475.84 487.78,482.88 493.57,482.89 493.37,475.56 					"/>
				</g>
			</g>
			<g>
				<g>
					<path class="st34" d="M496.81,638.64l0.8,4.1c0.28,1.12,0.36,2.28,0.24,3.43l-0.46,4.42l-1.62-0.01l0.14-2.8
						c-0.07-0.72-0.98-1-1.44-0.44l-1.52,1.84c-0.44,0.82-1.24,1.4-2.16,1.53c-2.82,0.4-8.32,0.57-8.57-1.27
						c-0.26-1.9,5.08-2.05,6.61-4.17c1.48-2.04,2.48-6.46,2.48-6.46C492.98,639.47,494.96,639.26,496.81,638.64z"/>
				</g>
			</g>
			<g>
				<g>
					<path class="st34" d="M522.11,634.7l2.59,3.15c0.73,0.89,1.3,1.91,1.67,3l1.47,4.2l-1.47,0.68l-1.06-2.6
						c-0.37-0.62-1.31-0.49-1.49,0.22l-0.59,2.31c-0.05,0.93-0.52,1.79-1.3,2.31c-2.38,1.56-7.28,4.06-8.3,2.5
						c-1.04-1.61,3.72-4.02,4.21-6.58c0.47-2.48-0.51-6.9-0.51-6.9C519.12,636.88,520.7,636.05,522.11,634.7z"/>
				</g>
			</g>
			<path class="st34" d="M493.67,456.34c-2.05-1.94-10.36-2.46-10.63,4.13c-0.24,6.15,7.19,11.85,4.28,17.98
				c-2.91,6.13-2.39,8.21,3.43,10.08c5.82,1.87,16.11,3.12,15.28-6.55c-0.83-9.66-2.97-19.33-6.55-23.33
				C496.95,455.82,493.67,456.34,493.67,456.34z"/>
		</g>
		<g>
			<g>
				<g>
					<path class="st29" d="M756.02,486.23c0.14,13.62-1.8,25.94-5.92,38.15c-0.77,2.29-1.62,4.59-2.55,6.88l1.07,7.38h-20.48
						l13.22-8.21c0.3-1.96,0.55-3.99,0.77-6.05c1.39-13.95,0.8-29.37,0.4-36.32c-0.14-2.52,0.24-5.02,1.1-7.38
						c3.56-9.66,13.13-36.48,16.22-53.06h22.48C786.18,454.16,775.8,465.6,756.02,486.23z"/>
				</g>
				<g>
					
						<linearGradient id="SVGID_00000040575689284547193440000001626878074930219708_" gradientUnits="userSpaceOnUse" x1="740.9022" y1="477.5787" x2="783.1199" y2="477.5787">
						<stop  offset="0" style="stop-color:#326AB3"/>
						<stop  offset="1" style="stop-color:#003780"/>
					</linearGradient>
					<path style="fill:url(#SVGID_00000040575689284547193440000001626878074930219708_);" d="M772.37,467.91
						c-4.3,5.69-9.81,11.5-16.35,18.32c0.14,13.62-0.76,29.09-4.88,41.3l-10.24-0.55c1.39-13.95-0.96-37.26,1.13-46.09
						c2.39-10.05,14.72-36.69,17.8-53.27h22.48C784.9,445.39,781.11,456.4,772.37,467.91z"/>
				</g>
				<g>
					<path class="st36" d="M772.38,467.87l-0.01,0.04c-4.3,5.69-9.81,11.5-16.35,18.32c0.14,13.62-0.76,29.09-4.88,41.3l-3.04-0.16
						c4.27-11.5,5.46-26.57,4.98-41.93c22.33-18.94,7.51-25.77,14.45-39.49L772.38,467.87z"/>
				</g>
				<g>
					<path class="st34" d="M741.36,530.43c-4.93,2.63-13.53,1.9-14.03,8.21h21.29c0.24-2.97,0.1-5.76-0.74-8.21
						C745.84,530.81,743.66,530.81,741.36,530.43z"/>
				</g>
				<g>
					<path class="st29" d="M805.46,528.41c0.96,1.97,1.86,3.79,2.79,5.7c-5.66,1.63-11.33,3.26-16.99,4.89
						c3.35-3.12,6.73-6.17,10.06-9.33c-1.42-2.74-3.16-6.6-4.69-9.07c-6.09-9.89-12.89-18.59-19.79-27.77
						c-1.64-2.18-2.73-4.31-3.31-7.22c-3.73-18.44-4.03-37.6-7.92-56.07c5.04-1.01,10.08-1.98,15.12-2.97
						c14.96,22.47,12.41,34.83,7.38,59.7c7.39,9.66,11.67,20.71,14.92,32.58C803.7,521.3,804.85,525.68,805.46,528.41z"/>
				</g>
				<g>
					
						<linearGradient id="SVGID_00000176748063519347690540000002507397364751399323_" gradientUnits="userSpaceOnUse" x1="763.545" y1="476.7101" x2="806.2775" y2="476.7101">
						<stop  offset="0" style="stop-color:#326AB3"/>
						<stop  offset="1" style="stop-color:#003780"/>
					</linearGradient>
					<path style="fill:url(#SVGID_00000176748063519347690540000002507397364751399323_);" d="M773.55,485.64
						c0.6,2.91,1.48,4.77,3.34,7.28c7.82,10.56,14.09,22.68,21.05,33.93c2.8-0.77,5.56-1.57,8.34-2.35
						c-3.73-13.29-9.69-27.28-18.16-38.21c5.02-24.89,7.58-37.23-7.37-59.7c0-0.01-0.01-0.01-0.01-0.02
						c-5.73,1.12-11.46,2.25-17.19,3.37c0.1,0.45,0.19,0.91,0.29,1.36c0,0.01,0,0.03,0,0.04
						C767.56,449.35,769.83,467.65,773.55,485.64z"/>
				</g>
				<g>
					<path class="st36" d="M767.12,431.93c1.95,2.65,0.4,8.14,2.54,11.02c5.53,7.46,12.39,1.54,17.05,4.45
						c7.93,4.97,0.2,29.18-1.27,35.72c-0.04,0.2-1.08,4.55-1.87,4.49c3.59,0.32,2.23-2.26,7.08,5.64
						c2.19,3.56,13.6,24.4,14.25,31.12c0.94,0.89,0.85-0.03,1.39,0.14c-3.74-13.31-9.7-27.28-18.17-38.22
						c5.02-24.89,7.58-37.23-7.37-59.7c-5.57,1.54-12.62,0.9-18.06,2.42C762.04,429.19,765.85,430.21,767.12,431.93z"/>
				</g>
				<g>
					<path class="st34" d="M800.36,527.92c-4.68,3.68-11.31,4.97-11.51,11.78c6.57-1.89,13.14-3.79,19.72-5.68
						c-0.67-2.78-1.91-5.1-3.52-7.44C803.64,527.95,802.26,528.28,800.36,527.92z"/>
				</g>
			</g>
			<g>
				<g>
					<g>
						<g>
							<path class="st38" d="M789.85,405.58c19.51-5.18,26.25-11.34,25.96-14.48c-0.71-7.85-16.3-17.12-27.89-22.36
								c0,0-5.88-9.96-9.93-8.87c-2.37,0.64,4.4,6.95,4.07,9.65c-7.94-0.62,2.74,3.34,2.74,3.34
								c10.17,10.26,13.21,13.16,17.63,16.19c-2.3,0.81-7.54,1.29-14.17,2.55L789.85,405.58z"/>
						</g>
					</g>
				</g>
			</g>
			<g>
				<g>
					<g>
						<g>
							<path class="st38" d="M754.08,404.14c-19.51-5.18-27.57-9.91-27.29-13.04c0.71-7.85,16.3-17.12,27.89-22.36
								c0,0,5.88-9.96,9.93-8.87c2.37,0.64-4.4,6.95-4.07,9.65c7.94-0.62-2.74,3.34-2.74,3.34c-10.17,10.26-13.49,11.99-17.63,16.19
								c2.3,0.81,7.54,1.29,14.17,2.55L754.08,404.14z"/>
						</g>
					</g>
				</g>
			</g>
			
				<linearGradient id="SVGID_00000106110158692189745830000007111337640200053123_" gradientUnits="userSpaceOnUse" x1="725.9788" y1="406.7757" x2="816.6193" y2="406.7757">
				<stop  offset="0" style="stop-color:#FFC54A"/>
				<stop  offset="1" style="stop-color:#FFA561"/>
			</linearGradient>
			<path style="fill:url(#SVGID_00000106110158692189745830000007111337640200053123_);" d="M789.8,408.41
				c0.04-0.01,0.08-0.02,0.13-0.04c11.54-3.28,27.32-9.88,26.68-18.18c-0.68-8.7-27.22-21.23-27.22-21.23l-3.6,5.47l15.15,14.48
				c-5.72-0.02-9.8-0.3-15.47-1.5c-2.29-0.53-5.36-1-9.38-1.16l-9.17,0.46c-4.35,0.09-7.5,0.22-9.88,0.7l0-0.01
				c-4.38,0.69-10.18,1.42-15.91,1.43l15.68-14.39l-3.6-5.47c0,0-26.54,12.53-27.22,21.23c-0.65,8.31,13.16,14.84,25.71,16.66
				c1.12,0.16,2.46,0.18,3.82,0.11c0.17,0.87,0.31,1.74,0.41,2.57c0.54,7.8,1.44,22.37-2.03,32.27c0,0,6.43,3.39,21.58,2.71
				c9.55-0.43,15.23-2.54,15.23-2.54c-1.86-10.33-1.91-24.42-1.36-29.38C789.52,411.24,789.66,409.83,789.8,408.41z"/>
			<g>
				<path class="st34" d="M778.68,373.28c0,0,4.79-4.88,0.8-10.51c-1.25-1.77-5.36-5.44-11.22-3.14c-2.05,0.8-4.93,3.17-8.32,2.11
					c0,0-0.79,5.08,2.5,8.05c0,0-0.5,1.76,0.66,3.5C764.26,375.02,778.68,373.28,778.68,373.28z"/>
			</g>
			<g>
				<path class="st40" d="M766.92,386.7c0.97,5.31,8.66,5.12,9.31,0l-0.66-3.54l-1.17-6.25l-0.02-0.13h-5.73l-0.02,0.13l-1.14,6.58
					L766.92,386.7z"/>
			</g>
			<g>
				<path class="st41" d="M767.48,383.48c1.46,1.48,7.04,1.37,8.09-0.33l-1.17-6.25h-5.78L767.48,383.48z"/>
			</g>
			<g>
				<path class="st29" d="M778.51,370.11c0,0,2.12-2.07,2.32-0.06c0.24,2.38-2.59,4.15-2.59,4.15s-0.69,7.35-6.89,7.35
					c-6.15,0-7.18-7.38-7.18-7.38s-3.23-0.88-2.55-3.68c0.33-1.33,2.01,0.03,2.01,0.03v-3.49c0,0,2.54-0.03,4.85-0.88
					c2.46-0.91,2.72-2.02,5.54-2.06C776.35,364.06,778.6,366.76,778.51,370.11z"/>
			</g>
			<path class="st42" d="M786.07,400.16c0,0,0.36,4.23,0.91,9.13c0.57,5.14,1.34,11.01,2.1,13.45c-0.07-4.36,0.05-8.06,0.28-10.15
				c0.15-1.35,0.3-2.76,0.44-4.19c0.04-0.01,0.08-0.03,0.12-0.04c3.66-1.04,7.74-2.41,11.59-4.07c-3.46,0.82-9.29,2.02-11.3,1.32
				c-0.05-0.02-0.1-0.04-0.15-0.06C787.24,404.44,786.07,400.16,786.07,400.16z"/>
			<path class="st42" d="M739.17,403.5c3.92,1.58,8.3,2.73,12.54,3.34c1.12,0.16,2.46,0.18,3.82,0.11c0.17,0.87,0.31,1.74,0.41,2.57
				c0.19,2.71,0.42,6.23,0.49,10.1c0.49-2.45,1.18-7.19,0.75-12.78c-0.05-0.72-0.13-1.45-0.22-2.2c0,0-0.66,0.18-1.86,0.35
				C752.28,405.38,746.48,405.71,739.17,403.5z"/>
		</g>
		<g>
			<g>
				
					<linearGradient id="SVGID_00000164502334951282362380000016861679383940061880_" gradientUnits="userSpaceOnUse" x1="762.6787" y1="757.8649" x2="837.6903" y2="757.8649">
					<stop  offset="0" style="stop-color:#326AB3"/>
					<stop  offset="1" style="stop-color:#003780"/>
				</linearGradient>
				<path style="fill:url(#SVGID_00000164502334951282362380000016861679383940061880_);" d="M783.07,746.89
					c0,0-20.74,3.07-20.38,2.86c0.35-0.21,37.96,19.08,37.96,19.08l37.05-16.6l-18.37-5.34H783.07z"/>
			</g>
			<g>
				<g>
					<path class="st44" d="M791.03,775.19c-0.1,0-0.21,0-0.31,0c-0.06,0-0.13,0-0.19,0c-5.28,0.06-8.72-0.07-8.72-0.07
						s-0.25,0.06-0.71,0.15c-4.51,0.94-28.83,5.57-26.76-3.6c1.82-8.05,16.41-7.05,22.26-6.31c0.02,0,0.04,0,0.06,0.01
						c1.46,0.19,2.36,0.35,2.36,0.35s2.9-1.25,7.49-3.03c0.19-0.07,0.38-0.15,0.58-0.23c15.1-5.86,46.84-16.96,55.06-10.29
						c0,0,0,0,0,0c0.09,0.07,0.18,0.15,0.26,0.22c0.01,0,0.01,0,0.02,0.01c0.09,0.08,0.17,0.17,0.25,0.25
						c0.07,0.07,0.14,0.15,0.21,0.23c0.03,0.02,0.05,0.06,0.08,0.09c0.09,0.11,0.18,0.23,0.26,0.35c0,0,0,0.01,0,0.01
						c0.09,0.13,0.17,0.27,0.24,0.41c0.07,0.13,0.14,0.27,0.19,0.41c0.13,0.3,0.24,0.62,0.31,0.96c0.07,0.34,0.14,0.68,0.18,1.01
						c0.08,0.59,0.11,1.17,0.08,1.73C843.55,772.69,808.23,774.96,791.03,775.19z"/>
				</g>
				<g>
					
						<linearGradient id="SVGID_00000168827997216858485990000009565102461397813177_" gradientUnits="userSpaceOnUse" x1="785.9296" y1="763.3566" x2="844.2224" y2="763.3566">
						<stop  offset="0" style="stop-color:#326AB3"/>
						<stop  offset="1" style="stop-color:#003780"/>
					</linearGradient>
					<path style="fill:url(#SVGID_00000168827997216858485990000009565102461397813177_);" d="M791.31,776.92l-0.58-1.72l-0.25-0.75
						c0-0.01,0-0.01,0-0.01l-3.97-11.73l-0.57-1.68c15.11-5.86,47.84-15.81,56.2-8.85l0,0.01c0.09,0.07,0.18,0.15,0.26,0.24
						c0.01,0,0.01,0,0.02,0.01c0.09,0.08,0.17,0.17,0.25,0.25c0.07,0.07,0.14,0.15,0.21,0.23c0.03,0.02,0.05,0.06,0.08,0.09
						c0.09,0.11,0.18,0.23,0.26,0.35c0,0,0,0.01,0,0.01c0.09,0.13,0.17,0.27,0.24,0.41c0.07,0.13,0.14,0.27,0.19,0.41
						c0.13,0.3,0.24,0.62,0.31,0.96c0.07,0.34,0.14,0.68,0.18,1.01c0.08,0.59,0.11,1.17,0.08,1.73
						C843.61,772.88,808.52,776.69,791.31,776.92z"/>
				</g>
				<g>
					<path class="st46" d="M779,765.77c0,0-27.51-5.38-28.71,6.26c-1.29,12.5,31.51,3.14,31.51,3.14s-12.65,2.77-12.05-4.33
						C770.33,763.98,779,765.77,779,765.77z"/>
				</g>
			</g>
			<g>
				<path class="st44" d="M819.89,718.55c-5.4,7.58-0.57,28.34-0.57,28.34h-36.25c1-1.42,3.82-19.31-2.53-29.17
					c-10.26-15.91,0.79-28.28,0.79-28.28l15.08-2.74l0.96-4.8l0.66-3.31l0.16-0.77h6.78l0.25,1.44l0.53,3.14l0.79,4.64l13.86,3.01
					C820.38,690.05,832.25,701.18,819.89,718.55z"/>
			</g>
			<g>
				<path class="st47" d="M783.07,746.89c0.85-1.21,3.02-14.37-0.28-24.33c7.15-2.08,5.94,17.77,17.85,24.33H783.07z"/>
			</g>
			<g>
				<path class="st44" d="M839.6,734.33c-0.38,2.35-2.03,4.9-4.48,7.41c-6.26,6.43-19.02,6.14-27.77,8.48l-0.91-4.66
					c0,0,15.62-4.41,18.98-9.89c0.36-0.58,0.6-1.13,0.7-1.62c1.14-5.46-5.18-12.29-5.18-12.29l-0.67-31.7
					C820.27,690.07,841.5,722.39,839.6,734.33z"/>
			</g>
			<g>
				<path class="st44" d="M795.81,745.64l0.16,3.1c0.28-0.1,0.26-0.5-0.03-0.56c-7.8-1.61-20.62,0.62-26.86-4.68
					c-3.85-3.27-5.95-7.3-6.44-10.4c-1.9-11.94,18.81-43.63,18.81-43.63l-0.77,31.66c0,0-6.32,6.83-5.18,12.29
					c0.2,0.97,0.97,2.17,2.09,3.48C782.27,742.39,795.81,745.64,795.81,745.64z"/>
			</g>
			
				<linearGradient id="SVGID_00000161628285810565962520000000319358133531279261_" gradientUnits="userSpaceOnUse" x1="761.6" y1="716.7947" x2="840.0213" y2="716.7947">
				<stop  offset="0" style="stop-color:#E85467"/>
				<stop  offset="1" style="stop-color:#B01C30"/>
			</linearGradient>
			<path style="fill:url(#SVGID_00000161628285810565962520000000319358133531279261_);" d="M832.41,706.33
				c-0.01-0.02-0.01-0.03-0.01-0.03c-3.99-8.18-8.7-14.99-11.99-16.22c-0.02-0.02-0.03-0.03-0.03-0.03l-0.15-0.03
				c-0.18-0.06-0.35-0.09-0.52-0.11l-13.18-2.87c-1.32,2.83-9.54,3.03-10.12-0.35l-15.08,2.75c0,0-0.01,0.01-0.01,0.01
				c-4.13,1.36-11.13,12.44-15.58,23.65c0,0-0.01,0.02-0.02,0.07c-3.14,7.9-5,15.86-3.69,20.52c0.85,3.03,3.1,7.21,6.95,10.48
				l2.63-2.18l6.54-5.44c-1.12-1.31-2.44-2.16-2.64-3.13c-0.85-4.08,4.53-8.76,7.29-10.86c0,0,0,0,0,0
				c3.3,9.96,1.13,23.12,0.28,24.33h36.25c0,0-3.85-16.54-0.83-25.48c2.8,2.64,8.24,8.39,7.39,12.47c-0.1,0.49-0.28,1.07-0.64,1.66
				l7.04,4.56l2.68,1.74c0.29,0.19,0.67,0.14,0.91-0.11c2.21-2.42,3.53-5.2,3.94-7.41C840.97,728.04,837.23,716.21,832.41,706.33z"
				/>
			<g>
				<g>
					<path class="st44" d="M847.09,770.66c2.18,9.32-22.62,4.8-27.23,3.89c-0.47-0.09-0.73-0.15-0.73-0.15s-3.6,0.17-9.08,0.15
						c-0.11,0-0.21,0-0.32,0c-7.96-0.04-19.73-0.48-30.28-2.36c-12.94-2.31-24.05-6.78-24.03-15.35c0-0.02,0-0.03,0-0.05
						c0-0.35,0.02-0.7,0.07-1.07c0-0.01,0-0.01,0-0.02c0.04-0.37,0.11-0.75,0.19-1.13c0.07-0.35,0.17-0.67,0.31-0.98
						c0.06-0.14,0.12-0.28,0.19-0.42c0.08-0.14,0.16-0.28,0.24-0.42c0,0,0,0,0-0.01c0.08-0.12,0.17-0.25,0.26-0.36
						c0.03-0.03,0.05-0.07,0.08-0.09c0.06-0.09,0.14-0.17,0.21-0.24c0.08-0.09,0.17-0.18,0.26-0.26c0-0.01,0.01-0.02,0.02-0.01
						c1-0.93,2.4-1.56,4.12-1.95c11.83-2.63,38.69,6.58,52.31,11.73c0.2,0.07,0.4,0.15,0.59,0.23c4.68,1.77,7.65,3.02,7.65,3.02
						s0.92-0.18,2.4-0.38c0.02,0,0.04,0,0.06-0.01C830.32,763.62,845.17,762.48,847.09,770.66z"/>
				</g>
				<g>
					
						<linearGradient id="SVGID_00000053541220177679162950000010531784309632059023_" gradientUnits="userSpaceOnUse" x1="755.417" y1="762.6605" x2="814.8189" y2="762.6605">
						<stop  offset="0" style="stop-color:#326AB3"/>
						<stop  offset="1" style="stop-color:#003780"/>
					</linearGradient>
					<path style="fill:url(#SVGID_00000053541220177679162950000010531784309632059023_);" d="M814.82,760.07l-0.57,1.72l-4.2,12.76
						l-0.58,1.76c-7.22-0.03-17.54-0.66-27.23-2.46c0,0,0,0-0.01,0c-14.1-2.61-26.87-7.69-26.82-17.01c0-0.02,0-0.03,0-0.05
						c0-0.35,0.03-0.71,0.07-1.07c0-0.01,0-0.01,0-0.02c0.04-0.37,0.11-0.75,0.19-1.13c0.07-0.35,0.17-0.67,0.31-0.98
						c0.06-0.14,0.12-0.28,0.19-0.42c0.08-0.14,0.16-0.28,0.24-0.42c0,0,0,0,0-0.01c0.08-0.12,0.17-0.25,0.26-0.36
						c0.03-0.03,0.05-0.07,0.08-0.09c0.06-0.09,0.14-0.17,0.21-0.24c0.08-0.09,0.17-0.18,0.26-0.26c0-0.01,0.01-0.02,0.02-0.01
						c1.03-1,2.51-1.69,4.33-2.13C773.73,746.68,801.23,754.93,814.82,760.07z"/>
				</g>
				<g>
					<path class="st34" d="M821.91,764.85c0,0,27.98-5.71,29.3,6.13c1.42,12.72-32.07,3.46-32.07,3.46s12.23,2.32,11.56-4.9
						C830.05,762.55,821.91,764.85,821.91,764.85z"/>
				</g>
			</g>
			
				<linearGradient id="SVGID_00000133527558396580658950000013447542179782060197_" gradientUnits="userSpaceOnUse" x1="775.6423" y1="733.798" x2="826.0435" y2="733.798">
				<stop  offset="0" style="stop-color:#DBECFF"/>
				<stop  offset="1" style="stop-color:#C4E6FF"/>
			</linearGradient>
			<path style="fill:url(#SVGID_00000133527558396580658950000013447542179782060197_);" d="M823.64,716.02h-45.59
				c-1.6,0-2.65,1.63-2.36,3.59l4.49,29.63c0.2,1.3,1.38,2.33,2.65,2.33h36.02c1.27,0,2.45-1.03,2.65-2.33l4.49-29.63
				C826.29,717.65,825.24,716.02,823.64,716.02z"/>
			<g>
				<path class="st51" d="M839.81,734.33c-0.41,2.21-1.73,4.99-3.94,7.41c-0.23,0.25-0.62,0.3-0.91,0.11l-2.68-1.74
					c1.41-2.45,3.49-4.39,4.47-8.18c2.62-10.14-3.98-24.72-4.34-25.59C837.23,716.21,840.97,728.04,839.81,734.33z"/>
			</g>
			<g>
				<path class="st46" d="M792.23,669.59c0,0-5.43-5.82-1.03-13.55c0,0,1.33,2.41,2.91,1.75c0,0,0.08-5.65,11.56-6.82
					c0,0-0.83,2.24-0.42,2.83c3.78-1.66,7.45,2.47,11.14,0.91c0,0,1.02,6.55-3.22,10.38c0,0,0.64,2.26-0.85,4.51
					C810.83,671.83,792.23,669.59,792.23,669.59z"/>
			</g>
			<g>
				<path class="st44" d="M793.94,667.83c0,0-2.48-2.42-2.71-0.07c-0.28,2.78,3.04,4.85,3.04,4.85s0.81,8.61,8.07,8.61
					c7.2,0,8.41-8.64,8.41-8.64s3.79-1.03,2.98-4.31c-0.38-1.55-2.36,0.03-2.36,0.03v-4.09c0,0-2.02,1.03-5.92-0.65
					c-2.82-1.21-3.83-2.89-6.24-2.8C796.47,660.89,793.83,663.9,793.94,667.83z"/>
			</g>
		</g>
		<g>
			<path class="st52" d="M258.85,401.41c-7.05,4.07-12.75,13.94-12.72,22.05c0.02,8.1,5.76,11.37,12.81,7.3
				c7.06-4.08,12.75-13.94,12.73-22.04C271.64,400.6,265.9,397.33,258.85,401.41z"/>
			<path class="st52" d="M258.77,374.81c-22.62,13.06-33.16,36.97-33.59,37.98c-1.21,2.79-0.71,5.34,1.12,5.7
				c0.68,0.14,1.45-0.06,2.22-0.5c1.28-0.74,2.54-2.17,3.3-3.92c0.36-0.79,8.76-19.56,26.98-30.08
				c18.06-10.43,25.81-0.34,26.12,0.08c0.74,1.04,2.08,1.09,3.46,0.29c0.68-0.39,1.37-0.99,2-1.77c1.9-2.37,2.55-5.55,1.44-7.1
				C291.4,374.91,281.56,361.65,258.77,374.81z"/>
			<path class="st52" d="M332.34,290.46c-0.9-1.25-22.57-30.45-73.27-1.18c-50.52,29.17-73.81,82-74.77,84.24
				c-1.22,2.81-0.72,5.36,1.11,5.71c0.68,0.13,1.46-0.06,2.22-0.5c1.28-0.74,2.54-2.18,3.31-3.94c0.21-0.49,22.05-49.72,68.15-76.34
				c45.95-26.53,65.55-0.52,66.35,0.6c0.74,1.04,2.09,1.08,3.46,0.29c0.68-0.39,1.37-1,2-1.78
				C332.8,295.2,333.45,292.02,332.34,290.46z"/>
			<path class="st52" d="M258.89,344.6c-33.02,19.07-48.3,53.75-48.93,55.21c-1.22,2.81-0.72,5.36,1.11,5.71
				c0.68,0.13,1.45-0.06,2.22-0.5c1.28-0.74,2.54-2.18,3.31-3.93c0.54-1.25,13.7-30.8,42.31-47.31
				c28.45-16.42,40.61-0.41,41.11,0.28c0.74,1.04,2.08,1.09,3.46,0.29c0.68-0.39,1.37-0.99,2-1.77c1.9-2.37,2.55-5.55,1.44-7.1
				C306.33,344.63,292.07,325.44,258.89,344.6z"/>
			<path class="st52" d="M258.96,317.41c-40.68,23.49-59.46,66.12-60.24,67.92c-1.22,2.81-0.72,5.36,1.12,5.71
				c0.68,0.13,1.46-0.06,2.22-0.5c1.28-0.74,2.54-2.18,3.31-3.94c0.69-1.59,17.35-39.07,53.62-60.01
				c36.1-20.84,51.52-0.46,52.15,0.42c0.74,1.04,2.08,1.09,3.46,0.29c0.68-0.39,1.37-0.99,2-1.77c1.9-2.37,2.55-5.55,1.44-7.11
				C317.3,317.4,299.8,293.84,258.96,317.41z"/>
		</g>
		<g>
			<path class="st52" d="M698.35,189.02l73-42.15c0.49-0.28,0.88-0.96,0.88-1.52l0-1.36c0-0.56-0.4-0.78-0.88-0.5l-73,42.15
				c-0.49,0.28-0.88,0.96-0.88,1.52l0,1.36C697.47,189.08,697.86,189.3,698.35,189.02z"/>
			<path class="st52" d="M771.43,177.19l-73,42.15c-0.49,0.28-0.88,0.96-0.88,1.52l0,1.36c0,0.56,0.4,0.78,0.88,0.5l73-42.15
				c0.49-0.28,0.88-0.96,0.88-1.52l0-1.36C772.31,177.14,771.92,176.91,771.43,177.19z"/>
			<path class="st52" d="M698.39,204.76l40.09-23.15c0.49-0.28,0.88-0.96,0.88-1.52l0-1.36c0-0.56-0.4-0.78-0.88-0.5l-40.09,23.15
				c-0.49,0.28-0.88,0.96-0.88,1.52l0,1.36C697.51,204.82,697.91,205.04,698.39,204.76z"/>
			<path class="st52" d="M771.5,159.17l-17.57,10.15c-0.48,0.28-0.87,0.96-0.87,1.51l0,1.36c0,0.56,0.4,0.78,0.88,0.51l17.57-10.15
				c0.49-0.28,0.88-0.96,0.88-1.52l0-1.36C772.38,159.11,771.98,158.89,771.5,159.17z"/>
		</g>
		<g>
			<path class="st52" d="M1278.19,466.67l-73-42.15c-0.49-0.28-0.88-0.96-0.88-1.52l0-1.36c0-0.56,0.4-0.78,0.88-0.5l73,42.15
				c0.49,0.28,0.88,0.96,0.88,1.52l0,1.36C1279.07,466.73,1278.68,466.95,1278.19,466.67z"/>
			<path class="st52" d="M1205.11,454.84l73,42.15c0.49,0.28,0.88,0.96,0.88,1.52l0,1.36c0,0.56-0.4,0.78-0.88,0.5l-73-42.15
				c-0.49-0.28-0.88-0.96-0.88-1.52l0-1.36C1204.23,454.78,1204.62,454.56,1205.11,454.84z"/>
			<path class="st52" d="M1278.15,482.41l-40.09-23.15c-0.49-0.28-0.88-0.96-0.88-1.52l0-1.36c0-0.56,0.4-0.78,0.88-0.5l40.09,23.15
				c0.49,0.28,0.88,0.96,0.88,1.52l0,1.36C1279.03,482.46,1278.64,482.69,1278.15,482.41z"/>
			<path class="st52" d="M1205.04,436.81l17.57,10.15c0.48,0.28,0.87,0.96,0.87,1.51l0,1.36c0,0.56-0.4,0.78-0.88,0.51l-17.57-10.15
				c-0.49-0.28-0.88-0.96-0.88-1.52l0-1.36C1204.16,436.76,1204.56,436.53,1205.04,436.81z"/>
		</g>
		<g>
			<g>
				<g>
					<path class="st53" d="M1183.45,664.45c-2.74-11.78-4.56-45.63,1.75-68.32c5.46-19.65,0.09-31.17,0.04-31.28l1.16-0.56
						c0.23,0.48,5.64,12.04,0.04,32.19c-6.24,22.48-4.45,56.01-1.73,67.68L1183.45,664.45z"/>
				</g>
				<g>
					<path class="st53" d="M1189.94,665.41c-0.88-0.31-5.19-3.49-3.45-35.89c1.75-32.67-15.24-37.95-15.41-38l0.36-1.24
						c0.74,0.21,18.14,5.63,16.34,39.31c-1.69,31.66,2.61,34.6,2.65,34.63L1189.94,665.41z"/>
				</g>
				<g>
					<path class="st53" d="M1187.67,663.56c-0.96-4.11,0.81-13.11,2.68-22.62c1.26-6.41,2.56-13.03,2.82-17.53
						c0.27-4.58-0.45-10.05-1.14-15.33c-0.97-7.41-1.89-14.41-0.35-19.35c0.97-3.12,3.23-5.44,6.22-6.37c3.21-1,6.82-0.27,9.66,1.95
						l-0.8,1.02c-2.51-1.96-5.68-2.61-8.48-1.73c-2.61,0.82-4.51,2.78-5.37,5.52c-1.45,4.67-0.55,11.53,0.4,18.8
						c0.7,5.34,1.42,10.87,1.15,15.57c-0.27,4.58-1.58,11.25-2.84,17.7c-1.76,8.97-3.58,18.24-2.69,22.08L1187.67,663.56z"/>
				</g>
				<g>
					<g>
						<path class="st54" d="M1150.42,606.23c3.74-1.54,8.09-8.86,12.18-8.68c0.93,4.65-5.96,4.85-8.55,7.62
							c-2.14,2.85,8.02,4.41,12.42,1.49c3.68-2.23,2.11-7.52,6.06-15.43c3.28-6.81,5.74-7.03,6.01-11.11
							c0.48-7.45-7.25-14.21-8.08-13.72c-0.33,0.2,0.61,1.47,1.03,4.82c0.3,0.27,0.3,13.46-3.13,9.14
							c-2.4-5.47,3.82-9.55-0.37-15.75c-3.14-4.65-11.19-4.48-11.37-3.9c4.09,0.94,6.72,11.41,4.97,15.63
							c-1.26,2.45-2.28,0.4-2.64-2.07c-2.28-7.95-2.93-12.3-8.8-15.46c-7.2-3.88-12.81,2.98-21.87,4.58c0,0-2.06,11.1,2.43,17.2
							c4.33,5.87,10.29,0.27,15.04,1.64c2.11,0.39,2.67,3.1,1.36,4.42c-1.82,2.69-6.09,2.96-9.17,3.13
							c-5.11,0.27-6.94-0.8-7.51,0.15c-1.59,2.47,6.42,9.19,10.73,7.6c5.46,0.37,11.46-8.91,16.98-6.58
							c0.18,4.34-10.63,9.28-15.29,9.63c-2.47-0.09-4.16-1.19-4.39-0.8C1139.64,602.17,1146.97,607.39,1150.42,606.23z"/>
					</g>
					<g>
						<path class="st55" d="M1159.59,605.31c1.25-0.17,2.45-0.64,3.48-1.37c1-0.71,1.79-1.64,2.39-2.7c0.66-1.16,1.11-2.42,1.6-3.66
							c0.53-1.34,1.13-2.66,1.82-3.93c0.31-0.57,0.62-1.16,0.99-1.69c0.31-0.45,0.72-0.87,1.29-0.93c0.01,0,0.01-0.01,0.01-0.01
							c0.09,0.05,0.18,0.09,0.26,0.15c0.29,0.17,0.58,0.35,0.86,0.55c0.02-0.05,0.04-0.09,0.06-0.13c-0.51-0.34-1.04-0.66-1.59-0.94
							c0,0,0-0.01-0.01-0.01c-0.19-0.18-0.35-0.4-0.49-0.63c-0.13-0.22-0.26-0.47-0.26-0.72c0.01-0.38,0.16-0.76,0.3-1.12
							c0.14-0.35,0.29-0.7,0.45-1.04c1.11-2.42,2.56-4.71,3.36-7.27c0.66-2.1,0.88-4.42,0.07-6.52c-0.03-0.08-0.16-0.03-0.13,0.06
							c0.47,1.22,0.59,2.54,0.46,3.84c-0.25,2.54-1.39,4.85-2.54,7.1c-0.64,1.24-1.29,2.48-1.82,3.78
							c-0.19,0.48-0.42,1.04-0.23,1.55c0.1,0.29,0.27,0.57,0.47,0.81c-1.56-0.76-3.22-1.26-4.87-1.77
							c-0.08-0.02-0.16-0.05-0.23-0.07c0,0,0,0,0,0c-0.87-0.92-1.41-2.09-1.69-3.32c-0.58-2.5-0.01-5.01,0.65-7.43
							c0.18-0.66,0.36-1.33,0.53-2c0.16-0.63,0.31-1.26,0.38-1.91c0.11-1.1-0.07-2.3-0.89-3.11c-0.06-0.06-0.18,0.03-0.11,0.09
							c1.03,1.01,0.99,2.55,0.72,3.87c-0.54,2.62-1.56,5.15-1.66,7.85c-0.07,2.07,0.43,4.29,1.82,5.88
							c-1.55-0.48-3.09-0.98-4.54-1.73c-0.79-0.41-1.52-0.9-2.22-1.44c0,0,0-0.01-0.01-0.02c-0.01,0-0.02-0.01-0.03-0.01
							c-0.63-0.49-1.23-1.02-1.82-1.57c-0.97-0.91-1.9-1.87-2.86-2.79c-0.57-1.28-0.81-2.69-0.95-4.08
							c-0.25-2.49-0.07-5.07-0.88-7.47c-0.73-2.14-2.51-4.19-4.91-4.27c-0.09,0-0.1,0.14-0.01,0.14c1.33,0.04,2.53,0.76,3.4,1.74
							c1.69,1.9,1.96,4.54,2.08,6.98c0.11,2.24,0.16,4.6,1.01,6.71c-0.12-0.12-0.25-0.24-0.37-0.36c-1.26-1.16-2.61-2.18-4.09-3.03
							c-3.03-1.76-6.36-2.89-9.66-4c-0.09-0.03-0.13,0.1-0.05,0.13c0.4,0.13,0.81,0.27,1.21,0.41c3.18,1.08,6.37,2.26,9.22,4.06
							c-0.89-0.18-1.84,0.04-2.71,0.23c-1.09,0.24-2.37,0.48-3.34-0.24c-0.07-0.05-0.16,0.06-0.08,0.12
							c0.91,0.67,2.12,0.55,3.16,0.32c1.08-0.23,2.27-0.58,3.36-0.18c0.01,0,0.01,0,0.01,0c0,0,0,0,0,0
							c1.41,0.94,2.67,2.05,3.87,3.23c1.16,1.13,2.28,2.3,3.51,3.36c0.12,0.1,0.24,0.2,0.36,0.3c-1.22-0.44-2.63-0.22-3.81,0.27
							c-1.37,0.57-2.51,1.58-3.62,2.54c-1.1,0.96-2.24,1.85-3.51,2.57c-2.45,1.39-5.2,2.21-8.01,2.38c-0.09,0-0.07,0.15,0.03,0.14
							c1.53-0.09,3.05-0.38,4.51-0.84c1.31-0.42,2.57-0.98,3.76-1.67c1.22-0.72,2.32-1.6,3.39-2.52c1.11-0.97,2.26-1.97,3.65-2.52
							c1.29-0.51,2.84-0.69,4.09,0.03c1.03,0.78,2.13,1.45,3.32,1.97c1.64,0.71,3.36,1.19,5.06,1.72c0.15,0.05,0.29,0.09,0.43,0.14
							c-0.97,0.15-1.89,0.59-2.68,1.16c-0.85,0.61-1.56,1.4-2.26,2.18c-0.72,0.81-1.45,1.61-2.24,2.35
							c-1.55,1.42-3.28,2.64-5.15,3.61c-0.08,0.04-0.02,0.17,0.06,0.13c1.02-0.53,2.01-1.14,2.95-1.81c0.84-0.6,1.64-1.26,2.39-1.97
							c0.77-0.73,1.47-1.51,2.18-2.3c0.7-0.79,1.43-1.58,2.31-2.18c0.82-0.56,1.76-0.97,2.75-1.07c0,0,0-0.01,0,0
							c1.27,0.42,2.51,0.89,3.68,1.52c-0.49,0.11-0.88,0.48-1.17,0.88c-0.43,0.59-0.77,1.26-1.12,1.9
							c-0.67,1.25-1.25,2.53-1.77,3.84c-0.5,1.27-0.96,2.56-1.65,3.74c-0.63,1.07-1.45,2-2.48,2.69c-0.97,0.64-2.08,1.07-3.23,1.22
							C1159.48,605.18,1159.51,605.32,1159.59,605.31z"/>
					</g>
				</g>
				<g>
					<g>
						<path class="st54" d="M1231.96,575.82c-4,0.61-9.97,6.67-13.9,5.53c0.2-4.74,6.95-3.29,10.12-5.36
							c2.76-2.26-6.74-6.2-11.7-4.41c-4.11,1.29-3.84,6.8-9.57,13.54c-4.81,5.83-7.25,5.46-8.48,9.35
							c-2.25,7.12,3.66,15.53,4.57,15.25c0.37-0.11-0.24-1.58,0.15-4.93c-0.22-0.34,2.92-13.15,5.22-8.13
							c1.03,5.89-5.99,8.36-3.4,15.38c1.94,5.27,9.8,7.02,10.11,6.49c-3.75-1.88-3.81-12.68-1.1-16.37
							c1.81-2.08,2.31,0.16,2.07,2.64c0.32,8.27-0.08,12.64,4.86,17.12c6.06,5.48,13.15,0.16,22.33,0.76c0,0,4.65-10.29,1.74-17.28
							c-2.8-6.73-9.93-2.71-14.21-5.17c-1.96-0.89-1.85-3.64-0.27-4.62c2.41-2.18,6.62-1.43,9.65-0.85
							c5.03,0.95,6.54,2.43,7.33,1.64c2.14-2.02-4.05-10.46-8.61-9.94c-5.22-1.67-13.25,5.92-18.06,2.34
							c0.86-4.26,12.54-6.47,17.15-5.71c2.38,0.68,3.76,2.14,4.07,1.83C1241.46,582.33,1235.59,575.52,1231.96,575.82z"/>
					</g>
					<g>
						<path class="st55" d="M1222.83,574.52c-1.26-0.14-2.53,0.04-3.7,0.5c-1.14,0.45-2.13,1.17-2.97,2.05
							c-0.92,0.97-1.66,2.09-2.43,3.17c-0.84,1.18-1.73,2.31-2.7,3.38c-0.44,0.48-0.88,0.98-1.37,1.41c-0.41,0.36-0.9,0.68-1.47,0.6
							c-0.01,0-0.01,0-0.02,0c-0.07-0.07-0.15-0.13-0.22-0.21c-0.24-0.24-0.48-0.48-0.7-0.73c-0.03,0.04-0.06,0.07-0.09,0.11
							c0.41,0.45,0.85,0.89,1.32,1.3c0,0,0,0.01,0,0.01c0.15,0.22,0.25,0.48,0.32,0.73c0.07,0.24,0.14,0.52,0.08,0.77
							c-0.1,0.37-0.34,0.71-0.55,1.01c-0.22,0.31-0.45,0.61-0.69,0.91c-1.66,2.09-3.61,3.96-5,6.25c-1.14,1.89-1.91,4.08-1.62,6.31
							c0.01,0.09,0.15,0.06,0.14-0.03c-0.17-1.3,0.03-2.61,0.47-3.84c0.85-2.41,2.5-4.38,4.16-6.29c0.92-1.05,1.85-2.1,2.66-3.23
							c0.3-0.42,0.65-0.91,0.59-1.45c-0.03-0.3-0.13-0.61-0.26-0.9c1.33,1.11,2.82,1.99,4.31,2.88c0.07,0.04,0.14,0.08,0.21,0.13
							c0,0,0,0,0,0c0.62,1.1,0.87,2.37,0.85,3.63c-0.04,2.57-1.19,4.86-2.4,7.07c-0.33,0.6-0.67,1.2-0.99,1.81
							c-0.3,0.57-0.61,1.15-0.83,1.76c-0.37,1.04-0.48,2.25,0.12,3.23c0.05,0.08,0.18,0.02,0.13-0.06
							c-0.76-1.23-0.35-2.72,0.23-3.93c1.14-2.41,2.75-4.63,3.48-7.23c0.57-1.99,0.61-4.27-0.36-6.15c1.39,0.83,2.77,1.69,3.99,2.76
							c0.67,0.59,1.26,1.24,1.81,1.93c0,0.01,0,0.01,0.01,0.02c0.01,0,0.01,0.01,0.02,0.02c0.5,0.63,0.96,1.28,1.39,1.95
							c0.72,1.12,1.4,2.27,2.11,3.39c0.25,1.38,0.14,2.8-0.05,4.18c-0.35,2.48-1.14,4.94-0.92,7.47c0.2,2.25,1.44,4.67,3.75,5.32
							c0.09,0.03,0.13-0.11,0.04-0.13c-1.29-0.36-2.28-1.34-2.89-2.5c-1.19-2.25-0.82-4.88-0.36-7.28c0.43-2.21,0.94-4.51,0.62-6.76
							c0.09,0.14,0.18,0.29,0.28,0.43c0.94,1.42,2.02,2.74,3.25,3.92c2.52,2.43,5.49,4.32,8.43,6.19c0.08,0.05,0.15-0.07,0.08-0.12
							c-0.36-0.23-0.72-0.46-1.08-0.69c-2.83-1.81-5.65-3.71-7.98-6.14c0.82,0.39,1.79,0.4,2.69,0.42c1.12,0.02,2.42,0.1,3.19,1.03
							c0.06,0.07,0.17-0.02,0.11-0.09c-0.72-0.87-1.93-1.04-2.99-1.07c-1.11-0.03-2.35,0.03-3.3-0.62c0,0-0.01,0-0.01,0c0,0,0,0,0,0
							c-1.15-1.25-2.1-2.63-2.99-4.06c-0.85-1.37-1.66-2.78-2.6-4.1c-0.09-0.13-0.18-0.25-0.28-0.37c1.08,0.72,2.5,0.84,3.77,0.65
							c1.47-0.23,2.81-0.93,4.12-1.61c1.3-0.67,2.61-1.26,4.02-1.66c2.71-0.77,5.58-0.91,8.35-0.4c0.09,0.02,0.1-0.13,0.01-0.14
							c-1.51-0.27-3.05-0.36-4.58-0.25c-1.37,0.09-2.73,0.34-4.05,0.73c-1.36,0.41-2.63,1-3.89,1.64c-1.31,0.68-2.66,1.37-4.15,1.57
							c-1.37,0.19-2.92-0.01-3.97-1c-0.81-1.01-1.72-1.92-2.75-2.71c-1.42-1.08-2.98-1.96-4.5-2.88c-0.13-0.08-0.26-0.16-0.39-0.24
							c0.98,0.08,1.97-0.12,2.88-0.49c0.98-0.39,1.85-0.99,2.71-1.58c0.89-0.62,1.79-1.22,2.74-1.74c1.84-1.01,3.82-1.78,5.86-2.28
							c0.09-0.02,0.06-0.16-0.03-0.14c-1.12,0.28-2.22,0.63-3.29,1.06c-0.96,0.39-1.9,0.83-2.79,1.34
							c-0.92,0.52-1.79,1.11-2.66,1.71c-0.87,0.6-1.77,1.2-2.76,1.57c-0.92,0.34-1.94,0.52-2.92,0.38c0,0,0,0-0.01,0
							c-1.13-0.71-2.23-1.46-3.21-2.36c0.51,0.01,0.96-0.25,1.34-0.58c0.56-0.47,1.05-1.04,1.54-1.58c0.94-1.05,1.82-2.16,2.64-3.31
							c0.79-1.11,1.54-2.26,2.49-3.24c0.86-0.89,1.88-1.59,3.05-2.02c1.09-0.39,2.27-0.54,3.43-0.41
							C1222.91,574.67,1222.92,574.53,1222.83,574.52z"/>
					</g>
				</g>
				<g>
					<g>
						<path class="st56" d="M1160.88,558.2c3.57,1.91,11.98,0.62,14.44,3.89c-3,3.68-7.54-1.52-11.31-1.76
							c-3.56,0.16,1.69,9,6.74,10.54c4.06,1.42,7.15-3.15,15.77-5.12c7.34-1.79,9.08-0.04,12.39-2.42
							c6.06-4.36,6.36-14.63,5.46-14.95c-0.36-0.13-0.75,1.41-3.07,3.85c-0.02,0.4-10.21,8.78-9.05,3.39
							c2.7-5.33,9.8-3.11,11.93-10.29c1.6-5.38-3.66-11.49-4.21-11.25c1.88,3.75-4.54,12.44-8.91,13.77
							c-2.69,0.58-1.75-1.51-0.08-3.36c4.69-6.81,7.63-10.08,6.35-16.62c-1.58-8.02-10.44-7.99-17.44-13.98
							c0,0-9.88,5.46-11.74,12.81c-1.78,7.07,6.33,8.11,8.29,12.65c1.04,1.88-0.7,4.03-2.55,3.86c-3.23,0.3-6.16-2.82-8.24-5.1
							c-3.45-3.77-3.79-5.87-4.89-5.7c-2.92,0.34-3.02,10.8,0.95,13.12c3.18,4.46,14.16,3.19,15.87,8.93
							c-3.24,2.89-13.92-2.32-17.15-5.69c-1.5-1.97-1.73-3.97-2.17-3.9C1157.16,547.3,1157.79,556.27,1160.88,558.2z"/>
					</g>
					<g>
						<path class="st57" d="M1167.42,564.71c0.92,0.86,2.05,1.48,3.27,1.81c1.18,0.32,2.4,0.34,3.6,0.13
							c1.32-0.23,2.58-0.68,3.84-1.09c1.37-0.44,2.77-0.82,4.19-1.09c0.64-0.12,1.29-0.26,1.94-0.31c0.54-0.04,1.13,0,1.54,0.4
							c0,0,0.01,0,0.01,0.01c0.02,0.1,0.04,0.2,0.05,0.3c0.05,0.33,0.1,0.67,0.12,1.01c0.05-0.02,0.09-0.03,0.14-0.04
							c-0.06-0.61-0.15-1.22-0.28-1.83c0,0,0-0.01,0-0.01c0.02-0.26,0.09-0.53,0.18-0.78c0.09-0.23,0.2-0.5,0.4-0.66
							c0.3-0.24,0.69-0.36,1.05-0.48c0.36-0.11,0.73-0.22,1.09-0.31c2.58-0.68,5.26-1.01,7.75-2.02c2.04-0.83,3.98-2.13,5.08-4.08
							c0.04-0.08-0.08-0.14-0.13-0.06c-0.64,1.14-1.59,2.07-2.67,2.8c-2.12,1.42-4.63,2.01-7.09,2.55c-1.37,0.3-2.74,0.58-4.07,1
							c-0.49,0.15-1.07,0.34-1.34,0.8c-0.16,0.26-0.27,0.57-0.33,0.88c-0.4-1.68-1.07-3.29-1.73-4.88
							c-0.03-0.07-0.06-0.15-0.09-0.22c0,0,0,0,0,0c0.16-1.25,0.72-2.42,1.49-3.41c1.57-2.03,3.86-3.19,6.15-4.23
							c0.63-0.28,1.25-0.57,1.88-0.86c0.58-0.28,1.17-0.56,1.72-0.92c0.92-0.61,1.73-1.52,1.83-2.66c0.01-0.09-0.13-0.12-0.14-0.03
							c-0.13,1.44-1.35,2.38-2.53,3.01c-2.36,1.25-4.97,2.06-7.12,3.7c-1.65,1.26-3.04,3.06-3.39,5.14c-0.61-1.5-1.21-3.01-1.54-4.6
							c-0.18-0.87-0.27-1.75-0.3-2.63c0-0.01,0.01-0.01,0.01-0.02c0-0.01,0-0.02-0.01-0.03c-0.02-0.8,0-1.6,0.05-2.4
							c0.09-1.33,0.24-2.65,0.34-3.98c0.63-1.25,1.56-2.33,2.55-3.32c1.76-1.78,3.87-3.27,5.21-5.43c1.19-1.92,1.64-4.6,0.18-6.51
							c-0.06-0.07-0.17,0.01-0.12,0.08c0.81,1.06,1.02,2.43,0.82,3.74c-0.4,2.52-2.26,4.4-4.07,6.04c-1.66,1.51-3.45,3.05-4.54,5.05
							c0.01-0.17,0.03-0.34,0.04-0.51c0.1-1.71,0.02-3.4-0.26-5.09c-0.57-3.45-1.81-6.75-3.05-10c-0.03-0.09-0.16-0.04-0.13,0.05
							c0.15,0.4,0.3,0.8,0.45,1.19c1.18,3.14,2.3,6.35,2.72,9.7c-0.43-0.8-1.2-1.39-1.9-1.94c-0.88-0.69-1.88-1.53-1.94-2.73
							c-0.01-0.09-0.15-0.08-0.14,0.01c0.06,1.13,0.92,1.98,1.76,2.65c0.87,0.69,1.89,1.38,2.27,2.47c0,0.01,0.01,0,0.01,0.01
							c0,0,0,0,0,0c0.17,1.68,0.11,3.36-0.03,5.05c-0.14,1.61-0.33,3.22-0.36,4.84c0,0.15,0,0.31,0,0.46
							c-0.43-1.23-1.5-2.17-2.63-2.77c-1.31-0.7-2.81-0.94-4.26-1.18c-1.44-0.24-2.85-0.55-4.21-1.08
							c-2.63-1.01-5.01-2.61-6.93-4.67c-0.06-0.07-0.15,0.04-0.09,0.11c1.04,1.12,2.23,2.11,3.51,2.94
							c1.16,0.75,2.39,1.36,3.68,1.84c1.33,0.49,2.71,0.78,4.1,1.01c1.46,0.24,2.96,0.5,4.27,1.22c1.21,0.67,2.34,1.76,2.58,3.17
							c0.05,1.29,0.23,2.56,0.58,3.81c0.49,1.72,1.22,3.35,1.89,5c0.06,0.14,0.11,0.28,0.17,0.42c-0.73-0.65-1.66-1.08-2.6-1.33
							c-1.01-0.27-2.08-0.32-3.12-0.36c-1.08-0.04-2.16-0.09-3.24-0.24c-2.08-0.29-4.13-0.86-6.06-1.68
							c-0.09-0.04-0.15,0.09-0.06,0.13c1.06,0.45,2.16,0.83,3.27,1.12c1,0.26,2.02,0.47,3.04,0.6c1.05,0.14,2.1,0.18,3.16,0.22
							c1.06,0.04,2.13,0.1,3.15,0.4c0.95,0.28,1.87,0.74,2.57,1.44c0,0,0.01,0,0.01,0c0.48,1.24,0.91,2.51,1.16,3.81
							c-0.4-0.31-0.92-0.37-1.42-0.34c-0.73,0.04-1.46,0.2-2.18,0.34c-1.38,0.28-2.75,0.64-4.09,1.07c-1.29,0.42-2.59,0.89-3.93,1.1
							c-1.23,0.2-2.46,0.15-3.65-0.21c-1.11-0.34-2.14-0.93-3-1.72C1167.44,564.54,1167.35,564.65,1167.42,564.71z"/>
					</g>
				</g>
			</g>
			<g>
				<path class="st58" d="M1201.9,653.14c-0.03,0.32-0.11,1.01-0.25,1.96c-0.03,0.18-0.06,0.38-0.08,0.59
					c-0.01,0.17-0.04,0.32-0.07,0.49c-0.03,0.21-0.06,0.43-0.1,0.67c-0.25,1.74-0.57,3.87-0.9,6.08c-0.11,0.73-0.22,1.46-0.34,2.19
					c-0.08,0.5-0.15,0.99-0.22,1.5c-0.32,2.13-0.62,4.15-0.84,5.77c-0.08,0.63-0.15,1.2-0.22,1.68c-0.03,0.21-0.06,0.41-0.07,0.57
					c-0.01,0.15-0.03,0.29-0.04,0.42c0,0.04,0,0.43-0.06,0.57c-0.38,1.02-2.07,1.93-4.54,2.56c-2.09,0.5-4.73,0.83-7.61,0.83
					c-3.24,0-6.16-0.39-8.33-1.04c-2.19-0.64-3.61-1.54-3.84-2.54v-0.01c-0.01-0.08-0.03-0.29-0.03-0.32
					c-0.35-3.22-2.23-13.87-3.08-19.16c-0.2-1.23-0.34-2.17-0.39-2.66c0-0.06-0.01-0.11-0.01-0.15H1201.9z"/>
				<path class="st59" d="M1201.9,653.14c-0.03,0.32-0.11,1.01-0.25,1.96c-0.03,0.18-0.06,0.38-0.08,0.59
					c-0.01,0.17-0.04,0.32-0.07,0.49c-0.03,0.21-0.06,0.43-0.1,0.67c-0.25,1.74-0.57,3.87-0.9,6.08c-0.11,0.73-0.22,1.46-0.34,2.19
					c-0.07,0.5-0.15,0.99-0.22,1.5c-0.32,2.13-0.62,4.15-0.84,5.77c-0.1,0.63-0.17,1.2-0.22,1.68c-0.03,0.21-0.06,0.41-0.07,0.57
					c-0.04,0.32-0.07,0.6-0.08,0.81c0,0.07-0.01,0.13-0.01,0.18c-0.38,1.02-2.07,1.93-4.54,2.56c0.52-2.17,0.88-5.27,0.88-6.5
					c0.04-8.52-6.04-15.75-14.56-15.75h-9.37c-0.11-1.3-0.2-2.23-0.24-2.66c0-0.06-0.01-0.11-0.01-0.15H1201.9z"/>
				<path class="st58" d="M1201.3,653.14h-29.81c-2,0-3.62-1.32-3.62-2.94l0,0c0-1.62,1.62-2.94,3.62-2.94h29.81
					c2,0,3.62,1.32,3.62,2.94l0,0C1204.93,651.82,1203.3,653.14,1201.3,653.14z"/>
			</g>
		</g>
		<g>
			<path class="st0" d="M372.2,784.64l0.04,17.43c0.03,9.77,6.42,19.52,19.18,26.93c12.85,7.47,29.77,11.2,46.74,11.2
				c13.83,0,27.69-2.48,39.4-7.42l0.92,0.53l0.01,1.44l11.06,6.44l79.38,46.14v0.21l6.42,3.72c5.78,3.36,15.22,3.36,21.07-0.02
				c2.95-1.71,4.43-3.94,4.43-6.18l-0.04-14.11c-0.01-2.19-1.43-4.38-4.3-6.03l-6.23-3.62l0.19-0.11l-4.08-2.36l-75.68-43.99v0.01
				l-7.43-4.33c1.25-3.02,1.87-6.09,1.86-9.17l-0.04-17.43c0,0.09,0,0.19-0.01,0.28c0.09-9.87-6.28-19.7-19.17-27.2
				c-25.78-14.98-67.94-14.93-94.02,0.11c-13.5,7.8-20.05,18.11-19.65,28.34C372.22,785.17,372.2,784.91,372.2,784.64z"/>
			<g>
				
					<linearGradient id="SVGID_00000061468243947612296080000007719002552245324188_" gradientUnits="userSpaceOnUse" x1="2669.7852" y1="778.2269" x2="2782.3853" y2="778.2269" gradientTransform="matrix(-1 0 0 1 3167.2415 0)">
					<stop  offset="0" style="stop-color:#FFFFFF"/>
					<stop  offset="1" style="stop-color:#BDE1FF"/>
				</linearGradient>
				<path style="fill:url(#SVGID_00000061468243947612296080000007719002552245324188_);" d="M480.84,756.09
					c-22.06-12.23-57.71-12.22-79.62,0c-21.92,12.23-21.8,32.05,0.26,44.28c22.06,12.23,57.7,12.23,79.62,0
					C503.01,788.14,502.9,768.32,480.84,756.09z"/>
				<g>
					
						<linearGradient id="SVGID_00000013883904032029811790000016521377940154818726_" gradientUnits="userSpaceOnUse" x1="2669.7854" y1="765.7139" x2="2782.3337" y2="765.7139" gradientTransform="matrix(-1 0 0 1 3167.2415 0)">
						<stop  offset="0" style="stop-color:#326AB3"/>
						<stop  offset="1" style="stop-color:#003780"/>
					</linearGradient>
					<path style="fill:url(#SVGID_00000013883904032029811790000016521377940154818726_);" d="M384.91,773.44l0.05,17.44
						c-0.02-8.41,5.55-16.85,16.69-23.29c22.09-12.76,57.7-12.8,79.56-0.1c10.82,6.29,16.23,14.52,16.25,22.78l-0.05-17.44
						c-0.02-8.26-5.44-16.49-16.25-22.78c-21.86-12.7-57.46-12.65-79.56,0.1C390.45,756.59,384.88,765.02,384.91,773.44z"/>
				</g>
				
					<ellipse transform="matrix(2.450005e-03 -1 1 2.450005e-03 -339.251 1218.5762)" class="st62" cx="441.16" cy="779.33" rx="30.2" ry="56.3"/>
				<g>
					
						<linearGradient id="SVGID_00000103970056464920071830000004504389826304926352_" gradientUnits="userSpaceOnUse" x1="2659.5923" y1="793.149" x2="2673.0173" y2="793.149" gradientTransform="matrix(-1 0 0 1 3167.2415 0)">
						<stop  offset="0" style="stop-color:#326AB3"/>
						<stop  offset="1" style="stop-color:#003780"/>
					</linearGradient>
					<path style="fill:url(#SVGID_00000103970056464920071830000004504389826304926352_);" d="M507.65,790.21l-0.05-17.44
						c0.02,8.2-4.44,16.42-13.38,23.32l0.05,17.44C503.21,806.63,507.67,798.41,507.65,790.21z"/>
				</g>
				<g>
					
						<linearGradient id="SVGID_00000039117816989950538250000006206229154557163688_" gradientUnits="userSpaceOnUse" x1="2681.5696" y1="814.5416" x2="2687.2104" y2="814.5416" gradientTransform="matrix(-1 0 0 1 3167.2415 0)">
						<stop  offset="0" style="stop-color:#326AB3"/>
						<stop  offset="1" style="stop-color:#003780"/>
					</linearGradient>
					<polygon style="fill:url(#SVGID_00000039117816989950538250000006206229154557163688_);" points="480.03,804.2 480.08,821.63 
						485.67,824.88 485.62,807.45 					"/>
				</g>
				<g>
					
						<linearGradient id="SVGID_00000031193407611896067520000006763861926177950861_" gradientUnits="userSpaceOnUse" x1="2687.1611" y1="801.282" x2="2792.5286" y2="801.282" gradientTransform="matrix(-1 0 0 1 3167.2415 0)">
						<stop  offset="0" style="stop-color:#326AB3"/>
						<stop  offset="1" style="stop-color:#003780"/>
					</linearGradient>
					<path style="fill:url(#SVGID_00000031193407611896067520000006763861926177950861_);" d="M374.71,773.5l0.05,17.44
						c0.03,9.77,6.41,19.51,19.18,26.93c23.32,13.55,60.05,14.79,86.14,3.77l-0.05-17.44c-26.08,11.02-62.82,9.78-86.14-3.77
						C381.13,793.01,374.74,783.27,374.71,773.5z"/>
				</g>
				<g>
					
						<linearGradient id="SVGID_00000056416097359915025100000014421317386962850220_" gradientUnits="userSpaceOnUse" x1="2675.1685" y1="819.7691" x2="2686.2776" y2="819.7691" gradientTransform="matrix(-1 0 0 1 3167.2415 0)">
						<stop  offset="0" style="stop-color:#326AB3"/>
						<stop  offset="1" style="stop-color:#003780"/>
					</linearGradient>
					<polygon style="fill:url(#SVGID_00000056416097359915025100000014421317386962850220_);" points="480.96,809.5 481,823.61 
						492.07,830.04 492.03,815.93 					"/>
				</g>
				<g>
					
						<linearGradient id="SVGID_00000052076461357410221200000010340612985654516379_" gradientUnits="userSpaceOnUse" x1="2622.0354" y1="820.7943" x2="2633.9883" y2="874.6478" gradientTransform="matrix(-1 0 0 1 3167.2415 0)">
						<stop  offset="0" style="stop-color:#FFCA59"/>
						<stop  offset="1" style="stop-color:#FF8F5C"/>
					</linearGradient>
					<polygon style="fill:url(#SVGID_00000052076461357410221200000010340612985654516379_);" points="492.03,815.93 571.78,862.27 
						592.97,850.04 588.89,847.67 513.22,803.7 					"/>
				</g>
				<g>
					
						<linearGradient id="SVGID_00000044899386381701025710000018435268640265976721_" gradientUnits="userSpaceOnUse" x1="2631.4209" y1="832.7703" x2="2644.0305" y2="876.1163" gradientTransform="matrix(-1 0 0 1 3167.2415 0)">
						<stop  offset="0" style="stop-color:#FFCA59"/>
						<stop  offset="1" style="stop-color:#FF8F5C"/>
					</linearGradient>
					<polygon style="fill:url(#SVGID_00000044899386381701025710000018435268640265976721_);" points="492.03,815.93 492.07,830.04 
						571.82,876.39 571.78,862.27 					"/>
				</g>
				
					<linearGradient id="SVGID_00000116941112203064964850000005489422155016222340_" gradientUnits="userSpaceOnUse" x1="2579.8574" y1="858.8356" x2="2579.8574" y2="884.8425" gradientTransform="matrix(-1 0 0 1 3167.2415 0)">
					<stop  offset="0" style="stop-color:#326AB3"/>
					<stop  offset="1" style="stop-color:#003780"/>
				</linearGradient>
				<path style="fill:url(#SVGID_00000116941112203064964850000005489422155016222340_);" d="M577.83,866
					c5.78,3.36,15.22,3.35,21.07-0.03c2.96-1.71,4.43-3.95,4.42-6.18l0.04,14.11c0.01,2.23-1.47,4.47-4.43,6.18
					c-5.85,3.38-15.29,3.38-21.07,0.03l-6.41-3.73l-0.04-14.11L577.83,866z"/>
				<g>
					
						<linearGradient id="SVGID_00000144323765918055704370000002245930121609647261_" gradientUnits="userSpaceOnUse" x1="2563.926" y1="858.0933" x2="2595.8291" y2="858.0933" gradientTransform="matrix(-1 0 0 1 3167.2415 0)">
						<stop  offset="0" style="stop-color:#326AB3"/>
						<stop  offset="1" style="stop-color:#003780"/>
					</linearGradient>
					<path style="fill:url(#SVGID_00000144323765918055704370000002245930121609647261_);" d="M588.53,847.67l4.07,2.37
						l-21.19,12.23l6.41,3.73c5.78,3.36,15.22,3.35,21.07-0.03c5.86-3.38,5.9-8.85,0.12-12.21L588.53,847.67z"/>
				</g>
				
					<linearGradient id="SVGID_00000005237123335293451810000012181610667525049000_" gradientUnits="userSpaceOnUse" x1="2654.0239" y1="775.2893" x2="2792.5288" y2="775.2893" gradientTransform="matrix(-1 0 0 1 3167.2415 0)">
					<stop  offset="0" style="stop-color:#326AB3"/>
					<stop  offset="1" style="stop-color:#003780"/>
				</linearGradient>
				<path style="fill:url(#SVGID_00000005237123335293451810000012181610667525049000_);" d="M393.9,800.43
					c23.32,13.55,60.05,14.79,86.14,3.77l5.04,2.93l-4.11,2.37l11.07,6.43l21.18-12.23l-11.06-6.44l-2.97,1.71l-4.96-2.88
					l-4.55-2.64l4.55,2.64c19.58-15.1,17.68-36.58-5.8-50.23c-25.78-14.98-67.94-14.93-94.01,0.12
					C368.35,761.02,368.12,785.45,393.9,800.43z M401.6,750.15c22.09-12.76,57.7-12.8,79.56-0.1c21.84,12.69,21.64,33.32-0.45,46.08
					c-22.08,12.75-57.69,12.8-79.53,0.1C379.32,783.53,379.52,762.9,401.6,750.15z"/>
			</g>
		</g>
		<g>
			<g>
				<g>
					<g>
						<g>
							<g>
								
									<linearGradient id="SVGID_00000168094457137744045460000017597029019876201129_" gradientUnits="userSpaceOnUse" x1="749.8698" y1="284.7989" x2="763.407" y2="293.691">
									<stop  offset="0" style="stop-color:#FF9666"/>
									<stop  offset="1" style="stop-color:#C42D40"/>
								</linearGradient>
								<path style="fill:url(#SVGID_00000168094457137744045460000017597029019876201129_);" d="M761.82,287.03
									c0.34,0.55,0.45,1.21,0.29,1.86c-0.21,0.86-0.84,1.52-1.69,1.77l-8.21,2.39c-0.85,0.25-1.74,0.03-2.38-0.58
									c-0.64-0.61-0.9-1.49-0.69-2.35l2.03-8.31c0.21-0.86,0.84-1.52,1.69-1.77c0.85-0.25,1.74-0.03,2.38,0.58l6.18,5.91
									C761.58,286.69,761.72,286.85,761.82,287.03z M751.08,290.97c0.03,0.05,0.06,0.08,0.09,0.11c0.06,0.06,0.24,0.2,0.5,0.12
									l8.21-2.39c0.26-0.08,0.34-0.29,0.36-0.37c0.02-0.09,0.05-0.31-0.15-0.5l-6.18-5.91c-0.2-0.19-0.42-0.15-0.5-0.12
									c-0.09,0.03-0.29,0.11-0.36,0.37l-2.03,8.31C750.98,290.75,751.03,290.89,751.08,290.97z"/>
							</g>
						</g>
					</g>
				</g>
			</g>
		</g>
		<g>
			
				<linearGradient id="SVGID_00000152946263245776233770000016273418843423211432_" gradientUnits="userSpaceOnUse" x1="1253.8391" y1="372.872" x2="1265.077" y2="383.1506">
				<stop  offset="0" style="stop-color:#FFCA59"/>
				<stop  offset="1" style="stop-color:#FF8F5C"/>
			</linearGradient>
			<path style="fill:url(#SVGID_00000152946263245776233770000016273418843423211432_);" d="M1260.7,376.88l3.02-3.02
				c0.69-0.69,0.69-1.8,0-2.48c-0.68-0.69-1.8-0.69-2.48,0l-3.02,3.02l-3.02-3.02c-0.68-0.69-1.8-0.69-2.48,0
				c-0.69,0.69-0.69,1.8,0,2.48l3.02,3.02l-3.01,3.01c-0.69,0.69-0.69,1.8,0,2.48c0.34,0.34,0.79,0.51,1.24,0.51
				c0.45,0,0.9-0.17,1.24-0.51l3.01-3.01l3.01,3.01c0.34,0.34,0.79,0.51,1.24,0.51s0.9-0.17,1.24-0.51c0.69-0.69,0.69-1.8,0-2.48
				L1260.7,376.88z"/>
		</g>
		<g>
			
				<linearGradient id="SVGID_00000054262379278557400670000012956748705646457985_" gradientUnits="userSpaceOnUse" x1="340.594" y1="426.6866" x2="351.8318" y2="436.9652">
				<stop  offset="0" style="stop-color:#FFCA59"/>
				<stop  offset="1" style="stop-color:#FF8F5C"/>
			</linearGradient>
			<path style="fill:url(#SVGID_00000054262379278557400670000012956748705646457985_);" d="M347.45,430.7l3.02-3.02
				c0.69-0.69,0.69-1.8,0-2.48c-0.68-0.69-1.8-0.69-2.48,0l-3.02,3.02l-3.02-3.02c-0.68-0.69-1.8-0.69-2.48,0
				c-0.69,0.69-0.69,1.8,0,2.48l3.02,3.02l-3.01,3.01c-0.69,0.69-0.69,1.8,0,2.48c0.34,0.34,0.79,0.51,1.24,0.51s0.9-0.17,1.24-0.51
				l3.01-3.01l3.01,3.01c0.34,0.34,0.79,0.51,1.24,0.51c0.45,0,0.9-0.17,1.24-0.51c0.69-0.69,0.69-1.8,0-2.48L347.45,430.7z"/>
		</g>
		<g>
			<g>
				
					<linearGradient id="SVGID_00000023990205514116370720000005283403493258638720_" gradientUnits="userSpaceOnUse" x1="1069.9794" y1="163.7844" x2="1083.7736" y2="163.7844">
					<stop  offset="0" style="stop-color:#326AB3"/>
					<stop  offset="1" style="stop-color:#003780"/>
				</linearGradient>
				<path style="fill:url(#SVGID_00000023990205514116370720000005283403493258638720_);" d="M1076.88,170.68
					c-3.8,0-6.9-3.09-6.9-6.9c0-3.8,3.09-6.9,6.9-6.9s6.9,3.09,6.9,6.9C1083.77,167.59,1080.68,170.68,1076.88,170.68z
					 M1076.88,159.05c-2.61,0-4.74,2.13-4.74,4.74c0,2.61,2.13,4.74,4.74,4.74c2.61,0,4.74-2.13,4.74-4.74
					C1081.62,161.17,1079.49,159.05,1076.88,159.05z"/>
			</g>
		</g>
		<g>
			<g>
				
					<linearGradient id="SVGID_00000183962688139632218070000013356320413161615290_" gradientUnits="userSpaceOnUse" x1="147.1516" y1="416.0798" x2="160.9457" y2="416.0798">
					<stop  offset="0" style="stop-color:#326AB3"/>
					<stop  offset="1" style="stop-color:#003780"/>
				</linearGradient>
				<path style="fill:url(#SVGID_00000183962688139632218070000013356320413161615290_);" d="M154.05,422.98
					c-3.8,0-6.9-3.09-6.9-6.9c0-3.8,3.09-6.9,6.9-6.9c3.8,0,6.9,3.09,6.9,6.9C160.95,419.88,157.85,422.98,154.05,422.98z
					 M154.05,411.34c-2.61,0-4.74,2.13-4.74,4.74s2.13,4.74,4.74,4.74c2.61,0,4.74-2.13,4.74-4.74S156.66,411.34,154.05,411.34z"/>
			</g>
		</g>
	</g>
</g>
</svg>
