<?xml version="1.0" encoding="utf-8"?>
<!-- Generator: Adobe Illustrator 25.4.1, SVG Export Plug-In . SVG Version: 6.00 Build 0)  -->
<svg version="1.1" id="Layer_1" xmlns="http://www.w3.org/2000/svg" xmlns:xlink="http://www.w3.org/1999/xlink" x="0px" y="0px"
	 viewBox="0 0 540 340" style="enable-background:new 0 0 540 340;" xml:space="preserve">
<style type="text/css">
	.st0{fill:#FFFFFF;}
	.st1{fill:#64C4FF;}
	.st2{fill:#E3F6FF;}
	.st3{fill:#FC5E56;}
	.st4{fill:#FFC931;}
	.st5{fill:#414A59;}
	.st6{fill:#798491;}
	.st7{fill:#4CB7ED;}
	.st8{fill:#27A2CC;}
	.st9{fill:#F4BB2A;}
	.st10{opacity:0.1;}
	.st11{fill:#D3A900;}
	.st12{fill:#B4E7FC;}
	.st13{fill:#B1D8E5;}
	.st14{fill:#FE9E80;}
	.st15{fill:#BEDAFC;}
	.st16{fill:#3B4956;}
	.st17{fill:#282F39;}
	.st18{fill:#F0736D;}
	.st19{fill:#593838;}
	.st20{fill:#4BB3DB;}
	.st21{fill:#C2EBFF;}
</style>
<g>
	<rect class="st0" width="540" height="340"/>
</g>
<g>
	<g>
		<g>
			<path class="st1" d="M114.22,124.65c0,0,5.01-42.44-19.13-61.51c0,0-15.97-12.19-13.53,2c0,0,0.75,5.56-7.64-0.32
				c-6.95-4.86-17.41-11.67-23.35-4.98c-6.96,7.85,17.9,21.5,17.9,21.5s10.68,7-9.34,4.07c-6.69-0.98-4.37,23.06,48.38,38.33
				L114.22,124.65z"/>
		</g>
	</g>
	<g>
		<g>
			<path class="st0" d="M111.27,121.2c-0.11,0.05-0.24,0.01-0.3-0.1C99.01,96.76,84.83,82.18,75.05,74.23
				c-10.6-8.62-18.47-11.51-18.55-11.54c-0.12-0.04-0.18-0.17-0.14-0.29c0.04-0.12,0.17-0.18,0.29-0.14
				c0.08,0.03,8.01,2.95,18.66,11.6c9.83,7.98,24.06,22.62,36.07,47.04C111.43,121.01,111.39,121.14,111.27,121.2L111.27,121.2z"/>
		</g>
	</g>
	<g>
		<g>
			<path class="st0" d="M92.33,88.41c-0.06,0.03-0.12,0.03-0.18,0.01c-0.11-0.05-0.17-0.18-0.12-0.29
				c5.17-12.58-4.59-23.98-4.69-24.1c-0.08-0.09-0.07-0.24,0.02-0.32c0.09-0.08,0.24-0.07,0.32,0.02c0.03,0.03,2.55,2.95,4.38,7.41
				c1.7,4.12,3.14,10.45,0.38,17.16C92.42,88.35,92.38,88.39,92.33,88.41z"/>
		</g>
	</g>
	<g>
		<g>
			<path class="st0" d="M85.2,93.96c-4.88,2.35-9.79,2.61-13.36,2.32c-4.87-0.39-8.37-1.85-8.4-1.87c-0.11-0.05-0.17-0.18-0.12-0.29
				c0.05-0.11,0.18-0.17,0.29-0.12c0.14,0.06,13.8,5.68,25.08-2.68c0.1-0.07,0.24-0.05,0.31,0.05c0.07,0.1,0.05,0.24-0.05,0.31
				C87.73,92.6,86.47,93.35,85.2,93.96z"/>
		</g>
	</g>
	<g>
		<g>
			<path class="st0" d="M102.73,101.37c-0.08,0.04-0.17,0.03-0.24-0.03c-0.1-0.08-0.11-0.22-0.04-0.32
				c5.26-6.58,2.95-14.28,2.93-14.36c-0.04-0.12,0.03-0.24,0.15-0.28c0.12-0.04,0.24,0.03,0.28,0.15c0.02,0.08,2.4,8-3.01,14.77
				C102.78,101.33,102.76,101.35,102.73,101.37z"/>
		</g>
	</g>
	<g>
		<g>
			<path class="st0" d="M93.75,108.12c-3.03,1.46-5.63,1.99-7.54,2.14c-3.22,0.25-5.15-0.46-5.23-0.49
				c-0.12-0.04-0.17-0.17-0.13-0.29c0.04-0.12,0.17-0.17,0.29-0.13c0.08,0.03,7.74,2.79,17.68-4.93c0.1-0.08,0.24-0.06,0.32,0.04
				c0.08,0.1,0.06,0.24-0.04,0.32C97.22,106.23,95.42,107.32,93.75,108.12z"/>
		</g>
	</g>
	<g>
		<g>
			<path class="st0" d="M75.18,71.85c-0.01,0-0.02,0.01-0.03,0.01c-0.12,0.04-0.24-0.03-0.28-0.14c-2.01-6.2-6.69-8.64-6.74-8.67
				c-0.11-0.06-0.15-0.19-0.1-0.3c0.06-0.11,0.19-0.15,0.3-0.1c0.05,0.02,4.9,2.55,6.97,8.93C75.33,71.69,75.28,71.8,75.18,71.85z"
				/>
		</g>
	</g>
	<g>
		<g>
			<path class="st0" d="M73.77,75.15c-0.01,0-0.01,0.01-0.02,0.01c-3.76,1.42-6.84,1.24-8.77,0.83c-2.1-0.44-3.29-1.2-3.34-1.24
				c-0.1-0.07-0.13-0.21-0.07-0.31c0.07-0.1,0.21-0.13,0.31-0.07c0.05,0.03,4.73,2.99,11.7,0.36c0.12-0.04,0.25,0.01,0.29,0.13
				C73.92,74.97,73.87,75.1,73.77,75.15z"/>
		</g>
	</g>
</g>
<path class="st2" d="M119.49,297.23c-17.32,1.43-35.58-1.21-49.89-10.49c-14.31-9.28-23.8-26.02-20.73-42.11
	c3.69-19.33,23.37-32.97,28.48-52.02c5.17-19.25-15.98-28.07-15.27-46.3c0.39-10.08,6.63-19.8,15.93-24.83
	c6.59-3.56,14.28-4.79,21.36-7.37c20.48-7.45,15.02-25.56,22.32-41.41c6.49-14.11,22.76-22.94,39.08-23.87
	c16.32-0.93,32.44,5.1,45.7,14.1c12.64,8.57,26.56,20.61,41.42,16.19c10.43-3.1,15.55-14.47,25.36-19.16
	c10.2-4.88,22.14-5.79,33.18-3.79c9.85,1.78,18.92,6.12,27.79,10.61c8.19,4.15,16.83,9.67,25.94,11.1
	c13.45,2.12,27.43,0.62,40.16-4.17c13.3-5.01,24.83-13.2,38.81-16.83c16.74-4.35,34.97-1.68,44.9,12.99
	c6.96,10.27,8.37,23.08,7.4,35.22c-1.91,24.11-12.67,47.51-30.03,65.34c-4.77,4.9-10.04,9.42-13.96,14.94
	c-6.98,9.84-5.9,19.65,0.42,29.51c9.67,15.07,33.64,25.19,25.91,46.08c-5.1,13.78-22.66,17.34-35.62,17.69
	c-18.54,0.5-33.97-2.31-50.53,8.89c-9.59,6.49-17.04,15.67-26.13,22.84c-18.8,14.82-44.02,10.5-65.13,2.96
	c-21.97-7.84-42.11-17.62-65.21-21.97c-18.81-3.55-38.08-4.71-57.18-3.4C155.8,289.22,137.32,297.23,119.49,297.23z"/>
<g>
	<g>
		<g>
			<g>
				<path class="st3" d="M333.92,192.8c0,0,56.61,9.97,84.04-20.99c0,0,17.59-20.51-1.65-18.32c0,0-7.52,0.59,1.01-10.23
					c7.06-8.96,17-22.49,8.46-30.97c-10.01-9.94-30.23,22.4-30.23,22.4s-10.21,13.81-4.75-12.85c1.83-8.91-30.62-7.62-55.15,62.04
					L333.92,192.8z"/>
			</g>
		</g>
		<g>
			<g>
				<path class="st0" d="M338.78,189.11c-0.06-0.15,0.01-0.33,0.16-0.39c33.58-14.21,54.25-32.14,65.67-44.67
					c12.38-13.58,16.87-23.93,16.91-24.03c0.07-0.15,0.24-0.22,0.4-0.16c0.15,0.07,0.23,0.24,0.16,0.4
					c-0.04,0.1-4.57,10.53-17,24.18c-11.47,12.59-32.21,30.58-65.91,44.84C339.02,189.34,338.85,189.27,338.78,189.11L338.78,189.11
					z"/>
			</g>
		</g>
		<g>
			<g>
				<path class="st0" d="M384.25,166.18c-0.03-0.08-0.03-0.17,0.01-0.25c0.07-0.15,0.25-0.21,0.4-0.14
					c16.5,7.91,32.55-4.33,32.71-4.46c0.13-0.1,0.32-0.08,0.42,0.05c0.1,0.13,0.08,0.32-0.05,0.42c-0.04,0.03-4.15,3.2-10.28,5.32
					c-5.67,1.96-14.27,3.42-23.07-0.8C384.33,166.3,384.28,166.24,384.25,166.18z"/>
			</g>
		</g>
		<g>
			<g>
				<path class="st0" d="M377.34,156.18c-2.78-6.73-2.75-13.34-2.1-18.12c0.9-6.5,3.13-11.09,3.15-11.14
					c0.07-0.15,0.25-0.21,0.4-0.14c0.15,0.07,0.21,0.25,0.14,0.4c-0.09,0.18-8.69,18.1,1.68,33.89c0.09,0.14,0.05,0.33-0.09,0.42
					c-0.14,0.09-0.33,0.05-0.42-0.09C378.97,159.68,378.06,157.93,377.34,156.18z"/>
			</g>
		</g>
		<g>
			<g>
				<path class="st0" d="M366.06,179.15c-0.04-0.1-0.03-0.23,0.05-0.32c0.11-0.12,0.3-0.13,0.43-0.02
					c8.43,7.56,18.95,5.05,19.06,5.03c0.16-0.04,0.33,0.06,0.37,0.22c0.04,0.16-0.06,0.33-0.22,0.37
					c-0.11,0.03-10.93,2.61-19.61-5.16C366.1,179.22,366.08,179.19,366.06,179.15z"/>
			</g>
		</g>
		<g>
			<g>
				<path class="st0" d="M357.68,166.58c-1.73-4.18-2.24-7.72-2.29-10.29c-0.1-4.34,1.01-6.88,1.06-6.99
					c0.07-0.15,0.25-0.22,0.4-0.15c0.15,0.07,0.22,0.25,0.15,0.4c-0.04,0.1-4.33,10.18,5.26,24.12c0.09,0.14,0.06,0.33-0.08,0.42
					c-0.14,0.09-0.33,0.06-0.42-0.08C359.95,171.37,358.63,168.88,357.68,166.58z"/>
			</g>
		</g>
		<g>
			<g>
				<path class="st0" d="M407.8,144.4c-0.01-0.01-0.01-0.03-0.01-0.04c-0.04-0.16,0.05-0.33,0.22-0.37
					c8.48-2.23,12.12-8.33,12.15-8.39c0.08-0.14,0.27-0.19,0.41-0.11c0.14,0.08,0.19,0.27,0.11,0.41c-0.04,0.06-3.8,6.38-12.52,8.67
					C408,144.62,407.85,144.54,407.8,144.4z"/>
			</g>
		</g>
		<g>
			<g>
				<path class="st0" d="M403.48,142.26c0-0.01-0.01-0.02-0.01-0.03c-1.62-5.15-1.14-9.28-0.45-11.84c0.75-2.78,1.87-4.32,1.92-4.39
					c0.1-0.13,0.29-0.16,0.42-0.06c0.13,0.1,0.16,0.29,0.06,0.42c-0.04,0.06-4.37,6.12-1.37,15.69c0.05,0.16-0.04,0.33-0.2,0.38
					C403.7,142.48,403.54,142.4,403.48,142.26z"/>
			</g>
		</g>
	</g>
	<g>
		<g>
			<path class="st4" d="M361.56,60.77c-18.89,29.03-97.12,55.46-43.41,126.15c0.14,0.18,0.38,0.26,0.59,0.21
				c85.9-22.39,40.73-91.51,43.81-126.01C362.6,60.54,361.88,60.29,361.56,60.77z"/>
		</g>
		<g>
			<path class="st0" d="M315.18,174.39c19.1-20.63,40.74-95.77,40.96-96.52l0.77,0.22c-0.22,0.76-21.91,76.08-41.14,96.85
				L315.18,174.39z"/>
		</g>
	</g>
	<g>
		<path class="st0" d="M348.61,111.25c-0.04-0.07-0.07-0.16-0.06-0.26c0.01-0.25,0.23-0.45,0.48-0.43c0.07,0,6.8,0.3,12.99-4.63
			c0.2-0.16,0.49-0.12,0.64,0.07c0.16,0.19,0.13,0.49-0.07,0.64c-6.47,5.15-13.32,4.84-13.61,4.82
			C348.82,111.47,348.68,111.38,348.61,111.25z"/>
	</g>
	<g>
		<path class="st0" d="M337.17,101.67c-1.87-3.2-2.33-5.75-2.36-5.92c-0.04-0.25,0.12-0.49,0.37-0.53c0.25-0.04,0.48,0.12,0.53,0.37
			c0.01,0.07,1.3,7.01,8.19,12.33c0.2,0.15,0.24,0.44,0.08,0.64c-0.15,0.2-0.44,0.24-0.64,0.08
			C340.41,106.39,338.46,103.88,337.17,101.67z"/>
	</g>
	<g>
		<path class="st0" d="M342.36,128.09c-0.04-0.07-0.07-0.16-0.06-0.26c0.01-0.25,0.23-0.45,0.48-0.43c0.09,0,9.61,0.43,18.35-6.53
			c0.2-0.16,0.49-0.12,0.64,0.07c0.16,0.19,0.13,0.49-0.07,0.64c-9.03,7.19-18.87,6.74-18.97,6.73
			C342.57,128.31,342.43,128.22,342.36,128.09z"/>
	</g>
	<g>
		<path class="st0" d="M336.09,144.18c-0.05-0.09-0.08-0.2-0.05-0.32c0.05-0.25,0.29-0.41,0.53-0.36c0.11,0.02,11.6,2.09,23.23-6.22
			c0.21-0.15,0.49-0.1,0.64,0.11c0.14,0.2,0.1,0.49-0.11,0.64c-11.96,8.55-23.81,6.39-23.93,6.37
			C336.26,144.38,336.15,144.29,336.09,144.18z"/>
	</g>
	<g>
		<path class="st0" d="M318.49,129.69c-1.34-2.3-2.56-4.95-3.5-7.99c-0.07-0.24,0.06-0.5,0.3-0.57c0.24-0.08,0.5,0.06,0.57,0.3
			c4.38,14.12,14.89,19.72,14.99,19.78c0.22,0.12,0.31,0.39,0.2,0.62c-0.12,0.22-0.39,0.31-0.62,0.2
			C330.35,141.98,323.56,138.37,318.49,129.69z"/>
	</g>
	<g>
		<path class="st0" d="M328.69,116.7c-2.37-4.06-3.07-7.31-3.08-7.37c-0.05-0.25,0.11-0.49,0.36-0.54c0.25-0.05,0.49,0.11,0.54,0.36
			c0.02,0.09,2.03,9.4,10.98,16.09c0.2,0.15,0.24,0.44,0.09,0.64c-0.15,0.2-0.44,0.24-0.64,0.09
			C333.04,123.06,330.42,119.67,328.69,116.7z"/>
	</g>
</g>
<g>
	<g>
		<g>
			<g>
				<path class="st5" d="M345.68,252.45l-93.26,20.28c-5.51,1.2-10.95-2.3-12.14-7.81L201.99,88.88c-1.2-5.51,2.3-10.95,7.81-12.14
					l93.26-20.28c5.51-1.2,10.95,2.3,12.14,7.81l38.28,176.04C354.68,245.81,351.19,251.25,345.68,252.45z"/>
				<path class="st1" d="M345.19,239.06l-97.89,21.29c-1.12,0.24-2.22-0.47-2.46-1.58L208.7,92.59c-0.24-1.12,0.47-2.22,1.58-2.46
					l97.89-21.29c1.12-0.24,2.22,0.47,2.46,1.58l36.13,166.17C347.02,237.72,346.31,238.82,345.19,239.06z"/>
				<path class="st6" d="M306.45,256.11l-16.83,3.66c-0.99,0.21-1.96-0.41-2.18-1.4l0,0c-0.21-0.99,0.41-1.96,1.4-2.18l16.83-3.66
					c0.99-0.22,1.96,0.41,2.18,1.4h0C308.07,254.92,307.44,255.89,306.45,256.11z"/>
				<g>
					<path class="st6" d="M265.05,73.08l-20.44,4.44c-0.85,0.18-1.68-0.35-1.87-1.2l0,0c-0.18-0.85,0.35-1.68,1.2-1.87l20.44-4.44
						c0.85-0.18,1.68,0.35,1.87,1.2l0,0C266.43,72.06,265.9,72.89,265.05,73.08z"/>
					<path class="st3" d="M272.92,69.76c0.18,0.85-0.35,1.68-1.2,1.87c-0.85,0.18-1.68-0.35-1.87-1.2s0.35-1.68,1.2-1.87
						C271.9,68.38,272.73,68.92,272.92,69.76z"/>
				</g>
			</g>
			<g>
				<path class="st7" d="M295.38,108.77l0.03-0.02l0.06,0.28l16.72,76.91c0.43,1.95-0.25,3.88-1.59,5.19c0,0,0,0-0.01,0.01
					c-0.24,0.21-0.49,0.43-0.75,0.61c-0.07,0.06-0.17,0.09-0.25,0.15c-0.21,0.12-0.41,0.25-0.65,0.35
					c-0.32,0.13-0.66,0.25-1.03,0.33l-19.24,4.18l6.19,28.47l28.78,18.5l21.54-4.68c1.12-0.24,1.83-1.35,1.58-2.46l-1.3-5.98
					l-0.53-2.42L322.4,124.48l-28.83-18.53C294.43,106.66,295.07,107.63,295.38,108.77z"/>
				<path class="st8" d="M299.06,111.14c-0.31-1.14-0.96-2.11-1.81-2.82l-1.19-0.76c-0.46-0.22-0.95-0.38-1.46-0.47
					c0.35,0.51,0.62,1.07,0.79,1.69l0.03-0.02l0.06,0.28l16.72,76.91c0.43,1.95-0.25,3.88-1.59,5.19c0,0,0,0-0.01,0.01
					c-0.24,0.21-0.49,0.43-0.75,0.61c-0.07,0.06-0.17,0.09-0.25,0.15c-0.21,0.12-0.41,0.25-0.65,0.35
					c-0.32,0.13-0.66,0.25-1.03,0.33l-19.24,4.18l6.19,28.47l3.68,2.36l-6.19-28.47l19.24-4.18c0.36-0.08,0.7-0.2,1.03-0.33
					c0.23-0.11,0.44-0.23,0.65-0.35c0.08-0.05,0.18-0.09,0.25-0.15c0.27-0.18,0.52-0.4,0.75-0.61c0-0.01,0.01-0.01,0.01-0.01
					c1.35-1.31,2.02-3.24,1.59-5.19l-16.72-76.91l-0.06-0.28L299.06,111.14z"/>
				<g>
					<g>
						<g>
							<g>
								<g>
									<g>
										<g>
											<g>
												<g>
													<g>
														<path class="st0" d="M295.38,108.77c-0.4-1.47-1.35-2.66-2.6-3.37c-1.16-0.68-2.55-0.95-3.97-0.65l-0.01,0
															l-117.13,25.47l-0.01,0c-1.37,0.3-2.5,1.1-3.28,2.15c0,0.01-0.01,0.02-0.01,0.02c-0.01,0.02-0.03,0.03-0.05,0.06
															l0.02,0c-0.45,0.62-0.77,1.33-0.94,2.07c-0.01,0.06,0,0.13-0.02,0.19c-0.06,0.32-0.1,0.64-0.11,0.97
															c0,0.31,0.04,0.62,0.09,0.93l-0.04-0.01l0.06,0.28l16.72,76.91c0.35,1.6,1.39,2.86,2.71,3.62l-0.02,0.02
															c0.05,0.03,0.11,0.05,0.16,0.07c0.02,0.01,0.04,0.03,0.06,0.04l0.01-0.01c1.12,0.58,2.42,0.82,3.74,0.54l74.17-16.13
															l29.93,23.3l-6.19-28.47l19.24-4.18c0.36-0.08,0.7-0.2,1.03-0.33c0.23-0.11,0.44-0.23,0.65-0.35
															c0.08-0.06,0.18-0.09,0.25-0.15c0.27-0.18,0.52-0.4,0.75-0.61c0-0.01,0.01-0.01,0.01-0.01
															c1.35-1.31,2.02-3.24,1.59-5.19l-16.72-76.91l-0.06-0.28L295.38,108.77z"/>
													</g>
												</g>
											</g>
										</g>
									</g>
								</g>
							</g>
						</g>
					</g>
				</g>
			</g>
			<g>
				<g>
					<g>
						<g>
							<g>
								<g>
									<g>
										<g>
											<g>
												<g>
													<g>
														<g>
															<path class="st4" d="M207.38,197.9c0.59,0.41,1.28,0.59,1.97,0.44l68.77-14.95c1.47-0.32,2.37-2.01,1.99-3.75
																l-9.7-44.62c-0.2-0.93-0.73-1.68-1.4-2.14l-30.47,34.1L207.38,197.9z"/>
														</g>
													</g>
												</g>
											</g>
										</g>
									</g>
									<g>
										<g>
											<g>
												<g>
													<g>
														<g>
															<path class="st4" d="M207.49,197.97l31.05-30.99l-41.85-18.41c-0.43,0.7-0.62,1.63-0.41,2.57l9.7,44.62
																C206.19,196.73,206.77,197.51,207.49,197.97z"/>
														</g>
													</g>
												</g>
											</g>
										</g>
									</g>
								</g>
							</g>
							<g>
								<g>
									<g>
										<g>
											<g>
												<g>
													<path class="st9" d="M207.38,197.9c0.59,0.41,1.28,0.59,1.97,0.44l68.77-14.95c0.69-0.15,1.25-0.61,1.61-1.22
														l-41.19-15.19L207.38,197.9z"/>
												</g>
											</g>
										</g>
									</g>
								</g>
							</g>
						</g>
					</g>
					<path class="st10" d="M238.54,166.97l-41.85-18.41c-0.43,0.7-0.62,1.63-0.41,2.57l0.7,3.21l37.28,20.15
						c1.83,0.99,4,1.28,6.1,0.82c2.11-0.46,3.96-1.62,5.21-3.28l25.54-33.81l-0.7-3.21c-0.2-0.93-0.73-1.68-1.4-2.14L238.54,166.97z
						"/>
					<g>
						<g>
							<g>
								<g>
									<g>
										<g>
											<path class="st11" d="M238.54,166.97l30.47-34.1c-0.59-0.41-1.28-0.59-1.97-0.44l-68.77,14.95
												c-0.69,0.15-1.25,0.61-1.61,1.22L238.54,166.97z"/>
										</g>
									</g>
								</g>
							</g>
						</g>
					</g>
					<path class="st4" d="M269.01,132.87c-0.59-0.41-1.28-0.59-1.97-0.44l-68.77,14.95c-0.69,0.15-1.25,0.61-1.61,1.22l0,0
						c-0.02,0.03-0.03,0.06-0.05,0.09l39.92,21.58c1.7,0.92,4.05,0.41,5.21-1.13l27.36-36.21
						C269.07,132.92,269.04,132.89,269.01,132.87z"/>
				</g>
				<g>
					<path class="st3" d="M281.66,132.06c1.68,7.75-3.23,15.4-10.98,17.08c-7.75,1.68-15.4-3.23-17.08-10.98
						c-1.68-7.75,3.23-15.4,10.98-17.08C272.32,119.39,279.97,124.31,281.66,132.06z"/>
					<g>
						<path class="st0" d="M269.14,144.04c-0.29,0.06-0.58-0.12-0.64-0.42l-2.6-12.11c-0.06-0.3-0.37-0.5-0.66-0.43
							c-0.11,0.02-0.21,0.08-0.29,0.17l-1.77,2.18c-0.08,0.1-0.18,0.16-0.31,0.19c-0.16,0.03-0.33-0.01-0.46-0.11l-1.15-0.94
							c-0.11-0.09-0.18-0.22-0.2-0.36c-0.01-0.14,0.03-0.29,0.12-0.4l4.11-5.01c0.08-0.09,0.19-0.16,0.3-0.19l2.11-0.45
							c0.29-0.06,0.58,0.12,0.64,0.42l3.5,16.32c0.06,0.29-0.12,0.58-0.42,0.64L269.14,144.04z"/>
					</g>
				</g>
			</g>
		</g>
	</g>
	<path class="st12" d="M329,47.62c-0.75,0-1.43-0.43-1.73-1.1c-3.12-6.87-9.27-10.97-16.45-10.97c-2.42,0-4.85,0.48-7.23,1.42
		c-0.22,0.09-0.45,0.13-0.69,0.13c-0.83,0-1.56-0.54-1.82-1.33l-0.03-0.1c-0.3-0.93,0.15-1.96,1.03-2.34
		c3.04-1.33,6.16-2.01,9.27-2.01c8.57,0,16.06,5.22,19.53,13.61c0.37,0.89-0.02,1.95-0.88,2.4l-0.1,0.05
		C329.63,47.54,329.32,47.62,329,47.62z"/>
	<path class="st12" d="M319.93,53.42c-0.7,0-1.36-0.4-1.73-1.03c-1.8-3.14-4.97-5.01-8.47-5.01c-0.97,0-1.95,0.14-2.92,0.42
		c-0.19,0.06-0.39,0.08-0.59,0.08c-0.85,0-1.59-0.53-1.85-1.31l-0.05-0.16c-0.32-0.99,0.2-2.04,1.18-2.4
		c1.58-0.58,3.18-0.87,4.78-0.87c4.94,0,9.24,2.78,11.51,7.42c0.46,0.94,0.1,2.06-0.81,2.55l-0.16,0.08
		C320.53,53.35,320.23,53.42,319.93,53.42z"/>
</g>
<path class="st13" d="M92.85,272.96h3.21l7.01-18.45h25.24l-7.01,18.45h3.21l45.79-120.59h-3.21l-3.29,8.66h-25.24l3.29-8.66h-3.21
	l-3.29,8.66h-0.11v0.29L92.85,272.96z M156.93,179.12h-25.24l5.73-15.1h25.24L156.93,179.12z M150.06,197.22h-25.24l5.73-15.1h25.24
	L150.06,197.22z M143.18,215.32h-25.24l5.73-15.1h25.24L143.18,215.32z M136.31,233.41h-25.24l5.73-15.1h25.24L136.31,233.41z
	 M104.2,251.51l5.73-15.1h25.24l-5.73,15.1H104.2z"/>
<g>
	<path class="st13" d="M60.37,151.64c-0.27,0-0.52-0.1-0.71-0.29l-3.58-3.58c-0.39-0.39-0.39-1.03,0-1.42
		c0.19-0.19,0.44-0.29,0.71-0.29c0.27,0,0.52,0.1,0.71,0.29l2.32,2.32c0.15,0.15,0.35,0.23,0.56,0.23s0.41-0.08,0.56-0.23l5.9-5.9
		c0.19-0.19,0.44-0.29,0.71-0.29c0.27,0,0.52,0.1,0.71,0.29c0.39,0.39,0.39,1.03,0,1.42l-7.17,7.17
		C60.89,151.53,60.64,151.64,60.37,151.64z"/>
	<path class="st13" d="M62.16,164.18c-9.45,0-17.14-7.69-17.14-17.14s7.69-17.14,17.14-17.14s17.14,7.69,17.14,17.14
		S71.61,164.18,62.16,164.18z M62.16,131.92c-8.34,0-15.13,6.79-15.13,15.13s6.79,15.13,15.13,15.13s15.13-6.79,15.13-15.13
		S70.51,131.92,62.16,131.92z"/>
</g>
<g>
	<g>
		
			<rect x="419.13" y="259.6" transform="matrix(-0.8317 0.5552 -0.5552 -0.8317 915.3924 245.3942)" class="st14" width="2.75" height="3.65"/>
	</g>
	<path class="st15" d="M402.71,212.08c0,0,2.92-1.88,7.26,29.62c0.09,0.66,0.03,1.41,0.43,1.94c4.24,5.61,9.21,12.43,11.97,17.8
		l-2.28,2.01l-16.79-18.54l-9.8-28.97L402.71,212.08z"/>
	<g>
		<path class="st14" d="M369.03,197.28c0.33-0.01,1.89,0.09,2.16-0.07c0.36-0.2-0.01-0.23,0.16-0.61c0.13-0.29-0.39-1.08-0.41-1.42
			c-0.05-1.11-0.98-1.96-2.09-1.91c-1.1,0.05-2.92-1.42-2.88-0.32C366.03,194.07,367.92,197.33,369.03,197.28z"/>
	</g>
	<polygon class="st16" points="384.46,189.45 378.12,199.73 371.4,195.4 369.62,198.14 378.75,205.93 385.5,198.04 	"/>
	<polygon class="st17" points="369.48,195.76 373.22,195.6 369.37,191.38 365.63,191.53 	"/>
	<path class="st16" d="M393.04,183.81c0,0-8.37,0.61-9.11,7.6c-0.74,6.99,0.64,25.1,0.64,25.1s-0.21,5.3,4.45,7.52l4.77-16.74
		L393.04,183.81z"/>
	<g>
		
			<rect x="390.19" y="264.92" transform="matrix(-1 -1.224647e-16 1.224647e-16 -1 783.1286 533.504)" class="st14" width="2.75" height="3.65"/>
	</g>
	<path class="st15" d="M397.81,208.68c0,0,2.42,2.23-4.88,59.64l-2.91,0.11l-2.35-58.99L397.81,208.68z"/>
	<path class="st0" d="M406.29,193.96c0,0,1.91-5.48-1.59-7.86c-3.5-2.38-13.57-2.6-16.58,1.85c-2.78,4.1-1.21,20.89-0.58,28.68
		c0,0,9.96,2.22,19.49-0.64C407.03,215.99,404.7,207.14,406.29,193.96z"/>
	<g>
		<path class="st14" d="M392.8,179.4c0,0,0.5,2.93-0.68,6.08c-1.36,3.66,5.7,3.03,6.58,1.08c0,0,0.45-0.61-0.21-1.79
			c-0.66-1.18-2.07-5.97-0.48-8.55L392.8,179.4z"/>
		<path class="st18" d="M392.71,183.25c0.25-1.49,0.2-2.74,0.14-3.38l0.75-0.46l3.87-1.84c-0.12,0.51-0.18,1.04-0.2,1.59
			C396.61,180.5,395.12,182.33,392.71,183.25z"/>
		<path class="st14" d="M388.58,175.77c0.85,3.49,3.29,5.9,5.47,5.37c2.17-0.53,4.7-4.54,3.85-8.04c-0.85-3.49-4.74-5.14-6.92-4.61
			C388.8,169.02,387.73,172.28,388.58,175.77z"/>
	</g>
	<path class="st17" d="M386.9,172.33c0,0,0.13,2.01,7.39-0.95c0,0,1.97-0.78,1.71,4.08l0.62,0.64c0,0-0.04-2.01,0.81-1.68
		c0.84,0.33,0.7,1.22,0.03,3.09c0,0-0.03,1.31,0.24,1.74c0,0,2.54,0.46,1.1-2.51c0,0,3.79-7.88-2.23-8.09
		C396.56,168.66,388.2,166.32,386.9,172.33z"/>
	<path class="st16" d="M398.23,183.89c0,0-2.22,3.92-0.95,14.19l1.48,16.15c0,0,0.08,7.79,5.72,8.34h5.08c0,0-2.86-19.83-2.65-31.38
		C406.92,191.2,407.45,183.57,398.23,183.89z"/>
	<g>
		<g>
			
				<rect x="409.99" y="212.82" transform="matrix(-0.9696 -0.2446 0.2446 -0.9696 757.1904 522.9265)" class="st14" width="2.15" height="3.24"/>
			
				<ellipse transform="matrix(0.1142 -0.9935 0.9935 0.1142 147.5852 600.1508)" class="st14" cx="410.34" cy="217.31" rx="2.15" ry="2.15"/>
		</g>
		<polygon class="st16" points="403.88,192.75 411.79,199.85 409.66,213.82 412.71,214.81 417.46,198.76 405.35,186.42 		"/>
	</g>
	<path class="st1" d="M392.78,191.84c0.67-0.16,1.18-0.77,1.18-1.49c0-0.85-0.69-1.54-1.54-1.54s-1.54,0.69-1.54,1.54
		c0,0.35,0.13,0.68,0.33,0.94c-0.5,1.46-1.5,5.45-1.07,13.44l1.74,1.51l1.96-1.57C393.83,204.67,392.22,195.77,392.78,191.84z"/>
	<polygon class="st0" points="392.68,188.74 393.91,192.27 395.46,191.04 394.67,189.1 393.16,188.38 	"/>
	<path class="st0" d="M392.83,188.84l-2.22,2.07l-0.85-1.22c0,0,0.5-1.06,0.98-1.11c0.48-0.05,1.83-0.13,1.83-0.13L392.83,188.84z"
		/>
	<path class="st16" d="M421.67,260.64c0,0,2.53,0.73,2.7,3.67l-8.02,5.35c0,0-1.76-2.83,3.08-5.11l0.23-1.65
		C419.67,262.9,422.07,262.86,421.67,260.64z"/>
	<path class="st16" d="M392.97,266.75c0,0,1.69,2.01,0.21,4.55h-9.64c0,0,0.11-3.34,5.4-2.54l1.16-1.3
		C390.1,267.47,392.07,268.82,392.97,266.75z"/>
</g>
<g>
	<g>
		
			<rect x="196.44" y="111.5" transform="matrix(-0.9997 -0.0252 0.0252 -0.9997 392.3654 231.1485)" class="st14" width="2.41" height="3.2"/>
		<path class="st17" d="M198.87,113.13c0,0,1.44,1.8,0.08,3.99l-8.43-0.21c0,0,0.17-2.92,4.78-2.1l0.44-0.78
			C195.74,114.02,198.04,114.92,198.87,113.13z"/>
	</g>
	<g>
		
			<rect x="188.13" y="109.62" transform="matrix(-0.9997 -0.0252 0.0252 -0.9997 375.8003 227.1853)" class="st14" width="2.41" height="3.2"/>
		<path class="st17" d="M190.56,111.25c0,0,1.44,1.8,0.08,3.99l-8.43-0.21c0,0,0.17-2.92,4.78-2.1l0.44-0.78
			C187.43,112.15,189.73,113.04,190.56,111.25z"/>
	</g>
	<path class="st3" d="M211.68,69.33c1.34,2.19,4.67,9.08-3.56,12.8c-0.06,0.03-0.13,0.05-0.19,0.07l-14.2,3.55
		c-0.43,0.11-0.74,0.48-0.77,0.91l-1.73,23.07c-0.04,0.53-0.48,0.95-1.02,0.95h-1.5c-0.55,0-1-0.43-1.02-0.98l-1.05-26.46
		c-0.01-0.37,0.17-0.72,0.49-0.91L207.43,70c0.06-0.04,0.13-0.07,0.19-0.09l2.86-1C210.93,68.75,211.43,68.92,211.68,69.33z"/>
	<path class="st3" d="M220.96,70.17c1.18,1.82,5.24,9.2-3.41,13.09c-0.04,0.02-0.09,0.04-0.13,0.05l-15.67,4.11
		c-0.32,0.08-0.55,0.36-0.57,0.69l-1.76,23.49c-0.03,0.4-0.37,0.71-0.77,0.71h-1.97c-0.41,0-0.75-0.33-0.77-0.74l-1.07-26.94
		c-0.01-0.23,0.08-0.45,0.25-0.6l13.83-12.53c0.12-0.1,0.26-0.17,0.41-0.19l10.88-1.48C220.51,69.78,220.8,69.92,220.96,70.17z"/>
	<path class="st4" d="M202.99,46.85l-7.58,16.85c-0.1,0.22-0.05,0.47,0.11,0.64l3.39,3.48c0.12,0.12,0.29,0.19,0.46,0.17l2.59-0.19
		c0.43-0.03,0.68-0.51,0.45-0.88l-1.65-2.67c-0.1-0.17-0.11-0.38-0.02-0.56l3.32-6.62c0.05-0.1,0.07-0.21,0.06-0.32l-0.78-7.98
		C203.28,48.19,203.23,46.31,202.99,46.85z"/>
	<path class="st4" d="M221.9,51.94c0,0,1.79-5.15-1.49-7.39c-3.29-2.24-14.32-1.17-16.62,1.02c-3.09,2.94-1.37,19.84-0.77,27.16
		c0,0,10.63,1.41,19.59-1.28C222.59,71.45,220.4,64.33,221.9,51.94z"/>
	<g>
		<path class="st14" d="M209.22,38.26c0,0,0.47,2.75-0.63,5.71c-1.28,3.44,5.35,2.85,6.19,1.02c0,0,0.42-0.58-0.2-1.68
			c-0.62-1.11-1.95-5.61-0.45-8.04L209.22,38.26z"/>
		<path class="st18" d="M213.44,37.85c0.02-0.56,0.1-1.11,0.25-1.61l-4.45,2.2c0.02,0.14,0.04,0.35,0.05,0.63
			c0,0.05,0.01,0.09,0.01,0.14c0.03,0.68,0.01,1.68-0.19,2.81c-0.02,0.18-0.04,0.28-0.04,0.28
			C211.65,41.58,212.88,39.41,213.44,37.85z"/>
		<path class="st14" d="M205.45,34.85c0.89,3.28,3.26,5.48,5.3,4.93c2.04-0.55,4.32-4.41,3.43-7.69c-0.89-3.28-4.61-4.73-6.65-4.18
			C205.49,28.47,204.56,31.58,205.45,34.85z"/>
	</g>
	<path class="st19" d="M202.85,29.51c0,0-0.42,3.83,7.87,1.04c0,0,1.84-0.78,1.72,3.81l0.6,0.59c0,0-0.09-1.9,0.72-1.6
		c0.81,0.29,0.69,1.14,0.11,2.92c0,0-0.7,1.36-0.43,1.76c0,0,2.54,0.42,1.68-2.52c0,0,3.38-7.54-2.31-7.58
		C212.8,27.93,203.63,23.15,202.85,29.51z"/>
	<g>
		<polygon class="st5" points="211.53,76.29 219.03,72.05 202.59,71.66 195.38,75.86 		"/>
		<polygon class="st5" points="195.38,75.86 211.53,76.29 209.17,65.77 193.01,65.35 		"/>
	</g>
	<g>
		<g>
			
				<rect x="216.16" y="69.99" transform="matrix(-0.2598 -0.9657 0.9657 -0.2598 204.5177 300.1138)" class="st14" width="2.24" height="3.38"/>
			<path class="st14" d="M214.42,73.04c1.94,0.73,2.36,0.05,2.04-1.14c-0.32-1.19-1.55-1.9-2.74-1.58
				c-1.19,0.32-2.49,1.84-2.17,3.03C211.87,74.54,213.27,72.61,214.42,73.04z"/>
		</g>
		<path class="st4" d="M218.57,53.76l6.65,11.1c0.21,0.35,0.09,0.8-0.26,1l-7.78,4.54c-0.3,0.18-0.44,0.55-0.32,0.88l0.43,1.16
			c0.14,0.37,0.55,0.56,0.92,0.44l13.84-4.79c0.42-0.14,0.61-0.62,0.41-1.02l-10.51-20.59c-0.27-0.53-0.51,0.6-0.77,1.14l-2.64,5.46
			C218.44,53.29,218.45,53.55,218.57,53.76z"/>
	</g>
</g>
<g>
	<g>
		<g>
			
				<rect x="161.5" y="212.05" transform="matrix(0.8713 -0.4908 0.4908 0.8713 -83.7811 107.1212)" class="st14" width="1.61" height="2.44"/>
			<path class="st14" d="M161.99,215.99c-0.44-0.78-0.16-1.76,0.61-2.2c0.78-0.44,1.76-0.16,2.2,0.61c0.44,0.78,0.16,1.76-0.61,2.2
				C163.41,217.04,162.43,216.76,161.99,215.99z"/>
		</g>
		<polygon class="st4" points="167.07,195.56 159.17,202.56 163.26,212.77 161.35,213.63 155.37,202.26 165.06,190.31 		"/>
	</g>
	<g>
		<g>
			
				<rect x="179.72" y="213.1" transform="matrix(-0.8713 -0.4908 0.4908 -0.8713 232.6179 489.6434)" class="st14" width="1.61" height="2.44"/>
			
				<ellipse transform="matrix(0.9997 -0.0262 0.0262 0.9997 -5.6111 4.7816)" class="st14" cx="179.44" cy="216.25" rx="1.61" ry="1.61"/>
		</g>
		<polygon class="st4" points="175.76,196.61 183.66,203.61 179.57,213.82 181.48,214.68 187.46,203.31 177.77,191.36 		"/>
	</g>
	<path class="st16" d="M174.59,177.58c-0.27,0.1-0.54,0.22-0.79,0.36c-2.64,1.45-4.26,4.45-5.12,7.23
		c-0.51,1.65-0.68,3.44-0.18,5.09c0.49,1.65,1.71,3.13,3.35,3.68c1.63,0.55,3.64,0.01,4.58-1.43c0.71-1.09,0.77-2.52,1.52-3.58
		c0.64-0.9,1.77-1.58,1.83-2.68c0.05-0.88-0.64-1.63-0.77-2.5c-0.16-1.13,0.64-2.19,0.7-3.34c0.06-1.3-0.92-2.5-2.15-2.93
		C176.6,177.15,175.55,177.23,174.59,177.58z"/>
	<g>
		<path class="st14" d="M162.01,268.09l0.44-0.54l-0.07-2.94h2.01l-0.29,2.83c0,0,2.44,1.35,2.26,4.56l-1.22,0.13
			C165.13,272.14,162.89,268.23,162.01,268.09z"/>
		<path class="st17" d="M162.01,268.09c0,0-1.1,1-0.19,2.24l0.57,2.63h0.62l0.48-2.48c0,0,1.05,0.1,0.91,2.48h3.29
			c0,0,0.53-0.62-1.38-1.24l-1-0.19C165.3,271.53,164.2,268.62,162.01,268.09z"/>
	</g>
	<g>
		<path class="st14" d="M174.61,268.09l0.44-0.54l-0.07-2.94h2.01l-0.29,2.83c0,0,2.44,1.35,2.26,4.56l-1.22,0.13
			C177.74,272.14,175.5,268.23,174.61,268.09z"/>
		<path class="st17" d="M174.61,268.09c0,0-1.1,1-0.19,2.24l0.57,2.63h0.62l0.48-2.48c0,0,1.05,0.1,0.91,2.48h3.29
			c0,0,0.53-0.62-1.38-1.24l-1-0.19C177.91,271.53,176.81,268.62,174.61,268.09z"/>
	</g>
	<path class="st1" d="M165.02,212.1c0,0-3.69-5.4-2.79,54.4l2.35,0l7.84-51.93L165.02,212.1z"/>
	<path class="st1" d="M169.07,213.16c0,0-0.2,2.2,5.59,53.35h2.46l2.17-53.49L169.07,213.16z"/>
	<path class="st4" d="M170.05,191.16c-1.09,0.06-2.17,0.27-3.21,0.62c-1.06,0.36-2.52,1.18-2.72,2.38
		c-0.24,1.48,0.29,2.79,0.88,4.11c0.72,1.61,1.3,3.13,1.81,4.81c0.51,1.69,0.56,3.64-0.42,5.11c-0.85,1.28-2.07,2.19-2.29,3.72
		c-0.12,0.87,0.53,2.01,2.87,3.31c1.93,1.07,4.1,1.09,6.3,1.09c3.72,0,5.52-1.09,5.92-2.14c0.48-1.26,0.18-2.69-0.29-3.96
		c-0.46-1.27-1.08-2.51-1.23-3.86c-0.39-3.51,2.47-6.96,1.48-10.35c-0.6-2.03-2.49-3.45-4.48-4.17
		C173.21,191.29,171.62,191.07,170.05,191.16z"/>
	<g>
		<path class="st14" d="M174.53,187.36c0,0-0.95,2.54,1.02,5.66c1.97,3.12-4.53,3.04-5.37,1.2c0,0-0.42-0.58,0.2-1.69
			c0.63-1.11,1.96-5.63,0.46-8.07L174.53,187.36z"/>
		<path class="st18" d="M171.28,185.55c0,0,0.83,1.89,3.01,3.35c0,0,0.01-0.69,0.15-1.16L171.28,185.55z"/>
		<path class="st14" d="M178.41,182.42c0,3.09-1.56,5.59-3.48,5.59c-1.92,0-4.84-2.84-4.84-5.93c0-3.09,2.92-5.25,4.84-5.25
			C176.86,176.83,178.41,179.33,178.41,182.42z"/>
	</g>
	<path class="st16" d="M177.11,177c0.01,0.1,0.01,0.21,0,0.32c-0.09,1.6-1.74,2.59-3.18,3.3c-1.44,0.71-3.08,1.72-3.15,3.32
		c-0.04,1.04,0.62,1.96,0.98,2.94c0.66,1.8,0.18,3.94-1.09,5.35c-1.16,1.29-2.72,3.38-4.6,3.4c-1.42,0.02-2.8-0.95-3.26-2.3
		c-0.55-1.62,0.18-3.39,1.07-4.85c0.9-1.46,2.01-2.86,2.31-4.55c0.24-1.33-0.06-2.72,0.28-4.03c0.44-1.69,1.87-2.93,3.32-3.91
		c1.28-0.86,2.74-1.64,4.29-1.56C175.53,174.52,176.99,175.61,177.11,177z"/>
	<path class="st16" d="M163.49,190.03c-0.78,1.35-0.8,3.11-0.06,4.49s2.22,2.32,3.78,2.42c0.91,0.06,1.81-0.16,2.72-0.22
		c1.1-0.08,2.2,0.05,3.3,0.03c1.44-0.03,2.9-0.33,4.12-1.07c1.23-0.75,2.2-1.98,2.42-3.4c0.16-1.03-0.06-2.09,0.09-3.12
		c0.2-1.33,0.99-2.8,0.23-3.92c-0.24-0.36-0.61-0.61-0.86-0.95c-0.76-1.01-0.36-2.45-0.61-3.69c-0.37-1.81-1.35-3.44-3.18-3.71
		c-1.83-0.27-4.51,0.62-6.27,1.18c-1.39,0.44-2.05,8.68-4.51,10.87c-0.54,0.26-0.96,0.76-1.1,1.34L163.49,190.03z"/>
	<polygon class="st20" points="164.58,266.5 170.41,227.9 169.27,219.16 	"/>
</g>
<g>
	<g>
		<rect x="133.61" y="209.21" class="st14" width="2.63" height="3.5"/>
	</g>
	<path class="st3" d="M128.34,167.58l6.02,20.38l-1.22,25.56l3.18,0.12l4.73-25.99c0,0-2.43-24.42-5.47-28.88l-9.53,1.22
		L128.34,167.58z"/>
	<polygon class="st14" points="136.86,135.14 144.5,147.82 153.19,141.77 153.92,143.82 143.77,153.44 135.59,144.15 	"/>
	<g>
		<path class="st14" d="M154.88,144.12c-1.13-0.05-2-1-1.95-2.13c0.05-1.13,1-2,2.13-1.95c1.13,0.05,2.98-1.45,2.93-0.33
			C157.93,140.84,156,144.17,154.88,144.12z"/>
	</g>
	<polygon class="st17" points="154.42,142.57 150.6,142.41 154.52,138.1 158.34,138.26 	"/>
	<g>
		<rect x="122.1" y="209.21" class="st14" width="2.63" height="3.5"/>
	</g>
	<path class="st3" d="M121.16,154.79c0,0-4.46-3.29,0.9,57.09l2.77,0.41l5.33-55.22L121.16,154.79z"/>
	<path class="st16" d="M119.34,140.37c0,0-1.82-5.24,1.52-7.52c3.34-2.28,12.98-2.48,15.87,1.77c2.66,3.92,1.16,19.99,0.55,27.44
		c0,0-9.53,2.13-18.65-0.61C118.63,161.45,120.86,152.99,119.34,140.37z"/>
	<g>
		<path class="st14" d="M132.25,126.45c0,0-0.48,2.8,0.65,5.81c1.31,3.5-5.45,2.9-6.3,1.03c0,0-0.43-0.59,0.2-1.71
			c0.63-1.13,1.98-5.71,0.46-8.18L132.25,126.45z"/>
		<path class="st18" d="M127.85,125.02c0.08,0.46,0.11,0.94,0.11,1.43c0.72,1.32,2.06,3.06,4.42,3.9c-0.26-1.39-0.24-2.58-0.19-3.27
			L127.85,125.02z"/>
		<path class="st14" d="M136.3,122.66c-0.58,3.52-2.82,6.07-5,5.72c-2.19-0.36-4.98-4.14-4.4-7.66c0.58-3.52,4.31-5.43,6.49-5.07
			C135.57,116.01,136.87,119.15,136.3,122.66z"/>
	</g>
	<path class="st17" d="M137.7,119.14c0,0-1.03,2.32-7.59,0.36c0,0-1.78-1.38-1.17,3.4l-0.57,0.68c0,0-0.11-1.99-0.92-1.6
		c-0.81,0.39-0.6,1.26,0.2,3.06l0,0c-0.96-0.46-1.24-0.93-1.64-1.92c-0.91-2.24-1.83-7.58,1.83-6.88
		C127.85,116.25,134.58,112.99,137.7,119.14z"/>
	<g>
		<g>
			
				<rect x="121.68" y="160.08" transform="matrix(0.8434 -0.5373 0.5373 0.8434 -67.6298 91.2531)" class="st14" width="2.06" height="3.1"/>
			<path class="st14" d="M122.5,165.12c-0.61-0.96-0.33-2.23,0.63-2.84c0.96-0.61,2.23-0.33,2.84,0.63
				c0.61,0.96,0.33,2.23-0.63,2.84C124.38,166.36,123.11,166.08,122.5,165.12z"/>
		</g>
		<polygon class="st14" points="122.71,139.77 117.66,148.6 124.4,162.25 122.68,163.51 112.18,149.31 119.53,134.73 		"/>
	</g>
	<path class="st16" d="M120.76,133.16c0,0-2.04,0.84-5.42,8.28c0,0,1.32,2.53,4.71,3.81l3.32-3.74c0,0,2.26-1.87,2.12-2.3
		c-0.14-0.43-1.49-3.27-1.75-3.82C123.47,134.82,120.76,133.16,120.76,133.16z"/>
	<path class="st16" d="M135.63,133.53c0,0,3.8,3.34,5.52,7.14c0,0-1.49,2.23-4.46,3.45l-2.43-4.76l0.71-5.22L135.63,133.53z"/>
	<path class="st17" d="M133.59,210.96c0,0-1.62,1.93-0.2,4.36h9.22c0,0-0.1-3.19-5.17-2.43l-1.06-1.19
		C136.38,211.69,134.45,212.94,133.59,210.96z"/>
	<path class="st17" d="M122.07,210.96c0,0-1.62,1.93-0.2,4.36h9.22c0,0-0.1-3.19-5.17-2.43l-1.06-1.19
		C124.87,211.69,122.93,212.94,122.07,210.96z"/>
</g>
<g>
	<g>
		<path class="st21" d="M47.9,213.5c0.49,1.65-0.45,3.37-2.1,3.86c-1.65,0.49-3.37-0.45-3.86-2.1c-0.49-1.65,0.45-3.37,2.1-3.86
			C45.69,210.92,47.42,211.86,47.9,213.5z"/>
	</g>
	<g>
		<path class="st21" d="M58.04,199.85l-4.73-1.31c-1.04-0.29-1.65-1.37-1.37-2.41l1.31-4.73c0.29-1.04,1.37-1.66,2.41-1.37
			l4.73,1.31c1.04,0.29,1.66,1.37,1.37,2.41l-1.31,4.73C60.17,199.52,59.08,200.14,58.04,199.85z"/>
	</g>
</g>
<g>
	<path class="st13" d="M463.06,143.55c-1.81,0-3.28-1.47-3.28-3.28v-18.81c0.01-0.01,0.02-0.05,0.02-0.1c0-0.05,0.01-0.1,0.03-0.14
		c0.02-0.05,0.03-0.09,0.06-0.13c0-0.01,0.04-0.08,0.04-0.09c-0.01,0.01-0.01,0.02,0,0.02c0.01,0,0.02-0.02,0.03-0.03
		c0.03-0.03,0.06-0.06,0.1-0.09c0.05-0.04,0.1-0.09,0.13-0.14l6.05-4.83c0.15-0.12,0.23-0.29,0.23-0.48v-11.14
		c0-1.27,1.02-2.31,2.28-2.31h23.63c1.26,0,2.28,1.04,2.28,2.31v11.14c0,0.19,0.08,0.36,0.23,0.48l6.09,4.87
		c0,0.01,0.04,0.06,0.09,0.1c0.04,0.03,0.07,0.06,0.1,0.1c0,0.01,0.06,0.06,0.07,0.07c-0.01-0.01-0.01-0.01-0.02-0.01
		c-0.01,0,0.01,0.02,0.02,0.05c0.02,0.04,0.04,0.08,0.06,0.13c0.01,0.05,0.02,0.09,0.03,0.14c0.01,0.06,0.02,0.11,0.03,0.15
		l-0.01,18.76c0,1.81-1.47,3.28-3.28,3.28H463.06z M493.94,138.1c0.19,0,0.37,0.08,0.51,0.21c0.28,0.28,0.28,0.74,0,1.02l-1.73,1.73
		c-0.18,0.18-0.23,0.44-0.13,0.67c0.1,0.23,0.32,0.38,0.57,0.38h4.91c1.01,0,1.84-0.83,1.84-1.84v-16.29c0-0.23-0.13-0.44-0.33-0.55
		c-0.09-0.05-0.19-0.07-0.29-0.07c-0.13,0-0.25,0.04-0.35,0.11l-15.29,10.59c-1.26,0.68-2.19,0.96-3.09,0.96
		c-0.9,0-1.83-0.28-3.02-0.92l-15.36-10.63c-0.1-0.07-0.23-0.11-0.35-0.11c-0.1,0-0.2,0.03-0.29,0.07c-0.2,0.11-0.33,0.32-0.33,0.54
		v16.29c0,1.01,0.83,1.84,1.84,1.84h2.24c0.16,0,0.32-0.07,0.43-0.18l3.62-3.62c0.14-0.14,0.32-0.21,0.51-0.21
		c0.19,0,0.37,0.07,0.51,0.21c0.28,0.28,0.28,0.74,0,1.02l-1.73,1.73c-0.18,0.18-0.23,0.44-0.13,0.67c0.1,0.23,0.32,0.38,0.57,0.38
		h4.24c0.16,0,0.32-0.06,0.44-0.18l3.62-3.62c0.14-0.14,0.32-0.21,0.51-0.21s0.37,0.08,0.51,0.21c0.28,0.28,0.28,0.74,0,1.02
		l-1.73,1.73c-0.18,0.18-0.23,0.44-0.13,0.67c0.1,0.23,0.32,0.38,0.57,0.38h4.24c0.16,0,0.32-0.07,0.43-0.18l3.62-3.62
		c0.14-0.14,0.32-0.21,0.51-0.21c0.19,0,0.37,0.07,0.51,0.21c0.28,0.28,0.28,0.74,0,1.02l-1.73,1.73c-0.18,0.18-0.23,0.44-0.13,0.67
		c0.1,0.23,0.32,0.38,0.57,0.38h4.24c0.16,0,0.32-0.06,0.44-0.18l3.62-3.62C493.57,138.17,493.75,138.1,493.94,138.1z
		 M468.75,103.42c-0.45,0-0.84,0.4-0.84,0.87v21.07c0,0.2,0.1,0.39,0.26,0.5l10.06,6.97c1.02,0.54,1.67,0.75,2.33,0.75
		c0.65,0,1.31-0.21,2.27-0.71l10.12-7c0.17-0.12,0.26-0.3,0.26-0.5v-21.07c0-0.47-0.38-0.87-0.84-0.87H468.75z M495.28,118.25
		c-0.09,0-0.18,0.02-0.27,0.06c-0.21,0.1-0.35,0.32-0.35,0.55v4.64c0,0.23,0.13,0.44,0.33,0.54c0.09,0.05,0.19,0.07,0.29,0.07
		c0.13,0,0.25-0.04,0.35-0.11l3.11-2.15c0.16-0.11,0.26-0.29,0.26-0.49c0.01-0.19-0.08-0.38-0.23-0.5l-3.11-2.49
		C495.56,118.3,495.42,118.25,495.28,118.25z M465.85,118.25c-0.14,0-0.28,0.05-0.38,0.13l-3.11,2.49c-0.15,0.12-0.24,0.31-0.23,0.5
		c0.01,0.19,0.1,0.37,0.27,0.48l3.11,2.15c0.1,0.07,0.22,0.11,0.35,0.11c0.1,0,0.2-0.02,0.29-0.07c0.2-0.11,0.33-0.32,0.33-0.54
		v-4.64c0-0.24-0.14-0.45-0.35-0.55C466.04,118.27,465.94,118.25,465.85,118.25z"/>
	<path class="st13" d="M477.89,111.45c-0.4,0-0.72-0.32-0.72-0.72s0.32-0.72,0.72-0.72h5.35c0.4,0,0.72,0.32,0.72,0.72
		s-0.32,0.72-0.72,0.72H477.89z"/>
	<path class="st13" d="M473.88,116.8c-0.4,0-0.72-0.32-0.72-0.72s0.32-0.72,0.72-0.72h13.38c0.4,0,0.72,0.32,0.72,0.72
		s-0.32,0.72-0.72,0.72H473.88z"/>
	<path class="st13" d="M473.88,122.15c-0.4,0-0.72-0.32-0.72-0.72c0-0.4,0.32-0.72,0.72-0.72h13.38c0.4,0,0.72,0.32,0.72,0.72
		c0,0.4-0.32,0.72-0.72,0.72H473.88z"/>
</g>
<g>
	<path class="st21" d="M402.48,52.9l-0.31-4.89c-0.07-1.08,0.76-2.01,1.84-2.08l4.89-0.31c1.08-0.07,2.01,0.76,2.08,1.84l0.31,4.89
		c0.07,1.08-0.76,2.01-1.84,2.08l-4.89,0.31C403.48,54.81,402.54,53.98,402.48,52.9z"/>
	<path class="st21" d="M401.92,63.96c-0.53,0.99-1.77,1.37-2.76,0.83s-1.37-1.77-0.83-2.76c0.53-0.99,1.77-1.37,2.76-0.83
		C402.08,61.73,402.45,62.97,401.92,63.96z"/>
	<path class="st21" d="M384.9,65.1c-0.81,1.51-2.69,2.08-4.2,1.27c-1.51-0.81-2.08-2.69-1.27-4.2c0.81-1.51,2.69-2.08,4.2-1.27
		C385.14,61.7,385.71,63.58,384.9,65.1z"/>
</g>
<g>
	<path class="st21" d="M462.94,199.09l-5.5,2.46c-0.65,0.29-1.42,0-1.71-0.65l-2.46-5.5c-0.29-0.65,0-1.42,0.65-1.71l5.5-2.46
		c0.65-0.29,1.42,0,1.71,0.65l2.46,5.5C463.88,198.03,463.59,198.79,462.94,199.09z"/>
	<path class="st21" d="M476.34,192.52c0.44,0.99,0,2.15-0.99,2.59c-0.99,0.44-2.15,0-2.59-0.99c-0.44-0.99,0-2.15,0.99-2.59
		C474.74,191.08,475.9,191.53,476.34,192.52z"/>
	<path class="st21" d="M467.18,210.98c0.7,1.56,0,3.4-1.57,4.1c-1.56,0.7-3.4,0-4.1-1.57c-0.7-1.56,0-3.4,1.57-4.1
		C464.64,208.71,466.48,209.41,467.18,210.98z"/>
</g>
</svg>
