<svg width="24" height="25" viewBox="0 0 24 25" fill="none" xmlns="http://www.w3.org/2000/svg">
<path fill-rule="evenodd" clip-rule="evenodd" d="M13.6584 3.30525C13.9411 3.19033 14.2652 3.25811 14.4781 3.47667L22.5372 11.7493C22.8155 12.035 22.8216 12.4885 22.551 12.7815L14.4919 21.5088C14.2824 21.7357 13.9553 21.811 13.6678 21.6985C13.3802 21.586 13.1909 21.3088 13.1909 21V16.3054C11.7619 16.1469 10.2574 16.2317 8.67349 16.5678C7.04152 16.9141 5.009 18.4286 2.5802 21.3934C2.37052 21.6493 2.01788 21.7376 1.71232 21.6107C1.40676 21.4838 1.22047 21.1716 1.25385 20.8424C1.61049 17.325 2.96003 14.3561 5.31143 11.9732L5.84527 12.5L5.31143 11.9732C7.49859 9.7568 10.1363 8.5479 13.1909 8.35925V4.00002C13.1909 3.69489 13.3758 3.42018 13.6584 3.30525ZM14.6909 5.8447V9.08352C14.6909 9.49542 14.3587 9.83024 13.9469 9.8335C10.9705 9.85704 8.462 10.9161 6.37912 13.0268L5.89229 12.5464L6.37911 13.0268C4.87776 14.5483 3.82883 16.3373 3.23562 18.4078C5.02867 16.5875 6.73693 15.4453 8.36216 15.1005C10.3414 14.6805 12.2434 14.6136 14.0621 14.9114C14.4247 14.9708 14.6909 15.2841 14.6909 15.6515V19.0823L20.9664 12.2865L14.6909 5.8447Z" fill="#33CCFF"/>
</svg>
