<svg width="22" height="20" viewBox="0 0 22 20" fill="none" xmlns="http://www.w3.org/2000/svg">
<path fill-rule="evenodd" clip-rule="evenodd" d="M12.6584 0.805253C12.9411 0.690329 13.2652 0.75811 13.4781 0.976673L21.5372 9.24932C21.8155 9.53499 21.8216 9.98849 21.551 10.2815L13.4919 19.0088C13.2824 19.2357 12.9553 19.311 12.6678 19.1985C12.3802 19.086 12.1909 18.8088 12.1909 18.5V13.8054C10.7619 13.6469 9.25742 13.7317 7.67349 14.0678C6.04152 14.4141 4.009 15.9286 1.5802 18.8934C1.37052 19.1493 1.01788 19.2376 0.712319 19.1107C0.406756 18.9838 0.220471 18.6716 0.253849 18.3424C0.610495 14.825 1.96003 11.8561 4.31143 9.47323L4.84527 10L4.31143 9.47323C6.49859 7.2568 9.13625 6.0479 12.1909 5.85925V1.50002C12.1909 1.19489 12.3758 0.920177 12.6584 0.805253ZM13.6909 3.3447V6.58352C13.6909 6.99542 13.3587 7.33024 12.9469 7.3335C9.97049 7.35704 7.462 8.41606 5.37912 10.5268L4.89229 10.0464L5.37911 10.5268C3.87776 12.0483 2.82883 13.8373 2.23562 15.9078C4.02867 14.0875 5.73693 12.9453 7.36216 12.6005C9.34139 12.1805 11.2434 12.1136 13.0621 12.4114C13.4247 12.4708 13.6909 12.7841 13.6909 13.1515V16.5823L19.9664 9.78648L13.6909 3.3447Z" fill="white"/>
</svg>
