<svg width="50" height="50" viewBox="0 0 50 50" fill="none" xmlns="http://www.w3.org/2000/svg">
<path d="M21.342 25.4533V28.676C20.9201 28.9807 20.469 29.2092 19.9885 29.3616C19.5119 29.51 18.9884 29.5843 18.4181 29.5843C17.7423 29.5843 17.1329 29.4807 16.5899 29.2737C16.0469 29.0628 15.5821 28.7698 15.1954 28.3948C14.8125 28.0158 14.5176 27.5627 14.3106 27.0353C14.1035 26.508 14 25.9279 14 25.2951C14 24.6544 14.0996 24.0704 14.2988 23.5431C14.502 23.0157 14.7891 22.5645 15.1602 22.1895C15.5313 21.8106 15.9825 21.5176 16.5138 21.3106C17.045 21.1035 17.6388 21 18.2951 21C18.6271 21 18.9357 21.0254 19.2209 21.0762C19.506 21.1231 19.7697 21.1934 20.0119 21.2871C20.2541 21.377 20.4787 21.4883 20.6858 21.6211C20.8928 21.75 21.0862 21.8965 21.2659 22.0606L20.9436 22.5762C20.8928 22.6543 20.8264 22.7051 20.7444 22.7286C20.6662 22.7481 20.5783 22.7286 20.4807 22.67C20.3869 22.6153 20.2795 22.5489 20.1584 22.4708C20.0373 22.3926 19.8889 22.3184 19.7131 22.2481C19.5412 22.1739 19.3361 22.1114 19.0978 22.0606C18.8634 22.0098 18.5841 21.9844 18.2599 21.9844C17.7872 21.9844 17.3595 22.0625 16.9767 22.2188C16.5938 22.3711 16.2677 22.5918 15.9981 22.8809C15.7286 23.1661 15.5215 23.5138 15.377 23.9239C15.2325 24.3302 15.1602 24.7872 15.1602 25.2951C15.1602 25.8224 15.2344 26.2951 15.3829 26.7131C15.5352 27.1271 15.7501 27.4807 16.0274 27.7737C16.3087 28.0627 16.6485 28.2834 17.047 28.4358C17.4454 28.5881 17.8927 28.6643 18.3888 28.6643C18.7794 28.6643 19.1252 28.6213 19.426 28.5354C19.7307 28.4456 20.0275 28.3225 20.3166 28.1662V26.3205H19.0099C18.9357 26.3205 18.8752 26.299 18.8283 26.256C18.7853 26.2131 18.7638 26.1603 18.7638 26.0978V25.4533H21.342Z" fill="#33CCFF"/>
<path d="M24.2187 29.4905H23.082V21.0938H24.2187V29.4905Z" fill="#33CCFF"/>
<path d="M27.5033 22.0196V24.9552H30.9545V25.881H27.5033V29.4905H26.3665V21.0938H31.5405V22.0196H27.5033Z" fill="#33CCFF"/>
<path d="M35.666 24.5333C35.6191 24.6193 35.5469 24.6622 35.4492 24.6622C35.3906 24.6622 35.3242 24.6407 35.25 24.5978C35.1758 24.5548 35.084 24.5079 34.9746 24.4571C34.8691 24.4025 34.7421 24.3536 34.5937 24.3107C34.4453 24.2638 34.2695 24.2403 34.0663 24.2403C33.8906 24.2403 33.7323 24.2638 33.5917 24.3107C33.4511 24.3536 33.33 24.4142 33.2284 24.4923C33.1308 24.5704 33.0546 24.6622 32.9999 24.7677C32.9491 24.8693 32.9237 24.9806 32.9237 25.1017C32.9237 25.254 32.9667 25.381 33.0526 25.4826C33.1425 25.5841 33.2597 25.672 33.4042 25.7462C33.5487 25.8205 33.7128 25.8869 33.8964 25.9455C34.08 26.0002 34.2675 26.0607 34.4589 26.1271C34.6543 26.1896 34.8437 26.2599 35.0273 26.3381C35.2109 26.4162 35.375 26.5138 35.5195 26.631C35.6641 26.7482 35.7793 26.8928 35.8652 27.0646C35.9551 27.2326 36 27.4358 36 27.674C36 27.9475 35.9512 28.2014 35.8535 28.4358C35.7559 28.6663 35.6113 28.8674 35.4199 29.0393C35.2285 29.2073 34.9941 29.3401 34.7168 29.4378C34.4394 29.5354 34.1191 29.5843 33.7558 29.5843C33.3417 29.5843 32.9667 29.5179 32.6308 29.385C32.2948 29.2483 32.0096 29.0745 31.7753 28.8635L32.0214 28.4651C32.0526 28.4143 32.0897 28.3752 32.1327 28.3479C32.1757 28.3205 32.2303 28.3069 32.2968 28.3069C32.3671 28.3069 32.4413 28.3342 32.5194 28.3889C32.5975 28.4436 32.6913 28.5041 32.8007 28.5706C32.914 28.637 33.0507 28.6975 33.2108 28.7522C33.371 28.8069 33.5702 28.8342 33.8085 28.8342C34.0117 28.8342 34.1894 28.8088 34.3417 28.7581C34.4941 28.7034 34.621 28.6311 34.7226 28.5413C34.8242 28.4514 34.8984 28.3479 34.9453 28.2307C34.9961 28.1135 35.0215 27.9885 35.0215 27.8557C35.0215 27.6916 34.9765 27.5569 34.8867 27.4514C34.8007 27.342 34.6855 27.2502 34.541 27.176C34.3964 27.0979 34.2304 27.0314 34.0429 26.9768C33.8593 26.9182 33.6698 26.8576 33.4745 26.7951C33.2831 26.7326 33.0937 26.6623 32.9062 26.5842C32.7226 26.5021 32.5585 26.4006 32.4139 26.2795C32.2694 26.1584 32.1522 26.0099 32.0624 25.8341C31.9764 25.6544 31.9335 25.4376 31.9335 25.1837C31.9335 24.9572 31.9803 24.7404 32.0741 24.5333C32.1678 24.3224 32.3046 24.1388 32.4843 23.9825C32.664 23.8224 32.8847 23.6954 33.1464 23.6016C33.4081 23.5079 33.707 23.461 34.0429 23.461C34.4335 23.461 34.7832 23.5235 35.0918 23.6485C35.4043 23.7696 35.6738 23.9376 35.9004 24.1524L35.666 24.5333Z" fill="#33CCFF"/>
<rect x="0.5" y="0.5" width="49" height="49" rx="24.5" stroke="#33CCFF"/>
</svg>
