<svg width="50" height="50" viewBox="0 0 50 50" fill="none" xmlns="http://www.w3.org/2000/svg">
<g clip-path="url(#clip0_267_15485)">
<rect width="50" height="50" rx="25" fill="#33CCFF"/>
<g clip-path="url(#clip1_267_15485)">
<path d="M25 26C27.1733 26 29.0933 26.52 30.6533 27.2C32.0933 27.84 33 29.28 33 30.84V31.6667C33 32.4 32.4 33 31.6667 33H18.3333C17.6 33 17 32.4 17 31.6667V30.8533C17 29.28 17.9067 27.84 19.3467 27.2133C20.9067 26.52 22.8267 26 25 26ZM14.3333 26.3333C15.8 26.3333 17 25.1333 17 23.6667C17 22.2 15.8 21 14.3333 21C12.8667 21 11.6667 22.2 11.6667 23.6667C11.6667 25.1333 12.8667 26.3333 14.3333 26.3333ZM15.84 27.8C15.3467 27.72 14.8533 27.6667 14.3333 27.6667C13.0133 27.6667 11.76 27.9467 10.6267 28.44C9.64 28.8667 9 29.8267 9 30.9067V31.6667C9 32.4 9.6 33 10.3333 33H15V30.8533C15 29.7467 15.3067 28.7067 15.84 27.8ZM35.6667 26.3333C37.1333 26.3333 38.3333 25.1333 38.3333 23.6667C38.3333 22.2 37.1333 21 35.6667 21C34.2 21 33 22.2 33 23.6667C33 25.1333 34.2 26.3333 35.6667 26.3333ZM41 30.9067C41 29.8267 40.36 28.8667 39.3733 28.44C38.24 27.9467 36.9867 27.6667 35.6667 27.6667C35.1467 27.6667 34.6533 27.72 34.16 27.8C34.6933 28.7067 35 29.7467 35 30.8533V33H39.6667C40.4 33 41 32.4 41 31.6667V30.9067ZM25 17C27.2133 17 29 18.7867 29 21C29 23.2133 27.2133 25 25 25C22.7867 25 21 23.2133 21 21C21 18.7867 22.7867 17 25 17Z" fill="white"/>
</g>
</g>
<defs>
<clipPath id="clip0_267_15485">
<rect width="50" height="50" fill="white"/>
</clipPath>
<clipPath id="clip1_267_15485">
<rect width="32" height="32" fill="white" transform="translate(9 9)"/>
</clipPath>
</defs>
</svg>
