<svg width="24" height="25" viewBox="0 0 24 25" fill="none" xmlns="http://www.w3.org/2000/svg">
<path fill-rule="evenodd" clip-rule="evenodd" d="M4.3986 4.8986C6.34317 2.95406 9.0317 1.75 12 1.75C14.9683 1.75 17.6568 2.95406 19.6014 4.8986L19.0711 5.42893L19.6014 4.8986C21.5459 6.84317 22.75 9.5317 22.75 12.5C22.75 15.4683 21.5459 18.1568 19.6014 20.1014C17.6568 22.0459 14.9683 23.25 12 23.25C9.0317 23.25 6.34317 22.0459 4.3986 20.1014L4.92893 19.5711L4.3986 20.1014C2.45406 18.1568 1.25 15.4683 1.25 12.5C1.25 9.5317 2.45406 6.84317 4.3986 4.8986L4.3986 4.8986ZM12 3.25C9.4455 3.25 7.13403 4.28452 5.45926 5.95926C3.78451 7.63404 2.75 9.9455 2.75 12.5C2.75 15.0545 3.78452 17.366 5.45926 19.0407C7.13403 20.7155 9.4455 21.75 12 21.75C14.5545 21.75 16.866 20.7155 18.5407 19.0407C20.2155 17.366 21.25 15.0545 21.25 12.5C21.25 9.9455 20.2155 7.63403 18.5407 5.95926C16.866 4.28452 14.5545 3.25 12 3.25Z" fill="#33CCFF"/>
<path fill-rule="evenodd" clip-rule="evenodd" d="M12 6C12.6904 6 13.25 6.55965 13.25 7.25C13.25 7.94035 12.6904 8.5 12 8.5C11.3097 8.5 10.75 7.94035 10.75 7.25C10.75 6.55965 11.3097 6 12 6Z" fill="#33CCFF"/>
<path fill-rule="evenodd" clip-rule="evenodd" d="M10.5 10.5C10.5 10.0858 10.8358 9.75 11.25 9.75H12.25C12.6642 9.75 13 10.0858 13 10.5V17.5C13 17.9142 12.6642 18.25 12.25 18.25C11.8358 18.25 11.5 17.9142 11.5 17.5V11.25H11.25C10.8358 11.25 10.5 10.9142 10.5 10.5Z" fill="#33CCFF"/>
<path fill-rule="evenodd" clip-rule="evenodd" d="M9.75 17.5C9.75 17.0858 10.0858 16.75 10.5 16.75H14C14.4142 16.75 14.75 17.0858 14.75 17.5C14.75 17.9142 14.4142 18.25 14 18.25H10.5C10.0858 18.25 9.75 17.9142 9.75 17.5Z" fill="#33CCFF"/>
</svg>
