<svg width="28" height="14" viewBox="0 0 28 14" fill="none" xmlns="http://www.w3.org/2000/svg">
<path opacity="0.87" d="M20.6667 0.333008H15.3334V2.99967H20.6667C22.8667 2.99967 24.6667 4.79967 24.6667 6.99967C24.6667 9.19967 22.8667 10.9997 20.6667 10.9997H15.3334V13.6663H20.6667C24.3467 13.6663 27.3334 10.6797 27.3334 6.99967C27.3334 3.31967 24.3467 0.333008 20.6667 0.333008ZM12.6667 10.9997H7.33342C5.13341 10.9997 3.33341 9.19967 3.33341 6.99967C3.33341 4.79967 5.13341 2.99967 7.33342 2.99967H12.6667V0.333008H7.33342C3.65341 0.333008 0.666748 3.31967 0.666748 6.99967C0.666748 10.6797 3.65341 13.6663 7.33342 13.6663H12.6667V10.9997ZM8.66675 5.66634H19.3334V8.33301H8.66675V5.66634Z" fill="#33CCFF"/>
</svg>
