<svg width="50" height="50" viewBox="0 0 50 50" fill="none" xmlns="http://www.w3.org/2000/svg">
<path fill-rule="evenodd" clip-rule="evenodd" d="M16.1354 16.1515C17.7817 14.5053 20.4435 14.4492 22.0804 16.0861L26.6504 20.656C26.9433 20.9489 26.9433 21.4238 26.6504 21.7167C26.3575 22.0096 25.8826 22.0096 25.5897 21.7167L21.0197 17.1467C21.0197 17.1467 21.0197 17.1467 21.0197 17.1467C19.9952 16.1223 18.2835 16.1248 17.1961 17.2122C16.1086 18.2996 16.1061 20.0114 17.1306 21.0358L21.0983 25.0034C21.3912 25.2963 21.3912 25.7712 21.0983 26.0641C20.8054 26.357 20.3305 26.357 20.0376 26.0641L16.07 22.0965C16.07 22.0965 16.07 22.0965 16.07 22.0965C14.4331 20.4596 14.4892 17.7977 16.1354 16.1515Z" fill="#33CCFF"/>
<path fill-rule="evenodd" clip-rule="evenodd" d="M28.9211 23.9711C29.214 23.6782 29.6888 23.6782 29.9817 23.9711L33.9494 27.9388C33.9494 27.9388 33.9494 27.9388 33.9494 27.9388C35.5863 29.5756 35.5302 32.2374 33.8839 33.8837C32.2377 35.5299 29.5759 35.5861 27.939 33.9492L23.369 29.3791C23.0761 29.0863 23.0761 28.6114 23.369 28.3185C23.6619 28.0256 24.1367 28.0256 24.4296 28.3185L28.9997 32.8885C30.0241 33.913 31.7358 33.9105 32.8233 32.823C33.9107 31.7356 33.9132 30.0239 32.8887 28.9995L32.8887 28.9994L28.9211 25.0318C28.6282 24.7389 28.6282 24.264 28.9211 23.9711Z" fill="#33CCFF"/>
<path fill-rule="evenodd" clip-rule="evenodd" d="M25.5897 20.6562C25.8826 20.3633 26.3575 20.3633 26.6503 20.6562C28.2873 22.2931 28.2311 24.9549 26.5849 26.6011C26.292 26.894 25.8171 26.8941 25.5242 26.6012C25.2313 26.3083 25.2313 25.8334 25.5242 25.5405C26.6116 24.453 26.6142 22.7413 25.5897 21.7169C25.2968 21.424 25.2968 20.9491 25.5897 20.6562Z" fill="#33CCFF"/>
<path fill-rule="evenodd" clip-rule="evenodd" d="M24.4296 23.3691C24.7225 23.662 24.7225 24.1368 24.4296 24.4297C23.3422 25.5172 23.3397 27.2289 24.3641 28.2534C24.657 28.5463 24.657 29.0212 24.3641 29.314C24.0712 29.6069 23.5964 29.6069 23.3035 29.314C21.6666 27.6771 21.7227 25.0153 23.3689 23.3691C23.6618 23.0762 24.1367 23.0762 24.4296 23.3691Z" fill="#33CCFF"/>
<rect x="0.5" y="0.5" width="49" height="49" rx="24.5" stroke="#33CCFF"/>
</svg>
