<svg width="22" height="6" viewBox="0 0 22 6" fill="none" xmlns="http://www.w3.org/2000/svg">
<path d="M2.99992 0.333344C1.53325 0.333344 0.333252 1.53334 0.333252 3.00001C0.333252 4.46668 1.53325 5.66668 2.99992 5.66668C4.46659 5.66668 5.66658 4.46668 5.66658 3.00001C5.66658 1.53334 4.46659 0.333344 2.99992 0.333344ZM18.9999 0.333344C17.5333 0.333344 16.3333 1.53334 16.3333 3.00001C16.3333 4.46668 17.5333 5.66668 18.9999 5.66668C20.4666 5.66668 21.6666 4.46668 21.6666 3.00001C21.6666 1.53334 20.4666 0.333344 18.9999 0.333344ZM10.9999 0.333344C9.53325 0.333344 8.33325 1.53334 8.33325 3.00001C8.33325 4.46668 9.53325 5.66668 10.9999 5.66668C12.4666 5.66668 13.6666 4.46668 13.6666 3.00001C13.6666 1.53334 12.4666 0.333344 10.9999 0.333344Z" fill="white"/>
</svg>
