<svg width="16" height="16" viewBox="0 0 16 16" fill="none" xmlns="http://www.w3.org/2000/svg">
<rect width="16" height="16" rx="8" fill="#828282"/>
<g clip-path="url(#clip0_108_6238)">
<path d="M4.17009 3.465L3.46509 4.17L5.64509 6.35L5.50009 6.5H3.50009V9.5H5.50009L8.00009 12V8.705L10.0901 10.795C9.76509 11.04 9.40009 11.235 9.00009 11.35V12.38C9.67009 12.23 10.2851 11.92 10.8051 11.505L11.8301 12.53L12.5351 11.825L4.17009 3.465ZM7.00009 9.585L5.91509 8.5H4.50009V7.5H5.91509L6.35509 7.06L7.00009 7.705V9.585ZM11.5001 8C11.5001 8.41 11.4251 8.805 11.2951 9.17L12.0601 9.935C12.3401 9.35 12.5001 8.695 12.5001 8C12.5001 5.86 11.0051 4.07 9.00009 3.615V4.645C10.4451 5.075 11.5001 6.415 11.5001 8ZM8.00009 4L7.06009 4.94L8.00009 5.88V4ZM10.2501 8C10.2501 7.115 9.74009 6.355 9.00009 5.985V6.88L10.2401 8.12C10.2451 8.08 10.2501 8.04 10.2501 8Z" fill="white"/>
</g>
<defs>
<clipPath id="clip0_108_6238">
<rect width="12" height="12" fill="white" transform="translate(2 2)"/>
</clipPath>
</defs>
</svg>
