<svg width="50" height="50" viewBox="0 0 50 50" fill="none" xmlns="http://www.w3.org/2000/svg">
<path fill-rule="evenodd" clip-rule="evenodd" d="M21.3292 15.6646C21.4562 15.4105 21.7159 15.25 22 15.25H28C28.2841 15.25 28.5438 15.4105 28.6708 15.6646L30.1708 18.6646C30.2871 18.8971 30.2746 19.1732 30.138 19.3943C30.0013 19.6154 29.7599 19.75 29.5 19.75H20.5C20.2401 19.75 19.9987 19.6154 19.862 19.3943C19.7254 19.1732 19.7129 18.8971 19.8292 18.6646L21.3292 15.6646ZM22.4635 16.75L21.7135 18.25H28.2865L27.5365 16.75H22.4635Z" fill="#33CCFF"/>
<path fill-rule="evenodd" clip-rule="evenodd" d="M16.5 19.75C16.0858 19.75 15.75 20.0858 15.75 20.5V32.5C15.75 32.9142 16.0858 33.25 16.5 33.25H33.5C33.9142 33.25 34.25 32.9142 34.25 32.5V20.5C34.25 20.0858 33.9142 19.75 33.5 19.75H16.5ZM14.25 20.5C14.25 19.2574 15.2574 18.25 16.5 18.25H33.5C34.7426 18.25 35.75 19.2574 35.75 20.5V32.5C35.75 33.7426 34.7426 34.75 33.5 34.75H16.5C15.2574 34.75 14.25 33.7426 14.25 32.5V20.5Z" fill="#33CCFF"/>
<path fill-rule="evenodd" clip-rule="evenodd" d="M20.25 26.5C20.25 23.8766 22.3766 21.75 25 21.75C27.6234 21.75 29.75 23.8766 29.75 26.5C29.75 29.1234 27.6234 31.25 25 31.25C22.3766 31.25 20.25 29.1234 20.25 26.5ZM25 23.25C23.2051 23.25 21.75 24.7051 21.75 26.5C21.75 28.2949 23.2051 29.75 25 29.75C26.7949 29.75 28.25 28.2949 28.25 26.5C28.25 24.7051 26.7949 23.25 25 23.25Z" fill="#33CCFF"/>
<rect x="0.5" y="0.5" width="49" height="49" rx="24.5" stroke="#33CCFF"/>
</svg>
