<svg width="21" height="21" viewBox="0 0 21 21" fill="none" xmlns="http://www.w3.org/2000/svg">
<path fill-rule="evenodd" clip-rule="evenodd" d="M13.6131 0.223179C13.902 0.0782876 14.2512 0.134728 14.4797 0.363244L20.1365 6.02008C20.3649 6.24841 20.4214 6.59725 20.2769 6.88602C20.1324 7.1748 19.8193 7.33867 19.4997 7.29281L17.5375 7.01126L14.4375 12.5903C14.8101 13.4283 15.0365 14.2583 15 15.077C14.957 16.044 14.5517 16.9083 13.7779 17.6821C13.6373 17.8227 13.4465 17.9018 13.2476 17.9018C13.0487 17.9018 12.8579 17.8227 12.7172 17.6821L9.2849 14.2498L1.6673 19.8814C1.36904 20.1019 0.954389 20.0713 0.691779 19.8094C0.429169 19.5474 0.397489 19.1328 0.617246 18.834L6.23308 11.1979L2.81812 7.78298C2.52524 7.49009 2.52485 7.01483 2.81773 6.72194C3.59442 5.94522 4.48666 5.53328 5.4613 5.48393C6.28768 5.44209 7.11678 5.66355 7.92591 6.0537L13.4932 2.96791L13.2072 1.00152C13.1607 0.681709 13.3242 0.36807 13.6131 0.223179ZM4.46898 7.31251L7.74935 10.5929C8.01138 10.8549 8.04276 11.269 7.82322 11.5676L4.76506 15.7259L8.91261 12.6596C9.21116 12.4389 9.62627 12.4698 9.8888 12.7323L13.1886 16.0322C13.3938 15.6926 13.4861 15.3559 13.5015 15.0103C13.5271 14.4349 13.3433 13.7495 12.9224 12.891C12.8143 12.6706 12.821 12.4112 12.9402 12.1966L16.4771 5.83123C16.6282 5.55936 16.9314 5.40894 17.2392 5.45311L17.4833 5.48813L15.0167 3.02161L15.0521 3.26477C15.097 3.57335 14.9462 3.87751 14.6735 4.02868L8.30256 7.55993C8.07743 7.68472 7.80404 7.68534 7.57835 7.56157C6.80079 7.13517 6.12267 6.95237 5.53714 6.98201C5.17589 7.0003 4.82028 7.10069 4.46898 7.31251Z" fill="#33CCFF"/>
</svg>
