<svg width="21" height="21" viewBox="0 0 21 21" fill="none" xmlns="http://www.w3.org/2000/svg">
<path fill-rule="evenodd" clip-rule="evenodd" d="M13.6134 0.722935C13.9022 0.578043 14.2514 0.634484 14.4799 0.863L20.1368 6.51984C20.3651 6.74817 20.4217 7.09701 20.2772 7.38578C20.1327 7.67455 19.8196 7.83842 19.4999 7.79256L17.5377 7.51102L14.4377 13.09C14.8103 13.9281 15.0367 14.7581 15.0003 15.5767C14.9572 16.5438 14.5519 17.408 13.7782 18.1818C13.6375 18.3225 13.4467 18.4015 13.2478 18.4015C13.0489 18.4015 12.8581 18.3225 12.7175 18.1818L9.28515 14.7495L1.66755 20.3812C1.36929 20.6017 0.954633 20.5711 0.692023 20.3091C0.429413 20.0472 0.397733 19.6326 0.617491 19.3338L6.23333 11.6977L2.81837 8.28273C2.52548 7.98984 2.52509 7.51459 2.81797 7.2217C3.59466 6.44498 4.48691 6.03303 5.46154 5.98369C6.28793 5.94185 7.11703 6.16331 7.92615 6.55345L13.4934 3.46767L13.2074 1.50127C13.1609 1.18146 13.3245 0.867826 13.6134 0.722935ZM4.46923 7.81227L7.74959 11.0926C8.01162 11.3547 8.04301 11.7688 7.82346 12.0673L4.76531 16.2256L8.91285 13.1593C9.2114 12.9386 9.62651 12.9696 9.88904 13.2321L13.1889 16.5319C13.3941 16.1924 13.4864 15.8557 13.5018 15.51C13.5274 14.9346 13.3435 14.2492 12.9226 13.3908C12.8146 13.1703 12.8212 12.9109 12.9405 12.6963L16.4774 6.33099C16.6284 6.05912 16.9316 5.9087 17.2395 5.95287L17.4835 5.98788L15.017 3.52137L15.0524 3.76452C15.0972 4.07311 14.9465 4.37726 14.6738 4.52844L8.3028 8.05969C8.07767 8.18447 7.80428 8.18509 7.57859 8.06133C6.80103 7.63492 6.12292 7.45212 5.53739 7.48177C5.17613 7.50006 4.82053 7.60044 4.46923 7.81227Z" fill="white"/>
</svg>
