<svg width="24" height="28" viewBox="0 0 24 28" fill="none" xmlns="http://www.w3.org/2000/svg">
<path fill-rule="evenodd" clip-rule="evenodd" d="M15.76 3.50016H21.3333C22.8 3.50016 24 4.70016 24 6.16683V24.8335C24 26.3002 22.8 27.5002 21.3333 27.5002H2.66667C1.2 27.5002 0 26.3002 0 24.8335V6.16683C0 4.70016 1.2 3.50016 2.66667 3.50016H8.24C8.8 1.9535 10.2667 0.833496 12 0.833496C13.7333 0.833496 15.2 1.9535 15.76 3.50016ZM13.3333 4.8335C13.3333 4.10016 12.7333 3.50016 12 3.50016C11.2667 3.50016 10.6667 4.10016 10.6667 4.8335C10.6667 5.56683 11.2667 6.16683 12 6.16683C12.7333 6.16683 13.3333 5.56683 13.3333 4.8335ZM17 19.1315V15.1151C17 12.6491 15.6333 10.5846 13.25 10.0384C13.25 9.37169 12.6917 8.8335 12 8.8335C11.3083 8.8335 10.75 9.37169 10.75 10.0384C8.35833 10.5846 7 12.641 7 15.1151V19.1315L5.33333 20.738V21.6668H9.63474C9.85843 22.7828 10.6928 23.5002 11.697 23.5002C12.6921 23.5002 13.5329 22.7828 13.7586 21.6668H18.6667V20.738L17 19.1315Z" fill="#18BD5A"/>
</svg>
