<svg width="22" height="19" viewBox="0 0 22 19" fill="none" xmlns="http://www.w3.org/2000/svg">
<path fill-rule="evenodd" clip-rule="evenodd" d="M9.09133 18.893C9.374 18.7781 9.55886 18.5034 9.55886 18.1982L9.55886 13.839C12.6135 13.6504 15.2512 12.4415 17.4383 10.225C19.7898 7.8422 21.1393 4.87326 21.4959 1.35588C21.5293 1.02669 21.343 0.714523 21.0375 0.587597C20.7319 0.460668 20.3793 0.548977 20.1696 0.80493C17.7408 3.76973 15.7083 5.28422 14.0763 5.63049C12.4924 5.96656 10.9879 6.05142 9.55886 5.89286L9.55886 1.19827C9.55886 0.889481 9.3696 0.612256 9.08203 0.499787C8.79445 0.387318 8.46734 0.462596 8.25785 0.689452L0.198762 9.41678C-0.0718015 9.70977 -0.065744 10.1633 0.212548 10.4489L8.27164 18.7216C8.48456 18.9401 8.80867 19.0079 9.09133 18.893ZM1.78338 9.91179L8.05886 3.11596L8.05886 6.54675C8.05886 6.91419 8.32506 7.22752 8.68767 7.28689C10.5063 7.58468 12.4084 7.51777 14.3876 7.09782C16.0128 6.75298 17.7211 5.61079 19.5141 3.79053C18.9209 5.86102 17.872 7.65002 16.3707 9.17145C14.2878 11.2822 11.7793 12.3412 8.80293 12.3648C8.39104 12.368 8.05886 12.7028 8.05886 13.1147L8.05886 16.3535L1.78338 9.91179Z" fill="#33CCFF"/>
</svg>
