<svg width="20" height="20" viewBox="0 0 20 20" fill="none" xmlns="http://www.w3.org/2000/svg">
<path fill-rule="evenodd" clip-rule="evenodd" d="M19 9.25C19.4142 9.25 19.75 9.58579 19.75 10V19C19.75 19.4142 19.4142 19.75 19 19.75H1C0.585786 19.75 0.25 19.4142 0.25 19V10.0042C0.25 9.58994 0.585786 9.25415 1 9.25415C1.41421 9.25415 1.75 9.58994 1.75 10.0042V18.25H18.25V10C18.25 9.58579 18.5858 9.25 19 9.25Z" fill="white"/>
<path fill-rule="evenodd" clip-rule="evenodd" d="M9.46967 0.46967C9.76256 0.176777 10.2374 0.176777 10.5303 0.46967L15.0303 4.96967C15.3232 5.26256 15.3232 5.73744 15.0303 6.03033C14.7374 6.32322 14.2626 6.32322 13.9697 6.03033L10 2.06066L6.03033 6.03033C5.73744 6.32322 5.26256 6.32322 4.96967 6.03033C4.67678 5.73744 4.67678 5.26256 4.96967 4.96967L9.46967 0.46967Z" fill="white"/>
<path fill-rule="evenodd" clip-rule="evenodd" d="M9.99609 0.25C10.4103 0.25 10.7461 0.585786 10.7461 1V14C10.7461 14.4142 10.4103 14.75 9.99609 14.75C9.58188 14.75 9.24609 14.4142 9.24609 14V1C9.24609 0.585786 9.58188 0.25 9.99609 0.25Z" fill="white"/>
</svg>
