<svg width="25" height="27" viewBox="0 0 25 27" fill="none" xmlns="http://www.w3.org/2000/svg">
<path d="M24.7889 0.252873L24.599 0.323811C24.6295 0.342072 24.6523 0.331538 24.6769 0.327323L24.7728 0.26973C24.7777 0.263409 24.7851 0.258843 24.7889 0.252873ZM10.3735 26.7295C10.3735 26.989 10.1505 26.6737 10.3735 26.7295V26.7295ZM0.741042 14.6887C0.573881 14.8 0.741042 14.485 0.741042 14.6887V14.6887ZM24.7889 0.252873L24.822 0.240231C24.809 0.231452 24.8153 0.228643 24.8079 0.22162C24.8019 0.233208 24.7981 0.238475 24.7889 0.252873ZM24.6769 0.327323L0.741042 14.6887C0.741042 14.6887 4.17766 16.5036 7.8148 17.9248L22.4139 2.6486L10.3735 19.5051V26.7295L13.4227 20.408L22.4143 24.3215L24.8223 0.240582L24.7735 0.26973C24.7493 0.302038 24.717 0.319949 24.6769 0.327323ZM24.8079 0.22162C24.8286 0.181585 24.8371 0.15946 24.8223 0.240582C24.9933 0.155246 24.7233 0.137337 24.8079 0.22162Z" fill="#18BD5A"/>
</svg>
