<svg width="50" height="50" viewBox="0 0 50 50" fill="none" xmlns="http://www.w3.org/2000/svg">
<path fill-rule="evenodd" clip-rule="evenodd" d="M16 17.75C15.8619 17.75 15.75 17.8619 15.75 18V32C15.75 32.1381 15.8619 32.25 16 32.25H30C30.1381 32.25 30.25 32.1381 30.25 32V28C30.25 27.7159 30.4105 27.4562 30.6646 27.3292C30.9187 27.2021 31.2227 27.2296 31.45 27.4L34.25 29.5V21L31.45 23.1C31.2227 23.2704 30.9187 23.2979 30.6646 23.1708C30.4105 23.0438 30.25 22.7841 30.25 22.5V18C30.25 17.8619 30.1381 17.75 30 17.75H16ZM14.25 18C14.25 17.0335 15.0335 16.25 16 16.25H30C30.9665 16.25 31.75 17.0335 31.75 18V21L34.55 18.9C34.7773 18.7296 35.0813 18.7021 35.3354 18.8292C35.5895 18.9562 35.75 19.2159 35.75 19.5V31C35.75 31.2841 35.5895 31.5438 35.3354 31.6708C35.0813 31.7979 34.7773 31.7704 34.55 31.6L31.75 29.5V32C31.75 32.9665 30.9665 33.75 30 33.75H16C15.0335 33.75 14.25 32.9665 14.25 32V18Z" fill="#33CCFF"/>
<rect x="0.5" y="0.5" width="49" height="49" rx="24.5" stroke="#33CCFF"/>
</svg>
