<svg width="22" height="18" viewBox="0 0 22 18" fill="none" xmlns="http://www.w3.org/2000/svg">
<path fill-rule="evenodd" clip-rule="evenodd" d="M2 1.75C1.86193 1.75 1.75 1.86193 1.75 2V16C1.75 16.1381 1.86192 16.25 2 16.25H16C16.1381 16.25 16.25 16.1381 16.25 16V12C16.25 11.7159 16.4105 11.4562 16.6646 11.3292C16.9187 11.2021 17.2227 11.2296 17.45 11.4L20.25 13.5V5L17.45 7.1C17.2227 7.27045 16.9187 7.29786 16.6646 7.17082C16.4105 7.04378 16.25 6.78408 16.25 6.5V2C16.25 1.86192 16.1381 1.75 16 1.75H2ZM0.25 2C0.25 1.0335 1.0335 0.25 2 0.25H16C16.9665 0.25 17.75 1.03351 17.75 2V5L20.55 2.9C20.7773 2.72955 21.0813 2.70214 21.3354 2.82918C21.5895 2.95622 21.75 3.21592 21.75 3.5V15C21.75 15.2841 21.5895 15.5438 21.3354 15.6708C21.0813 15.7979 20.7773 15.7704 20.55 15.6L17.75 13.5V16C17.75 16.9665 16.9665 17.75 16 17.75H2C1.03351 17.75 0.25 16.9665 0.25 16V2Z" fill="#1C1B1E"/>
</svg>
