<svg width="24" height="24" viewBox="0 0 24 24" fill="none" xmlns="http://www.w3.org/2000/svg">
<path fill-rule="evenodd" clip-rule="evenodd" d="M3.30975 21.6281C1.53246 21.6281 0.424541 19.7008 1.31319 18.1658L10.0034 3.1512C10.8921 1.61627 13.1079 1.61627 13.9966 3.1512L22.6868 18.1658C23.5755 19.7008 22.4675 21.6281 20.6903 21.6281H3.30975ZM11.8824 8.93914C11.3023 8.99846 10.8458 9.49213 10.8458 10.0872V12.3954C10.8458 13.0302 11.3651 13.5495 11.9999 13.5495C12.021 13.5495 12.0419 13.5489 12.0628 13.5478C12.6686 13.5148 13.1539 13.0091 13.1539 12.3954V10.0872C13.1539 9.4525 12.6346 8.93317 11.9999 8.93317C11.9977 8.93317 11.9956 8.93316 11.9935 8.93318C11.956 8.93338 11.919 8.9354 11.8824 8.93914ZM13.1541 15.8577H10.8459V15.8577H10.8458V18.1658H13.1539L13.1541 18.1658V15.8577Z" fill="#FF7D7D"/>
</svg>
