<svg width="33" height="33" viewBox="0 0 33 33" fill="none" xmlns="http://www.w3.org/2000/svg">
    <path d="M16.2983 32.4142C25.2996 32.4142 32.5966 25.1581 32.5966 16.2071C32.5966 7.25618 25.2996 0 16.2983 0C7.29699 0 0 7.25618 0 16.2071C0 25.1581 7.29699 32.4142 16.2983 32.4142Z" fill="url(#paint0_linear_705_2359)"/>
    <path fill-rule="evenodd" clip-rule="evenodd" d="M16.2172 18.7074C19.6175 16.28 23.2865 13.4824 26.6228 10.9829C27.5255 11.7088 28.4468 14.2474 27.7896 15.7235C27.6177 16.1098 26.9061 16.539 26.4214 16.892C23.0819 19.3244 19.3204 21.9947 16.1874 24.3351C16.1872 24.3351 16.1872 24.3351 16.2172 18.7074Z" fill="white"/>
    <path fill-rule="evenodd" clip-rule="evenodd" d="M16.2429 18.7079C12.8827 16.2816 9.25783 13.4851 5.96007 10.9861C5.06614 11.712 4.1552 14.2509 4.80386 15.7267C4.9718 16.1128 5.6752 16.5419 6.15538 16.8949C9.455 19.3265 13.1732 21.9957 16.2684 24.3354C16.2684 24.3354 16.2684 24.3354 16.2429 18.7079Z" fill="white"/>
    <defs>
        <linearGradient id="paint0_linear_705_2359" x1="17.0758" y1="32.3963" x2="15.5384" y2="0.0170937" gradientUnits="userSpaceOnUse">
            <stop stop-color="#91E3FF"/>
            <stop offset="0.9999" stop-color="#00BFFF"/>
            <stop offset="1" stop-color="#F47D20"/>
        </linearGradient>
    </defs>
</svg>
