<svg width="32" height="32" viewBox="0 0 32 32" fill="none" xmlns="http://www.w3.org/2000/svg">
<rect width="32" height="32" rx="16" fill="#18BD5A"/>
<g clip-path="url(#clip0_184_4679)">
<path d="M23.23 19.26L20.69 18.97C20.08 18.9 19.48 19.11 19.05 19.54L17.21 21.38C14.38 19.94 12.06 17.63 10.62 14.79L12.47 12.94C12.9 12.51 13.11 11.91 13.04 11.3L12.75 8.78001C12.63 7.77001 11.78 7.01001 10.76 7.01001H9.03004C7.90004 7.01001 6.96004 7.95001 7.03004 9.08001C7.56004 17.62 14.39 24.44 22.92 24.97C24.05 25.04 24.99 24.1 24.99 22.97V21.24C25 20.23 24.24 19.38 23.23 19.26Z" fill="white"/>
</g>
<defs>
<clipPath id="clip0_184_4679">
<rect width="24" height="24" fill="white" transform="translate(4 4)"/>
</clipPath>
</defs>
</svg>
