<svg width="64" height="64" viewBox="0 0 64 64" fill="none" xmlns="http://www.w3.org/2000/svg">
<rect width="64" height="64" rx="32" fill="#33CCFF"/>
<g clip-path="url(#clip0_2_14553)">
<path d="M40.3335 23.6666L33.1835 16.5166C32.1335 15.4666 30.3335 16.1999 30.3335 17.6833V27.9833L23.8502 21.4999C23.2002 20.8499 22.1502 20.8499 21.5002 21.4999C20.8502 22.1499 20.8502 23.1999 21.5002 23.8499L29.6502 31.9999L21.5002 40.1499C20.8502 40.7999 20.8502 41.8499 21.5002 42.4999C22.1502 43.1499 23.2002 43.1499 23.8502 42.4999L30.3335 36.0166V46.3166C30.3335 47.7999 32.1335 48.5499 33.1835 47.4999L40.3335 40.3333C40.9835 39.6833 40.9835 38.6333 40.3335 37.9833L34.3502 31.9999L40.3335 26.0333C40.9835 25.3833 40.9835 24.3166 40.3335 23.6666ZM33.6669 21.7166L36.8002 24.8499L33.6669 27.9833V21.7166ZM36.8002 39.1499L33.6669 42.2833V36.0166L36.8002 39.1499Z" fill="#F3F9FC"/>
</g>
<defs>
<clipPath id="clip0_2_14553">
<rect width="40" height="40" fill="white" transform="translate(12 12)"/>
</clipPath>
</defs>
</svg>
