<svg width="64" height="64" viewBox="0 0 64 64" fill="none" xmlns="http://www.w3.org/2000/svg">
<rect width="64" height="64" rx="32" fill="#FF7D7D"/>
<g clip-path="url(#clip0_2_11890)">
<path d="M42.5002 21.5169C41.8502 20.8669 40.8002 20.8669 40.1502 21.5169L32.0002 29.6502L23.8502 21.5002C23.2002 20.8502 22.1502 20.8502 21.5002 21.5002C20.8502 22.1502 20.8502 23.2002 21.5002 23.8502L29.6502 32.0002L21.5002 40.1502C20.8502 40.8002 20.8502 41.8502 21.5002 42.5002C22.1502 43.1502 23.2002 43.1502 23.8502 42.5002L32.0002 34.3502L40.1502 42.5002C40.8002 43.1502 41.8502 43.1502 42.5002 42.5002C43.1502 41.8502 43.1502 40.8002 42.5002 40.1502L34.3502 32.0002L42.5002 23.8502C43.1335 23.2169 43.1335 22.1502 42.5002 21.5169Z" fill="white"/>
</g>
<defs>
<clipPath id="clip0_2_11890">
<rect width="40" height="40" fill="white" transform="translate(12 12)"/>
</clipPath>
</defs>
</svg>
