<svg width="56" height="56" viewBox="0 0 56 56" fill="none" xmlns="http://www.w3.org/2000/svg">
<g clip-path="url(#clip0_184_3216)">
<rect width="56" height="56" rx="28" fill="#33CCFF"/>
<g clip-path="url(#clip1_184_3216)">
<path d="M28 29C30.1733 29 32.0933 29.52 33.6533 30.2C35.0933 30.84 36 32.28 36 33.84V34.6667C36 35.4 35.4 36 34.6667 36H21.3333C20.6 36 20 35.4 20 34.6667V33.8533C20 32.28 20.9067 30.84 22.3467 30.2133C23.9067 29.52 25.8267 29 28 29ZM17.3333 29.3333C18.8 29.3333 20 28.1333 20 26.6667C20 25.2 18.8 24 17.3333 24C15.8667 24 14.6667 25.2 14.6667 26.6667C14.6667 28.1333 15.8667 29.3333 17.3333 29.3333ZM18.84 30.8C18.3467 30.72 17.8533 30.6667 17.3333 30.6667C16.0133 30.6667 14.76 30.9467 13.6267 31.44C12.64 31.8667 12 32.8267 12 33.9067V34.6667C12 35.4 12.6 36 13.3333 36H18V33.8533C18 32.7467 18.3067 31.7067 18.84 30.8ZM38.6667 29.3333C40.1333 29.3333 41.3333 28.1333 41.3333 26.6667C41.3333 25.2 40.1333 24 38.6667 24C37.2 24 36 25.2 36 26.6667C36 28.1333 37.2 29.3333 38.6667 29.3333ZM44 33.9067C44 32.8267 43.36 31.8667 42.3733 31.44C41.24 30.9467 39.9867 30.6667 38.6667 30.6667C38.1467 30.6667 37.6533 30.72 37.16 30.8C37.6933 31.7067 38 32.7467 38 33.8533V36H42.6667C43.4 36 44 35.4 44 34.6667V33.9067ZM28 20C30.2133 20 32 21.7867 32 24C32 26.2133 30.2133 28 28 28C25.7867 28 24 26.2133 24 24C24 21.7867 25.7867 20 28 20Z" fill="white"/>
</g>
</g>
<defs>
<clipPath id="clip0_184_3216">
<rect width="56" height="56" fill="white"/>
</clipPath>
<clipPath id="clip1_184_3216">
<rect width="32" height="32" fill="white" transform="translate(12 12)"/>
</clipPath>
</defs>
</svg>
