<svg width="19" height="19" viewBox="0 0 14 14" fill="none" xmlns="http://www.w3.org/2000/svg">
<path d="M6.33203 3.60775H7.66536V4.94108H6.33203V3.60775ZM6.9987 10.2744C7.36536 10.2744 7.66536 9.97441 7.66536 9.60775V6.94108C7.66536 6.57441 7.36536 6.27441 6.9987 6.27441C6.63203 6.27441 6.33203 6.57441 6.33203 6.94108V9.60775C6.33203 9.97441 6.63203 10.2744 6.9987 10.2744ZM6.9987 0.274414C3.3187 0.274414 0.332031 3.26108 0.332031 6.94108C0.332031 10.6211 3.3187 13.6077 6.9987 13.6077C10.6787 13.6077 13.6654 10.6211 13.6654 6.94108C13.6654 3.26108 10.6787 0.274414 6.9987 0.274414ZM6.9987 12.2744C4.0587 12.2744 1.66536 9.88108 1.66536 6.94108C1.66536 4.00108 4.0587 1.60775 6.9987 1.60775C9.9387 1.60775 12.332 4.00108 12.332 6.94108C12.332 9.88108 9.9387 12.2744 6.9987 12.2744Z" fill="#115ABB"/>
</svg>
