<svg width="32" height="32" viewBox="0 0 32 32" fill="none" xmlns="http://www.w3.org/2000/svg">
<rect width="32" height="32" rx="16" fill="#B4E8FF"/>
<g clip-path="url(#clip0_203_4900)">
<path d="M14.8 8.9C14.8 8.24 15.34 7.7 16 7.7C16.66 7.7 17.2 8.24 17.2 8.9L17.19 12.81L19 14.6V9C19 7.34 17.66 6 16 6C14.46 6 13.21 7.16 13.04 8.65L14.8 10.41V8.9ZM23 15H21.3C21.3 15.58 21.2 16.13 21.03 16.64L22.3 17.91C22.74 17.03 23 16.04 23 15ZM8.41 6.86L7 8.27L13 14.27V15C13 16.66 14.34 18 16 18C16.23 18 16.44 17.97 16.65 17.92L18.31 19.58C17.6 19.91 16.81 20.1 16 20.1C13.24 20.1 10.7 18 10.7 15H9C9 18.41 11.72 21.23 15 21.72V25H17V21.72C17.91 21.59 18.77 21.27 19.55 20.82L23.75 25.02L25.16 23.61L8.41 6.86Z" fill="white"/>
</g>
<defs>
<clipPath id="clip0_203_4900">
<rect width="24" height="24" fill="white" transform="translate(4 4)"/>
</clipPath>
</defs>
</svg>
