<svg width="64" height="64" viewBox="0 0 64 64" fill="none" xmlns="http://www.w3.org/2000/svg">
<rect width="64" height="64" rx="32" fill="#33CCFF"/>
<g clip-path="url(#clip0_2_11894)">
<path d="M30 20.1668C30 19.0668 30.9 18.1668 32 18.1668C33.1 18.1668 34 19.0668 34 20.1668L33.9833 26.6835L37 29.6668V20.3335C37 17.5668 34.7667 15.3335 32 15.3335C29.4333 15.3335 27.35 17.2668 27.0667 19.7502L30 22.6835V20.1668ZM43.6667 30.3335H40.8333C40.8333 31.3002 40.6667 32.2168 40.3833 33.0668L42.5 35.1835C43.2333 33.7168 43.6667 32.0668 43.6667 30.3335ZM19.35 16.7668L17 19.1168L27 29.1168V30.3335C27 33.1002 29.2333 35.3335 32 35.3335C32.3833 35.3335 32.7333 35.2835 33.0833 35.2002L35.85 37.9668C34.6667 38.5168 33.35 38.8335 32 38.8335C27.4 38.8335 23.1667 35.3335 23.1667 30.3335H20.3333C20.3333 36.0168 24.8667 40.7168 30.3333 41.5335V47.0002H33.6667V41.5335C35.1833 41.3168 36.6167 40.7835 37.9167 40.0335L44.9167 47.0335L47.2667 44.6835L19.35 16.7668Z" fill="white"/>
</g>
<defs>
<clipPath id="clip0_2_11894">
<rect width="40" height="40" fill="white" transform="translate(12 12)"/>
</clipPath>
</defs>
</svg>
