<svg width="24" height="24" viewBox="0 0 24 24" fill="none" xmlns="http://www.w3.org/2000/svg">
<path fill-rule="evenodd" clip-rule="evenodd" d="M5.96339 4.88922C5.17335 4.88922 4.68053 5.59716 4.90622 6.26606C5.71548 8.66439 7.22353 12.2723 9.47246 14.5212C11.7214 16.7702 15.3293 18.2782 17.7277 19.0875C18.3965 19.3132 19.1045 18.8204 19.1045 18.0303V15.595C19.1045 15.5079 19.0573 15.4277 18.9811 15.3853C18.9811 15.3853 18.9811 15.3853 18.9811 15.3853L16.8598 14.2059C16.7906 14.1674 16.7068 14.1656 16.6359 14.201L14.3737 15.3321C14.2322 15.4028 14.0714 15.425 13.9161 15.3952L14.0517 14.6881C13.9161 15.3952 13.9163 15.3953 13.9161 15.3952L13.914 15.3948L13.9113 15.3943L13.9041 15.3929L13.8823 15.3883C13.8647 15.3846 13.8408 15.3793 13.8112 15.3723C13.752 15.3583 13.6696 15.3374 13.5681 15.3081C13.3654 15.2496 13.0845 15.157 12.758 15.0179C12.1079 14.7408 11.2593 14.2716 10.4907 13.503C9.72222 12.7346 9.25164 11.8847 8.97331 11.2337C8.83352 10.9067 8.74025 10.6253 8.68121 10.4222C8.65164 10.3205 8.63053 10.238 8.61637 10.1787C8.60929 10.1491 8.60394 10.1252 8.60014 10.1075L8.59556 10.0858L8.5941 10.0786L8.59357 10.0759L8.59335 10.0748C8.59331 10.0746 8.59317 10.0739 9.29992 9.9364L8.59335 10.0748C8.56303 9.91894 8.58491 9.75646 8.65593 9.61442L9.78719 7.35184C9.82259 7.28105 9.82083 7.19727 9.78238 7.128M9.78238 7.128L8.60813 5.01277C8.60813 5.01275 8.60814 5.01278 8.60813 5.01277C8.56577 4.93651 8.48541 4.88922 8.39829 4.88922H5.96339M10.0636 10.019C10.0637 10.0194 10.0638 10.0198 10.064 10.0202C10.1093 10.176 10.1837 10.4017 10.2974 10.6676C10.526 11.2023 10.9053 11.8812 11.5089 12.4848C12.1124 13.0883 12.7897 13.4661 13.3225 13.6932C13.5875 13.8061 13.8123 13.8798 13.9674 13.9246C13.9677 13.9247 13.9671 13.9245 13.9674 13.9246L15.9918 12.9131C16.488 12.6649 17.0747 12.6778 17.5596 12.9473L19.6808 14.1267C20.2139 14.4231 20.5445 14.9851 20.5445 15.595V18.0303C20.5445 19.7206 18.9486 21.0192 17.2673 20.4519C14.8388 19.6325 10.9542 18.0395 8.45423 15.5395C5.95423 13.0395 4.36122 9.15489 3.5418 6.72644C2.97452 5.04516 4.27314 3.44922 5.96339 3.44922H8.39829C9.00859 3.44922 9.57086 3.78021 9.8671 4.31376L11.0414 6.42907C11.3104 6.9137 11.3231 7.49993 11.0752 7.99582C11.0752 7.99583 11.0752 7.9958 11.0752 7.99582L10.0636 10.019Z" fill="#333333"/>
<path fill-rule="evenodd" clip-rule="evenodd" d="M20.8764 6.49364C20.8764 6.89128 20.554 7.21364 20.1564 7.21364L14.3964 7.21364C13.9987 7.21364 13.6764 6.89129 13.6764 6.49364C13.6764 6.096 13.9987 5.77364 14.3964 5.77364L20.1564 5.77364C20.554 5.77364 20.8764 6.09599 20.8764 6.49364Z" fill="#333333"/>
<path fill-rule="evenodd" clip-rule="evenodd" d="M17.2764 2.89363C17.674 2.89363 17.9964 3.21599 17.9964 3.61363L17.9964 9.37359C17.9964 9.77124 17.674 10.0936 17.2764 10.0936C16.8787 10.0936 16.5564 9.77123 16.5564 9.37359L16.5564 3.61363C16.5564 3.21599 16.8787 2.89363 17.2764 2.89363Z" fill="#333333"/>
</svg>
