<svg width="64" height="64" viewBox="0 0 64 64" fill="none" xmlns="http://www.w3.org/2000/svg">
<rect width="64" height="64" rx="32" fill="#333333" fill-opacity="0.2"/>
<g clip-path="url(#clip0_2_12221)">
<path d="M17 27V37H23.6667L32 45.3333V18.6666L23.6667 27H17ZM28.6667 26.7166V37.2833L25.05 33.6666H20.3333V30.3333H25.05L28.6667 26.7166ZM39.5 32C39.5 29.05 37.8 26.5166 35.3333 25.2833V38.7C37.8 37.4833 39.5 34.95 39.5 32ZM35.3333 17.3833V20.8166C40.15 22.25 43.6667 26.7166 43.6667 32C43.6667 37.2833 40.15 41.75 35.3333 43.1833V46.6166C42.0167 45.1 47 39.1333 47 32C47 24.8666 42.0167 18.9 35.3333 17.3833Z" fill="#F3F9FC"/>
</g>
<defs>
<clipPath id="clip0_2_12221">
<rect width="40" height="40" fill="white" transform="translate(12 12)"/>
</clipPath>
</defs>
</svg>
