<svg width="64" height="64" viewBox="0 0 64 64" fill="none" xmlns="http://www.w3.org/2000/svg">
<rect width="64" height="64" rx="32" fill="#33CCFF"/>
<g clip-path="url(#clip0_2_12180)">
<path d="M43.0835 25.917L38.4335 30.567C37.9002 31.1003 38.2669 32.0003 39.0169 32.0003H42.0002C42.0002 37.517 37.5169 42.0003 32.0002 42.0003C30.6835 42.0003 29.4002 41.7503 28.2502 41.267C27.6502 41.017 26.9669 41.2003 26.5169 41.6503C25.6669 42.5003 25.9669 43.9337 27.0835 44.3837C28.6002 45.0003 30.2669 45.3337 32.0002 45.3337C39.3669 45.3337 45.3335 39.367 45.3335 32.0003H48.3169C49.0669 32.0003 49.4335 31.1003 48.9002 30.5837L44.2502 25.9337C43.9335 25.6003 43.4002 25.6003 43.0835 25.917ZM22.0002 32.0003C22.0002 26.4837 26.4835 22.0003 32.0002 22.0003C33.3169 22.0003 34.6002 22.2503 35.7502 22.7337C36.3502 22.9837 37.0335 22.8003 37.4835 22.3503C38.3335 21.5003 38.0335 20.067 36.9169 19.617C35.4002 19.0003 33.7335 18.667 32.0002 18.667C24.6335 18.667 18.6669 24.6337 18.6669 32.0003H15.6835C14.9335 32.0003 14.5669 32.9003 15.1002 33.417L19.7502 38.067C20.0835 38.4003 20.6002 38.4003 20.9335 38.067L25.5835 33.417C26.1002 32.9003 25.7335 32.0003 24.9835 32.0003H22.0002Z" fill="#F3F9FC"/>
</g>
<defs>
<clipPath id="clip0_2_12180">
<rect width="40" height="40" fill="white" transform="translate(12 12)"/>
</clipPath>
</defs>
</svg>
