<svg width="120" height="120" viewBox="0 0 120 120" fill="none" xmlns="http://www.w3.org/2000/svg">
<g clip-path="url(#clip0_2_11889)">
<rect width="120" height="120" rx="60" fill="#33CCFF"/>
<g clip-path="url(#clip1_2_11889)">
<path d="M59.9998 59.9998C65.8932 59.9998 70.6665 55.2265 70.6665 49.3332C70.6665 43.4398 65.8932 38.6665 59.9998 38.6665C54.1065 38.6665 49.3332 43.4398 49.3332 49.3332C49.3332 55.2265 54.1065 59.9998 59.9998 59.9998ZM59.9998 65.3332C52.8798 65.3332 38.6665 68.9065 38.6665 75.9998V78.6665C38.6665 80.1332 39.8665 81.3332 41.3332 81.3332H78.6665C80.1332 81.3332 81.3332 80.1332 81.3332 78.6665V75.9998C81.3332 68.9065 67.1198 65.3332 59.9998 65.3332Z" fill="white"/>
</g>
</g>
<defs>
<clipPath id="clip0_2_11889">
<rect width="120" height="120" fill="white"/>
</clipPath>
<clipPath id="clip1_2_11889">
<rect width="64" height="64" fill="white" transform="translate(28 28)"/>
</clipPath>
</defs>
</svg>
