<svg width="57" height="56" viewBox="0 0 57 56" fill="none" xmlns="http://www.w3.org/2000/svg">
<rect x="0.166626" width="56" height="56" rx="28" fill="white"/>
<g clip-path="url(#clip0_501_16859)">
<path d="M34.0001 20.91L34.0001 35.21C34.0001 38.6933 31.4501 41.7933 27.9834 42.1266C24.0167 42.51 20.6667 39.3933 20.6667 35.4933L20.6667 18.2266C20.6667 16.0433 22.2334 14.06 24.4001 13.8433C26.9001 13.5933 29.0001 15.5433 29.0001 17.9933L29.0001 32.16C29.0001 33.0766 28.2501 33.8266 27.3334 33.8266C26.4167 33.8266 25.6667 33.0766 25.6667 32.16L25.6667 20.91C25.6667 20.2266 25.1001 19.66 24.4167 19.66C23.7334 19.66 23.1667 20.2266 23.1667 20.91L23.1667 31.9266C23.1667 34.11 24.7334 36.0933 26.9001 36.31C29.4001 36.56 31.5001 34.61 31.5001 32.16L31.5001 18.2766C31.5001 14.7933 28.9501 11.6933 25.4834 11.36C21.5001 10.9766 18.1667 14.0933 18.1667 17.9933L18.1667 35.11C18.1667 39.8933 21.6667 44.1766 26.4334 44.6266C31.9167 45.1266 36.5001 40.86 36.5001 35.4933L36.5001 20.91C36.5001 20.2266 35.9334 19.66 35.2501 19.66C34.5667 19.66 34.0001 20.2266 34.0001 20.91Z" fill="#33CCFF"/>
</g>
<defs>
<clipPath id="clip0_501_16859">
<rect width="40" height="40" fill="white" transform="translate(8.16663 8)"/>
</clipPath>
</defs>
</svg>
