<svg width="57" height="56" viewBox="0 0 57 56" fill="none" xmlns="http://www.w3.org/2000/svg">
<rect x="0.5" width="56" height="56" rx="28" fill="white"/>
<path d="M27.5 9.69998C19.5333 10.2167 13.5 17.2 13.5 25.1833V36.3333C13.5 39.1 15.7333 41.3333 18.5 41.3333H20.1667C22 41.3333 23.5 39.8333 23.5 38V31.3333C23.5 29.5 22 28 20.1667 28H16.8333V25.15C16.8333 18.75 21.7667 13.1833 28.15 13C34.7667 12.8167 40.1667 18.1 40.1667 24.6667V28H36.8333C35 28 33.5 29.5 33.5 31.3333V38C33.5 39.8333 35 41.3333 36.8333 41.3333H38.5C41.2667 41.3333 43.5 39.1 43.5 36.3333V24.6667C43.5 16.05 36.2333 9.13332 27.5 9.69998Z" fill="#33CCFF"/>
</svg>
