<svg width="57" height="56" viewBox="0 0 57 56" fill="none" xmlns="http://www.w3.org/2000/svg">
<rect x="0.166626" width="56" height="56" rx="28" fill="white"/>
<path fill-rule="evenodd" clip-rule="evenodd" d="M24.9855 43.6555C25.4566 43.4639 25.7647 43.0061 25.7647 42.4975L25.7647 35.2322C30.8558 34.9177 35.2519 32.9029 38.8972 29.2089C42.8162 25.2375 45.0654 20.2893 45.6598 14.427C45.7155 13.8783 45.405 13.358 44.8957 13.1465C44.3864 12.9349 43.7987 13.0821 43.4492 13.5087C39.4012 18.45 36.0137 20.9742 33.2938 21.5513C30.6539 22.1114 28.1465 22.2529 25.7647 21.9886L25.7647 14.1643C25.7647 13.6496 25.4493 13.1876 24.97 13.0001C24.4907 12.8127 23.9455 12.9381 23.5964 13.3162L10.1646 27.8618C9.71362 28.3501 9.72372 29.1059 10.1875 29.5821L23.6194 43.3698C23.9742 43.734 24.5144 43.847 24.9855 43.6555ZM12.8056 28.6868L23.2647 17.3604L23.2647 23.0784C23.2647 23.6908 23.7084 24.213 24.3127 24.312C27.3438 24.8083 30.5139 24.6968 33.8127 23.9969C36.5214 23.4221 39.3685 21.5185 42.3569 18.4847C41.3682 21.9355 39.62 24.9172 37.1177 27.4529C33.6463 30.9708 29.4654 32.7359 24.5048 32.7751C23.8184 32.7805 23.2647 33.3385 23.2647 34.025L23.2647 39.4231L12.8056 28.6868Z" fill="#33CCFF"/>
</svg>
