<svg width="57" height="56" viewBox="0 0 57 56" fill="none" xmlns="http://www.w3.org/2000/svg">
<rect x="0.833374" width="56" height="56" rx="28" fill="white"/>
<g clip-path="url(#clip0_501_16873)">
<path d="M42.1667 14.6668H36.8834L33.8334 11.3335H23.8334L20.7834 14.6668H15.5001C13.6667 14.6668 12.1667 16.1668 12.1667 18.0002V38.0002C12.1667 39.8335 13.6667 41.3335 15.5001 41.3335H42.1667C44.0001 41.3335 45.5001 39.8335 45.5001 38.0002V18.0002C45.5001 16.1668 44.0001 14.6668 42.1667 14.6668ZM42.1667 38.0002H15.5001V18.0002H22.2501L25.3001 14.6668H32.3667L35.4167 18.0002H42.1667V38.0002ZM28.8334 19.6668C24.2334 19.6668 20.5001 23.4002 20.5001 28.0002C20.5001 32.6002 24.2334 36.3335 28.8334 36.3335C33.4334 36.3335 37.1667 32.6002 37.1667 28.0002C37.1667 23.4002 33.4334 19.6668 28.8334 19.6668ZM28.8334 33.0002C26.0834 33.0002 23.8334 30.7502 23.8334 28.0002C23.8334 25.2502 26.0834 23.0002 28.8334 23.0002C31.5834 23.0002 33.8334 25.2502 33.8334 28.0002C33.8334 30.7502 31.5834 33.0002 28.8334 33.0002Z" fill="#33CCFF"/>
</g>
<defs>
<clipPath id="clip0_501_16873">
<rect width="40" height="40" fill="white" transform="translate(8.83337 8)"/>
</clipPath>
</defs>
</svg>
