<svg width="57" height="56" viewBox="0 0 57 56" fill="none" xmlns="http://www.w3.org/2000/svg">
<rect x="0.833374" width="56" height="56" rx="28" fill="white"/>
<g clip-path="url(#clip0_501_16878)">
<path d="M28.8333 27.9998C32.5167 27.9998 35.5 25.0165 35.5 21.3332C35.5 17.6498 32.5167 14.6665 28.8333 14.6665C25.15 14.6665 22.1667 17.6498 22.1667 21.3332C22.1667 25.0165 25.15 27.9998 28.8333 27.9998ZM28.8333 31.3332C24.3833 31.3332 15.5 33.5665 15.5 37.9998V39.6665C15.5 40.5832 16.25 41.3332 17.1667 41.3332H40.5C41.4167 41.3332 42.1667 40.5832 42.1667 39.6665V37.9998C42.1667 33.5665 33.2833 31.3332 28.8333 31.3332Z" fill="#33CCFF"/>
</g>
<defs>
<clipPath id="clip0_501_16878">
<rect width="40" height="40" fill="white" transform="translate(8.83337 8)"/>
</clipPath>
</defs>
</svg>
