<svg width="57" height="56" viewBox="0 0 57 56" fill="none" xmlns="http://www.w3.org/2000/svg">
<rect x="0.5" width="56" height="56" rx="28" fill="white"/>
<g clip-path="url(#clip0_501_16887)">
<path d="M28.5 28.0002C26.6666 28.0002 25.1666 26.5002 25.1666 24.6668C25.1666 22.8335 26.6666 21.3335 28.5 21.3335C30.3333 21.3335 31.8333 22.8335 31.8333 24.6668C31.8333 26.5002 30.3333 28.0002 28.5 28.0002ZM38.5 25.0002C38.5 18.9502 34.0833 14.6668 28.5 14.6668C22.9166 14.6668 18.5 18.9502 18.5 25.0002C18.5 28.9002 21.75 34.0668 28.5 40.2335C35.25 34.0668 38.5 28.9002 38.5 25.0002ZM28.5 11.3335C35.5 11.3335 41.8333 16.7002 41.8333 25.0002C41.8333 30.5335 37.3833 37.0835 28.5 44.6668C19.6166 37.0835 15.1666 30.5335 15.1666 25.0002C15.1666 16.7002 21.5 11.3335 28.5 11.3335Z" fill="#33CCFF"/>
</g>
<defs>
<clipPath id="clip0_501_16887">
<rect width="40" height="40" fill="white" transform="translate(8.5 8)"/>
</clipPath>
</defs>
</svg>
