<svg width="57" height="56" viewBox="0 0 57 56" fill="none" xmlns="http://www.w3.org/2000/svg">
<rect x="0.833374" width="56" height="56" rx="28" fill="white"/>
<g clip-path="url(#clip0_501_16853)">
<path d="M28.8334 29.25C31.55 29.25 33.95 29.9 35.9 30.75C37.7 31.55 38.8334 33.35 38.8334 35.3V36.3333C38.8334 37.25 38.0834 38 37.1667 38H20.5C19.5834 38 18.8334 37.25 18.8334 36.3333V35.3167C18.8334 33.35 19.9667 31.55 21.7667 30.7667C23.7167 29.9 26.1167 29.25 28.8334 29.25ZM15.5 29.6667C17.3334 29.6667 18.8334 28.1667 18.8334 26.3333C18.8334 24.5 17.3334 23 15.5 23C13.6667 23 12.1667 24.5 12.1667 26.3333C12.1667 28.1667 13.6667 29.6667 15.5 29.6667ZM17.3834 31.5C16.7667 31.4 16.15 31.3333 15.5 31.3333C13.85 31.3333 12.2834 31.6833 10.8667 32.3C9.63337 32.8333 8.83337 34.0333 8.83337 35.3833V36.3333C8.83337 37.25 9.58337 38 10.5 38H16.3334V35.3167C16.3334 33.9333 16.7167 32.6333 17.3834 31.5ZM42.1667 29.6667C44 29.6667 45.5 28.1667 45.5 26.3333C45.5 24.5 44 23 42.1667 23C40.3334 23 38.8334 24.5 38.8334 26.3333C38.8334 28.1667 40.3334 29.6667 42.1667 29.6667ZM48.8334 35.3833C48.8334 34.0333 48.0334 32.8333 46.8 32.3C45.3834 31.6833 43.8167 31.3333 42.1667 31.3333C41.5167 31.3333 40.9 31.4 40.2834 31.5C40.95 32.6333 41.3334 33.9333 41.3334 35.3167V38H47.1667C48.0834 38 48.8334 37.25 48.8334 36.3333V35.3833ZM28.8334 18C31.6 18 33.8334 20.2333 33.8334 23C33.8334 25.7667 31.6 28 28.8334 28C26.0667 28 23.8334 25.7667 23.8334 23C23.8334 20.2333 26.0667 18 28.8334 18Z" fill="#33CCFF"/>
</g>
<defs>
<clipPath id="clip0_501_16853">
<rect width="40" height="40" fill="white" transform="translate(8.83337 8)"/>
</clipPath>
</defs>
</svg>
