<svg width="57" height="56" viewBox="0 0 57 56" fill="none" xmlns="http://www.w3.org/2000/svg">
<rect x="0.5" width="56" height="56" rx="28" fill="white"/>
<g clip-path="url(#clip0_501_16848)">
<path d="M34.0599 22.6488V21.4146L36.9436 18.7445C37.1889 18.5072 37.3946 18.2936 37.5607 18.1037C37.7295 17.9139 37.8574 17.7279 37.9444 17.546C38.0314 17.3614 38.075 17.1623 38.075 16.9487C38.075 16.7113 38.0209 16.5069 37.9128 16.3355C37.8047 16.1615 37.657 16.0283 37.4697 15.936C37.2825 15.8411 37.0702 15.7936 36.8329 15.7936C36.585 15.7936 36.3687 15.8437 36.1841 15.9439C35.9995 16.0441 35.8571 16.1879 35.7569 16.3751C35.6567 16.5623 35.6066 16.7852 35.6066 17.0436H33.9808C33.9808 16.5135 34.1008 16.0534 34.3408 15.6631C34.5808 15.2728 34.917 14.9708 35.3495 14.7572C35.782 14.5436 36.2804 14.4368 36.8447 14.4368C37.4249 14.4368 37.9299 14.5396 38.3598 14.7453C38.7923 14.9484 39.1285 15.2306 39.3685 15.5919C39.6084 15.9531 39.7284 16.3672 39.7284 16.8339C39.7284 17.1399 39.6678 17.4418 39.5465 17.7398C39.4278 18.0378 39.2155 18.3688 38.9096 18.7327C38.6037 19.094 38.1725 19.5278 37.6161 20.0341L36.4333 21.1931V21.2485H39.8352V22.6488H34.0599Z" fill="#33CCFF"/>
<path fill-rule="evenodd" clip-rule="evenodd" d="M37.4935 11.3682C33.411 10.9751 29.7828 13.9658 29.3896 18.0483C28.9964 22.1307 31.9872 25.759 36.0697 26.1521C40.1521 26.5453 43.7803 23.5545 44.1735 19.4721C44.5667 15.3896 41.5759 11.7614 37.4935 11.3682ZM37.3155 13.2162C34.2536 12.9213 31.5325 15.1644 31.2376 18.2263C30.9427 21.2881 33.1858 24.0093 36.2476 24.3041C39.3095 24.599 42.0307 22.356 42.3255 19.2941C42.6204 16.2323 40.3773 13.5111 37.3155 13.2162Z" fill="#33CCFF"/>
<path fill-rule="evenodd" clip-rule="evenodd" d="M19.9723 19.0064C15.8899 18.6132 12.2616 21.604 11.8685 25.6865C11.4753 29.7689 14.4661 33.3972 18.5485 33.7903C22.631 34.1835 26.2592 31.1927 26.6524 27.1103C27.0456 23.0278 24.0548 19.3996 19.9723 19.0064ZM20.3897 30.6789V22.5777H18.7797L16.7742 23.8474V25.3664L18.6294 24.2035H18.6769V30.6789H20.3897Z" fill="#33CCFF"/>
<path fill-rule="evenodd" clip-rule="evenodd" d="M35.714 29.8482C31.6315 29.455 28.0033 32.4458 27.6101 36.5282C27.217 40.6107 30.2077 44.2389 34.2902 44.6321C38.3727 45.0253 42.0009 42.0345 42.3941 37.952C42.7872 33.8696 39.7965 30.2414 35.714 29.8482ZM33.4596 41.2024C33.9211 41.4055 34.4472 41.507 35.0379 41.507C35.6445 41.507 36.1824 41.4042 36.6519 41.1985C37.1213 40.9928 37.4891 40.7106 37.7555 40.352C38.0245 39.9933 38.1577 39.5832 38.155 39.1217C38.1577 38.618 38.0021 38.1987 37.6882 37.8638C37.3771 37.5263 36.9235 37.3193 36.3275 37.2428V37.1795C36.7811 37.0977 37.149 36.9052 37.4311 36.602C37.7159 36.2987 37.857 35.9203 37.8544 35.4667C37.857 35.0395 37.741 34.6544 37.5063 34.3116C37.2742 33.9661 36.9485 33.6919 36.5292 33.4888C36.1099 33.2858 35.6207 33.1842 35.0617 33.1842C34.5079 33.1842 34.0108 33.2858 33.5704 33.4888C33.1326 33.6892 32.7845 33.9675 32.5261 34.3235C32.2676 34.6795 32.1345 35.0909 32.1265 35.5576H33.7682C33.7761 35.352 33.838 35.1726 33.9541 35.0197C34.0701 34.8667 34.2244 34.7494 34.4169 34.6676C34.6094 34.5832 34.8217 34.541 35.0538 34.541C35.2832 34.541 35.4836 34.5845 35.655 34.6716C35.8291 34.7586 35.9636 34.8799 36.0585 35.0355C36.1561 35.1885 36.2049 35.3665 36.2049 35.5695C36.2049 35.7831 36.1495 35.9704 36.0387 36.1312C35.928 36.2895 35.7724 36.4134 35.572 36.5031C35.3742 36.5927 35.1461 36.6376 34.8876 36.6376H34.1321V37.8955H34.8876C35.1935 37.8955 35.4572 37.9429 35.6788 38.0379C35.9029 38.1328 36.0743 38.2647 36.193 38.4334C36.3143 38.5996 36.375 38.7908 36.375 39.007C36.375 39.2206 36.3183 39.4092 36.2049 39.5727C36.0915 39.7362 35.9346 39.8641 35.7341 39.9564C35.5337 40.0487 35.303 40.0948 35.0419 40.0948C34.7914 40.0948 34.5659 40.054 34.3655 39.9722C34.165 39.8905 34.0042 39.7757 33.8829 39.6281C33.7642 39.4777 33.6996 39.3037 33.689 39.1059H31.9644C31.9723 39.578 32.1081 39.9946 32.3718 40.3559C32.6381 40.7146 33.0007 40.9967 33.4596 41.2024Z" fill="#33CCFF"/>
</g>
<defs>
<clipPath id="clip0_501_16848">
<rect width="40" height="40" fill="white" transform="translate(8.5 8)"/>
</clipPath>
</defs>
</svg>
