<svg width="32" height="32" viewBox="0 0 32 32" fill="none" xmlns="http://www.w3.org/2000/svg">
<rect width="32" height="32" rx="16" fill="#33CCFF"/>
<g clip-path="url(#clip0_815_17309)">
<path d="M22 15V17H26V15H22ZM20 21.61C20.96 22.32 22.21 23.26 23.2 24C23.6 23.47 24 22.93 24.4 22.4C23.41 21.66 22.16 20.72 21.2 20C20.8 20.54 20.4 21.08 20 21.61ZM24.4 9.6C24 9.07 23.6 8.53 23.2 8C22.21 8.74 20.96 9.68 20 10.4C20.4 10.93 20.8 11.47 21.2 12C22.16 11.28 23.41 10.35 24.4 9.6ZM8 13C6.9 13 6 13.9 6 15V17C6 18.1 6.9 19 8 19H9V23H11V19H12L17 22V10L12 13H8ZM19.5 16C19.5 14.67 18.92 13.47 18 12.65V19.34C18.92 18.53 19.5 17.33 19.5 16Z" fill="white"/>
</g>
<defs>
<clipPath id="clip0_815_17309">
<rect width="24" height="24" fill="white" transform="translate(4 4)"/>
</clipPath>
</defs>
</svg>
