<svg width="33" height="32" viewBox="0 0 33 32" fill="none" xmlns="http://www.w3.org/2000/svg">
<path fill-rule="evenodd" clip-rule="evenodd" d="M11.6056 3.55279C11.775 3.214 12.1212 3 12.5 3H20.5C20.8788 3 21.225 3.214 21.3944 3.55279L23.3944 7.55279C23.5494 7.86277 23.5329 8.23092 23.3507 8.52573C23.1684 8.82055 22.8466 9 22.5 9H10.5C10.1534 9 9.83156 8.82055 9.64935 8.52573C9.46714 8.23092 9.45058 7.86277 9.60557 7.55279L11.6056 3.55279ZM13.118 5L12.118 7H20.882L19.882 5H13.118Z" fill="#33CCFF"/>
<path fill-rule="evenodd" clip-rule="evenodd" d="M5.16675 9C4.61446 9 4.16675 9.44772 4.16675 10V26C4.16675 26.5523 4.61446 27 5.16675 27H27.8334C28.3857 27 28.8334 26.5523 28.8334 26V10C28.8334 9.44772 28.3857 9 27.8334 9H5.16675ZM2.16675 10C2.16675 8.34315 3.50989 7 5.16675 7H27.8334C29.4903 7 30.8334 8.34315 30.8334 10V26C30.8334 27.6569 29.4903 29 27.8334 29H5.16675C3.50989 29 2.16675 27.6569 2.16675 26V10Z" fill="#33CCFF"/>
<path fill-rule="evenodd" clip-rule="evenodd" d="M10.1667 18.0003C10.1667 14.5025 13.0023 11.667 16.5001 11.667C19.9979 11.667 22.8334 14.5025 22.8334 18.0003C22.8334 21.4981 19.9979 24.3337 16.5001 24.3337C13.0023 24.3337 10.1667 21.4981 10.1667 18.0003ZM16.5001 13.667C14.1068 13.667 12.1667 15.6071 12.1667 18.0003C12.1667 20.3936 14.1068 22.3337 16.5001 22.3337C18.8933 22.3337 20.8334 20.3936 20.8334 18.0003C20.8334 15.6071 18.8933 13.667 16.5001 13.667Z" fill="#33CCFF"/>
</svg>
