<svg width="12" height="12" viewBox="0 0 12 12" fill="none" xmlns="http://www.w3.org/2000/svg">
<rect width="12" height="12" rx="6" fill="#FF7D7D"/>
<path fill-rule="evenodd" clip-rule="evenodd" d="M3.23483 3.23483C3.38128 3.08839 3.61872 3.08839 3.76517 3.23483L8.76516 8.23484C8.91161 8.38128 8.91161 8.61872 8.76516 8.76516C8.61872 8.91161 8.38128 8.91161 8.23484 8.76516L3.23483 3.76517C3.08839 3.61872 3.08839 3.38128 3.23483 3.23483Z" fill="white"/>
<path fill-rule="evenodd" clip-rule="evenodd" d="M8.76516 3.23483C8.91161 3.38128 8.91161 3.61872 8.76516 3.76517L3.76517 8.76516C3.61872 8.91161 3.38128 8.91161 3.23483 8.76516C3.08839 8.61872 3.08839 8.38128 3.23483 8.23484L8.23484 3.23483C8.38128 3.08839 8.61872 3.08839 8.76516 3.23483Z" fill="white"/>
</svg>
