<svg width="33" height="32" viewBox="0 0 33 32" fill="none" xmlns="http://www.w3.org/2000/svg">
<path fill-rule="evenodd" clip-rule="evenodd" d="M3.5 6C3.5 4.34315 4.84315 3 6.5 3H26.5C28.1569 3 29.5 4.34316 29.5 6V26C29.5 27.6569 28.1569 29 26.5 29H6.5C4.84316 29 3.5 27.6569 3.5 26V6ZM6.5 5C5.94772 5 5.5 5.44772 5.5 6V26C5.5 26.5523 5.94771 27 6.5 27H26.5C27.0523 27 27.5 26.5523 27.5 26V6C27.5 5.44771 27.0523 5 26.5 5H6.5Z" fill="#33CCFF"/>
<path fill-rule="evenodd" clip-rule="evenodd" d="M8.16675 12.0003C8.16675 9.60711 10.1069 7.66699 12.5001 7.66699C14.8933 7.66699 16.8334 9.60711 16.8334 12.0003C16.8334 14.3935 14.8933 16.3337 12.5001 16.3337C10.1069 16.3337 8.16675 14.3935 8.16675 12.0003ZM12.5001 9.66699C11.2114 9.66699 10.1667 10.7117 10.1667 12.0003C10.1667 13.289 11.2114 14.3337 12.5001 14.3337C13.7887 14.3337 14.8334 13.289 14.8334 12.0003C14.8334 10.7117 13.7887 9.66699 12.5001 9.66699Z" fill="#33CCFF"/>
<path fill-rule="evenodd" clip-rule="evenodd" d="M20.4978 16.5897C20.8795 16.2462 21.4594 16.2476 21.8394 16.5931L29.1727 23.2597C29.5814 23.6312 29.6115 24.2637 29.24 24.6723C28.8685 25.081 28.236 25.1111 27.8274 24.7396L21.1634 18.6814L15.169 24.0763C14.7956 24.4124 14.2307 24.4192 13.8493 24.0923L9.79165 20.6143L5.10006 24.133C4.65823 24.4644 4.03143 24.3748 3.70006 23.933C3.36869 23.4912 3.45823 22.8644 3.90006 22.533L9.23339 18.533C9.60835 18.2518 10.1283 18.2687 10.4842 18.5738L14.484 22.0021L20.4978 16.5897Z" fill="#33CCFF"/>
</svg>
