<svg width="179" height="90" viewBox="0 0 179 90" fill="none" xmlns="http://www.w3.org/2000/svg">
<path d="M89.5006 50.5704C101.606 50.5704 112.3 53.4668 120.99 57.2544C129.01 60.8192 134.061 68.84 134.061 77.5292V82.1338C134.061 86.2184 130.719 89.5604 126.634 89.5604H52.3673C48.2826 89.5604 44.9406 86.2184 44.9406 82.1338V77.6035C44.9406 68.84 49.9907 60.8192 58.0116 57.3287C66.7008 53.4668 77.3951 50.5704 89.5006 50.5704ZM30.0873 52.4271C38.2566 52.4271 44.9406 45.7431 44.9406 37.5738C44.9406 29.4044 38.2566 22.7204 30.0873 22.7204C21.9179 22.7204 15.2339 29.4044 15.2339 37.5738C15.2339 45.7431 21.9179 52.4271 30.0873 52.4271ZM38.4794 60.5964C35.7315 60.1508 32.9837 59.8538 30.0873 59.8538C22.7349 59.8538 15.7538 61.4134 9.44115 64.1612C3.94542 66.5378 0.380615 71.885 0.380615 77.9006V82.1338C0.380615 86.2184 3.72262 89.5604 7.80728 89.5604H33.8006V77.6035C33.8006 71.4394 35.5088 65.6466 38.4794 60.5964ZM148.914 52.4271C157.083 52.4271 163.767 45.7431 163.767 37.5738C163.767 29.4044 157.083 22.7204 148.914 22.7204C140.745 22.7204 134.061 29.4044 134.061 37.5738C134.061 45.7431 140.745 52.4271 148.914 52.4271ZM178.621 77.9006C178.621 71.885 175.056 66.5378 169.56 64.1612C163.247 61.4134 156.266 59.8538 148.914 59.8538C146.018 59.8538 143.27 60.1508 140.522 60.5964C143.492 65.6466 145.201 71.4394 145.201 77.6035V89.5604H171.194C175.279 89.5604 178.621 86.2184 178.621 82.1338V77.9006ZM89.5006 0.44043C101.829 0.44043 111.781 10.3922 111.781 22.7204C111.781 35.0487 101.829 45.0004 89.5006 45.0004C77.1723 45.0004 67.2206 35.0487 67.2206 22.7204C67.2206 10.3922 77.1723 0.44043 89.5006 0.44043Z" fill="white"/>
</svg>
