<svg width="29" height="30" viewBox="0 0 29 30" fill="none" xmlns="http://www.w3.org/2000/svg">
<path d="M2.77922 18.9611C2.39477 18.8069 1.95813 18.9936 1.80396 19.3781C1.6498 19.7625 1.83648 20.1992 2.22094 20.3533L2.77922 18.9611ZM6.28935 19.6572L5.78398 19.1031L5.78398 19.1031L6.28935 19.6572ZM8.06888 14.5153L8.4278 15.1738L8.42781 15.1738L8.06888 14.5153ZM14.4673 16.2593L14.8329 16.9142L14.8329 16.9142L14.4673 16.2593ZM19.9002 7.99117L19.1591 7.87533V7.87533L19.9002 7.99117ZM17.8057 4.47145L18.5438 4.3387L18.5438 4.33867L17.8057 4.47145ZM18.0128 2.87775C18.4109 2.76339 18.6409 2.34794 18.5265 1.94983C18.4122 1.55172 17.9967 1.32169 17.5986 1.43606L18.0128 2.87775ZM17.311 28.4247C17.6005 28.7209 18.0753 28.7264 18.3716 28.4369C18.6678 28.1474 18.6733 27.6726 18.3838 27.3763L17.311 28.4247ZM16.4981 24.3348L15.7835 24.1072L15.7835 24.1072L16.4981 24.3348ZM18.266 21.7656L18.9693 22.0262L18.9693 22.0261L18.266 21.7656ZM19.943 18.0552L20.2913 18.7195L20.2913 18.7195L19.943 18.0552ZM25.9199 21.4617C26.2137 21.7537 26.6886 21.7523 26.9806 21.4585C27.2726 21.1647 27.2712 20.6899 26.9774 20.3978L25.9199 21.4617ZM14.5001 29.0836C22.2781 29.0836 28.5834 22.7783 28.5834 15.0003H27.0834C27.0834 21.9499 21.4497 27.5836 14.5001 27.5836V29.0836ZM28.5834 15.0003C28.5834 7.22228 22.2781 0.916992 14.5001 0.916992V2.41699C21.4497 2.41699 27.0834 8.05071 27.0834 15.0003H28.5834ZM14.5001 0.916992C6.72207 0.916992 0.416748 7.22228 0.416748 15.0003H1.91675C1.91675 8.05071 7.55049 2.41699 14.5001 2.41699V0.916992ZM0.416748 15.0003C0.416748 22.7783 6.72207 29.0836 14.5001 29.0836V27.5836C7.5505 27.5836 1.91675 21.9499 1.91675 15.0003H0.416748ZM2.22094 20.3533C4.01963 21.0746 5.67747 21.2303 6.79472 20.2114L5.78398 19.1031C5.35816 19.4914 4.48976 19.647 2.77922 18.9611L2.22094 20.3533ZM6.79471 20.2114C7.26121 19.786 7.45767 19.1964 7.56255 18.6828C7.66763 18.1683 7.70644 17.5789 7.75203 17.0916C7.80093 16.569 7.85888 16.1345 7.97865 15.7879C8.09297 15.4571 8.23944 15.2765 8.4278 15.1738L7.70996 13.8568C7.08788 14.1958 6.75137 14.7468 6.5609 15.298C6.37589 15.8335 6.30725 16.4314 6.25855 16.9519C6.20653 17.5078 6.1767 17.9723 6.09288 18.3827C6.00886 18.7942 5.89616 19.0008 5.78398 19.1031L6.79471 20.2114ZM8.42781 15.1738C8.51943 15.1239 8.6943 15.0889 9.12031 15.2804C9.5505 15.4738 10.0133 15.7926 10.6068 16.1714C11.1607 16.5249 11.8155 16.9201 12.5088 17.1253C13.2298 17.3387 14.0357 17.3592 14.8329 16.9142L14.1017 15.6044C13.7448 15.8037 13.3765 15.8178 12.9346 15.687C12.4651 15.548 11.9684 15.261 11.4138 14.907C10.8989 14.5783 10.2962 14.1644 9.73534 13.9122C9.17034 13.6583 8.42874 13.465 7.70995 13.8568L8.42781 15.1738ZM14.8329 16.9142C15.6197 16.4749 16.0126 15.8241 16.1653 15.1133C16.3074 14.4519 16.2398 13.7435 16.169 13.1509C16.0922 12.508 16.0124 11.9966 16.0333 11.5385C16.0529 11.1082 16.1587 10.869 16.3437 10.7081L15.3594 9.57622C14.7435 10.1118 14.5643 10.8243 14.5349 11.4702C14.5067 12.0884 14.6137 12.7776 14.6796 13.3288C14.7514 13.9303 14.7823 14.4095 14.6988 14.7982C14.6259 15.1376 14.4689 15.3994 14.1017 15.6044L14.8329 16.9142ZM16.3437 10.7081C16.9159 10.2106 17.5137 10.2492 18.4106 10.1644C18.8104 10.1266 19.3377 10.0499 19.7869 9.71564C20.267 9.35842 20.5313 8.80998 20.6412 8.107L19.1591 7.87533C19.087 8.33685 18.9544 8.46543 18.8915 8.51223C18.7977 8.582 18.636 8.63636 18.2693 8.67105C17.6334 8.73122 16.389 8.68091 15.3594 9.57622L16.3437 10.7081ZM20.6412 8.107C20.7465 7.43336 20.6972 6.87126 20.4378 6.40408C20.1849 5.94865 19.7915 5.70177 19.5255 5.54119C19.225 5.3598 19.0483 5.26419 18.8898 5.10052C18.7579 4.96444 18.6185 4.75378 18.5438 4.3387L17.0675 4.6042C17.1908 5.28955 17.4576 5.77795 17.8125 6.14424C18.1406 6.48294 18.5311 6.69302 18.7503 6.82534C19.0039 6.97845 19.0826 7.05329 19.1264 7.13226C19.1638 7.19948 19.2359 7.38449 19.1591 7.87533L20.6412 8.107ZM18.5438 4.33867C18.4139 3.61641 18.3577 3.10969 18.3577 2.79241C18.3577 2.6281 18.3735 2.56671 18.3733 2.56726C18.3723 2.57036 18.3572 2.62034 18.3068 2.68382C18.2505 2.75489 18.1533 2.83738 18.0128 2.87775L17.5986 1.43606C17.1686 1.55959 17.0017 1.92688 16.9412 2.12117C16.875 2.33355 16.8577 2.57095 16.8577 2.79241C16.8577 3.24663 16.9335 3.85928 17.0675 4.60424L18.5438 4.33867ZM18.3838 27.3763C17.2121 26.1771 16.9877 25.269 17.2127 24.5624L15.7835 24.1072C15.3088 25.5976 15.9839 27.0665 17.311 28.4247L18.3838 27.3763ZM17.2127 24.5624C17.4273 23.8887 17.6902 23.6056 17.9506 23.3612C18.2266 23.1021 18.705 22.7395 18.9693 22.0262L17.5627 21.5051C17.4495 21.8106 17.3064 21.9086 16.924 22.2675C16.526 22.641 16.0937 23.1331 15.7835 24.1072L17.2127 24.5624ZM18.9693 22.0261C19.1196 21.6205 19.1141 21.2064 19.1042 20.9056C19.0928 20.5643 19.0741 20.3312 19.1037 20.0817C19.1298 19.8609 19.1933 19.6603 19.3414 19.4577C19.4952 19.2474 19.7719 18.9918 20.2913 18.7195L19.5947 17.391C18.9312 17.7389 18.454 18.1299 18.1305 18.5724C17.8014 19.0225 17.6643 19.481 17.6141 19.9054C17.5672 20.3011 17.5965 20.6993 17.605 20.9554C17.6148 21.2519 17.6012 21.4013 17.5627 21.5051L18.9693 22.0261ZM20.2913 18.7195C20.815 18.4449 21.4997 18.4201 22.4492 18.8396C23.4128 19.2654 24.5688 20.1186 25.9199 21.4617L26.9774 20.3978C25.5687 18.9976 24.2605 18 23.0555 17.4676C21.8365 16.929 20.6483 16.8386 19.5947 17.391L20.2913 18.7195Z" fill="#33CCFF"/>
</svg>
