<svg width="32" height="32" viewBox="0 0 32 32" fill="none" xmlns="http://www.w3.org/2000/svg">
<rect width="32" height="32" rx="16" fill="#18BD5A"/>
<g clip-path="url(#clip0_255_7496)">
<path d="M23.23 19.2598L20.69 18.9698C20.08 18.8998 19.48 19.1098 19.05 19.5398L17.21 21.3798C14.38 19.9398 12.06 17.6298 10.62 14.7898L12.47 12.9398C12.9 12.5098 13.11 11.9098 13.04 11.2998L12.75 8.77977C12.63 7.76977 11.78 7.00977 10.76 7.00977H9.03004C7.90004 7.00977 6.96004 7.94977 7.03004 9.07977C7.56004 17.6198 14.39 24.4398 22.92 24.9698C24.05 25.0398 24.99 24.0998 24.99 22.9698V21.2398C25 20.2298 24.24 19.3798 23.23 19.2598Z" fill="white"/>
</g>
<defs>
<clipPath id="clip0_255_7496">
<rect width="24" height="24" fill="white" transform="translate(4 4)"/>
</clipPath>
</defs>
</svg>
