<svg width="32" height="32" viewBox="0 0 32 32" fill="none" xmlns="http://www.w3.org/2000/svg">
<rect width="32" height="32" rx="16" fill="#33CCFF"/>
<g clip-path="url(#clip0_565_17089)">
<path d="M19.5 17.9996H18.71L18.43 17.7296C19.63 16.3296 20.25 14.4196 19.91 12.3896C19.44 9.60965 17.12 7.38965 14.32 7.04965C10.09 6.52965 6.53002 10.0896 7.05002 14.3196C7.39002 17.1196 9.61002 19.4396 12.39 19.9096C14.42 20.2496 16.33 19.6296 17.73 18.4296L18 18.7096V19.4996L22.25 23.7496C22.66 24.1596 23.33 24.1596 23.74 23.7496C24.15 23.3396 24.15 22.6696 23.74 22.2596L19.5 17.9996ZM13.5 17.9996C11.01 17.9996 9.00002 15.9896 9.00002 13.4996C9.00002 11.0096 11.01 8.99965 13.5 8.99965C15.99 8.99965 18 11.0096 18 13.4996C18 15.9896 15.99 17.9996 13.5 17.9996Z" fill="white"/>
</g>
<defs>
<clipPath id="clip0_565_17089">
<rect width="24" height="24" fill="white" transform="translate(4 4)"/>
</clipPath>
</defs>
</svg>
