<svg width="32" height="32" viewBox="0 0 32 32" fill="none" xmlns="http://www.w3.org/2000/svg">
<rect width="32" height="32" rx="16" fill="#33CCFF"/>
<g clip-path="url(#clip0_565_17174)">
<path d="M18 5H14C13.45 5 13 5.45 13 6C13 6.55 13.45 7 14 7H18C18.55 7 19 6.55 19 6C19 5.45 18.55 5 18 5ZM16 18C16.55 18 17 17.55 17 17V13C17 12.45 16.55 12 16 12C15.45 12 15 12.45 15 13V17C15 17.55 15.45 18 16 18ZM23.03 11.39L23.78 10.64C24.16 10.26 24.17 9.63 23.78 9.24L23.77 9.23C23.38 8.84 22.76 8.85 22.37 9.23L21.62 9.98C20.07 8.74 18.12 8 16 8C11.2 8 7.11998 11.96 6.99998 16.76C6.86998 21.84 10.94 26 16 26C20.98 26 25 21.97 25 17C25 14.88 24.26 12.93 23.03 11.39ZM16 24C12.13 24 8.99998 20.87 8.99998 17C8.99998 13.13 12.13 10 16 10C19.87 10 23 13.13 23 17C23 20.87 19.87 24 16 24Z" fill="white"/>
</g>
<defs>
<clipPath id="clip0_565_17174">
<rect width="24" height="24" fill="white" transform="translate(4 4)"/>
</clipPath>
</defs>
</svg>
