<svg width="32" height="32" viewBox="0 0 32 32" fill="none" xmlns="http://www.w3.org/2000/svg">
<rect width="32" height="32" rx="16" fill="#33CCFF"/>
<g clip-path="url(#clip0_811_17521)">
<path d="M23.4301 16.98C23.4701 16.66 23.5001 16.34 23.5001 16C23.5001 15.66 23.4701 15.34 23.4301 15.02L25.5401 13.37C25.7301 13.22 25.7801 12.95 25.6601 12.73L23.6601 9.27C23.5701 9.11 23.4001 9.02 23.2201 9.02C23.1601 9.02 23.1001 9.03 23.0501 9.05L20.5601 10.05C20.0401 9.65 19.4801 9.32 18.8701 9.07L18.4901 6.42C18.4601 6.18 18.2501 6 18.0001 6H14.0001C13.7501 6 13.5401 6.18 13.5101 6.42L13.1301 9.07C12.5201 9.32 11.9601 9.66 11.4401 10.05L8.95008 9.05C8.89008 9.03 8.83008 9.02 8.77008 9.02C8.60008 9.02 8.43008 9.11 8.34008 9.27L6.34008 12.73C6.21008 12.95 6.27008 13.22 6.46008 13.37L8.57008 15.02C8.53008 15.34 8.50008 15.67 8.50008 16C8.50008 16.33 8.53008 16.66 8.57008 16.98L6.46008 18.63C6.27008 18.78 6.22008 19.05 6.34008 19.27L8.34008 22.73C8.43008 22.89 8.60008 22.98 8.78008 22.98C8.84008 22.98 8.90008 22.97 8.95008 22.95L11.4401 21.95C11.9601 22.35 12.5201 22.68 13.1301 22.93L13.5101 25.58C13.5401 25.82 13.7501 26 14.0001 26H18.0001C18.2501 26 18.4601 25.82 18.4901 25.58L18.8701 22.93C19.4801 22.68 20.0401 22.34 20.5601 21.95L23.0501 22.95C23.1101 22.97 23.1701 22.98 23.2301 22.98C23.4001 22.98 23.5701 22.89 23.6601 22.73L25.6601 19.27C25.7801 19.05 25.7301 18.78 25.5401 18.63L23.4301 16.98ZM21.4501 15.27C21.4901 15.58 21.5001 15.79 21.5001 16C21.5001 16.21 21.4801 16.43 21.4501 16.73L21.3101 17.86L22.2001 18.56L23.2801 19.4L22.5801 20.61L21.3101 20.1L20.2701 19.68L19.3701 20.36C18.9401 20.68 18.5301 20.92 18.1201 21.09L17.0601 21.52L16.9001 22.65L16.7001 24H15.3001L15.1101 22.65L14.9501 21.52L13.8901 21.09C13.4601 20.91 13.0601 20.68 12.6601 20.38L11.7501 19.68L10.6901 20.11L9.42008 20.62L8.72008 19.41L9.80008 18.57L10.6901 17.87L10.5501 16.74C10.5201 16.43 10.5001 16.2 10.5001 16C10.5001 15.8 10.5201 15.57 10.5501 15.27L10.6901 14.14L9.80008 13.44L8.72008 12.6L9.42008 11.39L10.6901 11.9L11.7301 12.32L12.6301 11.64C13.0601 11.32 13.4701 11.08 13.8801 10.91L14.9401 10.48L15.1001 9.35L15.3001 8H16.6901L16.8801 9.35L17.0401 10.48L18.1001 10.91C18.5301 11.09 18.9301 11.32 19.3301 11.62L20.2401 12.32L21.3001 11.89L22.5701 11.38L23.2701 12.59L22.2001 13.44L21.3101 14.14L21.4501 15.27ZM16.0001 12C13.7901 12 12.0001 13.79 12.0001 16C12.0001 18.21 13.7901 20 16.0001 20C18.2101 20 20.0001 18.21 20.0001 16C20.0001 13.79 18.2101 12 16.0001 12ZM16.0001 18C14.9001 18 14.0001 17.1 14.0001 16C14.0001 14.9 14.9001 14 16.0001 14C17.1001 14 18.0001 14.9 18.0001 16C18.0001 17.1 17.1001 18 16.0001 18Z" fill="white"/>
</g>
<defs>
<clipPath id="clip0_811_17521">
<rect width="24" height="24" fill="white" transform="translate(4 4)"/>
</clipPath>
</defs>
</svg>
