<svg width="32" height="32" viewBox="0 0 32 32" fill="none" xmlns="http://www.w3.org/2000/svg">
<rect width="32" height="32" rx="16" fill="#33CCFF"/>
<g clip-path="url(#clip0_857_18269)">
<path d="M19.5 18.0006H18.71L18.43 17.7306C19.63 16.3306 20.25 14.4206 19.91 12.3906C19.44 9.61063 17.12 7.39063 14.32 7.05063C10.09 6.53063 6.53002 10.0906 7.05002 14.3206C7.39002 17.1206 9.61002 19.4406 12.39 19.9106C14.42 20.2506 16.33 19.6306 17.73 18.4306L18 18.7106V19.5006L22.25 23.7506C22.66 24.1606 23.33 24.1606 23.74 23.7506C24.15 23.3406 24.15 22.6706 23.74 22.2606L19.5 18.0006ZM13.5 18.0006C11.01 18.0006 9.00002 15.9906 9.00002 13.5006C9.00002 11.0106 11.01 9.00063 13.5 9.00063C15.99 9.00063 18 11.0106 18 13.5006C18 15.9906 15.99 18.0006 13.5 18.0006Z" fill="white"/>
</g>
<defs>
<clipPath id="clip0_857_18269">
<rect width="24" height="24" fill="white" transform="translate(4 4)"/>
</clipPath>
</defs>
</svg>
