<svg width="32" height="32" viewBox="0 0 32 32" fill="none" xmlns="http://www.w3.org/2000/svg">
<rect width="32" height="32" rx="16" fill="#33CCFF"/>
<g clip-path="url(#clip0_255_7495)">
<path d="M24.0916 6.06459L23.9492 6.1178C23.9721 6.13149 23.9892 6.12359 24.0076 6.12043L24.0795 6.07724C24.0832 6.0725 24.0888 6.06907 24.0916 6.06459ZM13.28 25.9221C13.28 26.1167 13.1128 25.8802 13.28 25.9221ZM6.05572 16.8915C5.93035 16.975 6.05572 16.7387 6.05572 16.8915ZM24.0916 6.06459L24.1164 6.05511C24.1067 6.04853 24.1114 6.04642 24.1059 6.04115C24.1014 6.04985 24.0985 6.0538 24.0916 6.06459ZM24.0076 6.12043L6.05572 16.8915C6.05572 16.8915 8.63318 18.2526 11.361 19.3185L22.3104 7.86139L13.28 20.5038V25.9221L15.567 21.1809L22.3107 24.1161L24.1167 6.05538L24.0801 6.07724C24.0619 6.10147 24.0377 6.1149 24.0076 6.12043ZM24.1059 6.04115C24.1214 6.01113 24.1277 5.99453 24.1167 6.05538C24.2449 5.99137 24.0424 5.97794 24.1059 6.04115Z" fill="white"/>
</g>
<defs>
<clipPath id="clip0_255_7495">
<rect width="24" height="24" fill="white" transform="translate(4 4)"/>
</clipPath>
</defs>
</svg>
