<svg width="32" height="32" viewBox="0 0 32 32" fill="none" xmlns="http://www.w3.org/2000/svg">
<rect width="32" height="32" rx="16" fill="#33CCFF"/>
<g clip-path="url(#clip0_565_17385)">
<path d="M7 13.0005V19.0005H11L16 24.0005V8.00047L11 13.0005H7ZM14 12.8305V19.1705L11.83 17.0005H9V15.0005H11.83L14 12.8305ZM20.5 16.0005C20.5 14.2305 19.48 12.7105 18 11.9705V20.0205C19.48 19.2905 20.5 17.7705 20.5 16.0005ZM18 7.23047V9.29047C20.89 10.1505 23 12.8305 23 16.0005C23 19.1705 20.89 21.8505 18 22.7105V24.7705C22.01 23.8605 25 20.2805 25 16.0005C25 11.7205 22.01 8.14047 18 7.23047Z" fill="white"/>
</g>
<defs>
<clipPath id="clip0_565_17385">
<rect width="24" height="24" fill="white" transform="translate(4 4)"/>
</clipPath>
</defs>
</svg>
